<svg width="16" height="16" viewBox="0 0 16 16" fill="none" xmlns="http://www.w3.org/2000/svg">
<rect width="16" height="16" rx="8" fill="#F7F7F8"/>
<path id="Vector" d="M5.62886 4.92961C5.5382 4.84482 5.4183 4.79866 5.29441 4.80086C5.17052 4.80305 5.05232 4.85343 4.9647 4.94137C4.87709 5.02931 4.8269 5.14796 4.82471 5.27231C4.82253 5.39667 4.86851 5.51702 4.95298 5.60801L7.32491 7.98881L4.95298 10.3696C4.906 10.4136 4.86832 10.4665 4.84218 10.5254C4.81604 10.5843 4.80199 10.6479 4.80086 10.7123C4.79972 10.7768 4.81153 10.8408 4.83559 10.9006C4.85964 10.9603 4.89544 11.0146 4.94085 11.0602C4.98626 11.1058 5.04035 11.1417 5.09989 11.1658C5.15944 11.19 5.22322 11.2018 5.28743 11.2007C5.35164 11.1996 5.41496 11.1855 5.47362 11.1592C5.53228 11.133 5.58508 11.0952 5.62886 11.048L8.00078 8.66721L10.3727 11.048C10.4165 11.0952 10.4693 11.133 10.5279 11.1592C10.5866 11.1855 10.6499 11.1996 10.7141 11.2007C10.7783 11.2018 10.8421 11.19 10.9017 11.1658C10.9612 11.1417 11.0153 11.1058 11.0607 11.0602C11.1061 11.0146 11.1419 10.9603 11.166 10.9006C11.19 10.8408 11.2018 10.7768 11.2007 10.7123C11.1996 10.6479 11.1855 10.5843 11.1594 10.5254C11.1332 10.4665 11.0956 10.4136 11.0486 10.3696L8.67665 7.98881L11.0486 5.60801C11.133 5.51702 11.179 5.39667 11.1769 5.27231C11.1747 5.14796 11.1245 5.02931 11.0369 4.94137C10.9492 4.85343 10.831 4.80305 10.7071 4.80086C10.5833 4.79866 10.4634 4.84482 10.3727 4.92961L8.00078 7.31041L5.62886 4.92961Z" fill="#818AA3"/>
</svg>
