<svg width="14" height="14" viewBox="0 0 14 14" fill="none" xmlns="http://www.w3.org/2000/svg">
<g id="Section 8">
<g id="Integrations/KonturTalk/16" clip-path="url(#clip0_31194_3006)">
<path id="Vector" d="M10.5 0H3.5C1.567 0 0 1.567 0 3.5V10.5C0 12.433 1.567 14 3.5 14H10.5C12.433 14 14 12.433 14 10.5V3.5C14 1.567 12.433 0 10.5 0Z" fill="#51ADFF"/>
<path id="Vector_2" fill-rule="evenodd" clip-rule="evenodd" d="M3.64648 3.5C2.92161 3.5 2.33398 4.08763 2.33398 4.8125V9.1875C2.33398 9.91235 2.92161 10.5 3.64648 10.5H8.02148C8.74633 10.5 9.33398 9.91235 9.33398 9.1875V8.71278C9.33398 8.66752 9.38584 8.64185 9.42183 8.66932L11.1954 10.0232C11.6273 10.3529 12.2498 10.0449 12.2498 9.50157V4.49845C12.2498 3.95509 11.6273 3.64712 11.1954 3.97682L9.42183 5.3307C9.38584 5.35817 9.33398 5.33251 9.33398 5.28723V4.8125C9.33398 4.08763 8.74633 3.5 8.02148 3.5H3.64648Z" fill="white"/>
<path id="Vector_3" d="M6.22923 6.32047C6.17486 6.21927 6.14091 6.10832 6.12942 5.99398C6.11787 5.87965 6.12901 5.76417 6.16209 5.65413C6.19522 5.5441 6.24965 5.44166 6.32233 5.35268C6.39507 5.26369 6.48456 5.18989 6.58576 5.1355C6.68697 5.0811 6.79792 5.04718 6.91226 5.03566C7.02659 5.02414 7.14209 5.03525 7.25211 5.06835C7.36212 5.10146 7.46456 5.15592 7.55357 5.22862C7.64253 5.30131 7.71632 5.39083 7.77075 5.49204" stroke="#222222" stroke-width="0.583333" stroke-linecap="round" stroke-linejoin="round"/>
</g>
</g>
<defs>
<clipPath id="clip0_31194_3006">
<rect width="14" height="14" fill="white"/>
</clipPath>
</defs>
</svg>
