<svg preserveAspectRatio="none" width="100%" height="100%" overflow="visible" style="display: block;" viewBox="0 0 80 48" fill="none" xmlns="http://www.w3.org/2000/svg">
<g id="Frame 2085664596">
<rect x="0.5" y="0.5" width="79" height="47" rx="3.5" fill="var(--fill-0, #F7F7F8)"/>
<rect x="0.5" y="0.5" width="79" height="47" rx="3.5" stroke="var(--stroke-0, #EFEFEF)"/>
<path id="Vector" fill-rule="evenodd" clip-rule="evenodd" d="M47.7462 15.7692C47.8332 15.8394 47.9034 15.9282 47.9517 16.0291C48 16.13 48.0251 16.2404 48.0252 16.3522V27.6422C48.0254 28.1564 47.8495 28.6552 47.5267 29.0555C47.2039 29.4558 46.7538 29.7334 46.2512 29.8422L44.2102 30.2822C43.6357 30.4066 43.0354 30.2977 42.5412 29.9794C42.0471 29.6612 41.6996 29.1597 41.5752 28.5852C41.4508 28.0107 41.5597 27.4104 41.878 26.9162C42.1962 26.4221 42.6977 26.0746 43.2722 25.9502L45.9342 25.3732C46.1016 25.3369 46.2515 25.2444 46.3591 25.111C46.4666 24.9777 46.5252 24.8115 46.5252 24.6402V20.2822L38.5252 22.0122V29.6962C38.5254 30.2104 38.3495 30.7092 38.0267 31.1095C37.7039 31.5098 37.2538 31.7874 36.7512 31.8962L34.7092 32.3362C34.422 32.4053 34.1239 32.4163 33.8324 32.3685C33.5409 32.3207 33.2619 32.2152 33.0118 32.058C32.7617 31.9008 32.5455 31.6952 32.376 31.4533C32.2065 31.2114 32.087 30.9381 32.0247 30.6493C31.9624 30.3606 31.9584 30.0623 32.013 29.772C32.0676 29.4817 32.1797 29.2052 32.3427 28.9589C32.5057 28.7126 32.7163 28.5013 32.9621 28.3375C33.208 28.1737 33.4841 28.0607 33.7742 28.0052L36.4332 27.4322C36.6008 27.3961 36.7509 27.3036 36.8587 27.1703C36.9664 27.0369 37.0252 26.8706 37.0252 26.6992V18.4062C37.0252 18.2349 37.0838 18.0688 37.1913 17.9354C37.2989 17.8021 37.4488 17.7095 37.6162 17.6732L47.1162 15.6192C47.2257 15.5956 47.3392 15.5967 47.4482 15.6227C47.5572 15.6487 47.6591 15.6987 47.7462 15.7692Z" fill="var(--fill-0, #818AA3)"/>
</g>
</svg>
