<svg preserveAspectRatio="none" width="100%" height="100%" overflow="visible" style="display: block;" viewBox="0 0 12 12" fill="none" xmlns="http://www.w3.org/2000/svg">
<g id="Frame" clip-path="url(#clip0_0_19)">
<path id="Vector" fill-rule="evenodd" clip-rule="evenodd" d="M6 11.25C7.39239 11.25 8.72774 10.6969 9.71231 9.71231C10.6969 8.72774 11.25 7.39239 11.25 6C11.25 4.60761 10.6969 3.27226 9.71231 2.28769C8.72774 1.30312 7.39239 0.75 6 0.75C4.60761 0.75 3.27226 1.30312 2.28769 2.28769C1.30312 3.27226 0.75 4.60761 0.75 6C0.75 7.39239 1.30312 8.72774 2.28769 9.71231C3.27226 10.6969 4.60761 11.25 6 11.25ZM8.883 4.65675C8.9743 4.5386 9.01493 4.38901 8.99594 4.24091C8.97695 4.0928 8.8999 3.9583 8.78175 3.867C8.6636 3.7757 8.51401 3.73507 8.36591 3.75406C8.2178 3.77305 8.0833 3.8501 7.992 3.96825L5.217 7.56075L3.98025 6.186C3.93131 6.12935 3.87155 6.08305 3.80448 6.04979C3.73741 6.01654 3.66438 5.997 3.58967 5.99234C3.51495 5.98767 3.44006 5.99797 3.36937 6.02262C3.29869 6.04727 3.23363 6.08578 3.17803 6.1359C3.12242 6.18602 3.07737 6.24673 3.04553 6.31448C3.01369 6.38224 2.99569 6.45566 2.99259 6.53046C2.98949 6.60525 3.00135 6.67992 3.02748 6.75007C3.05361 6.82022 3.09348 6.88445 3.14475 6.939L4.83225 8.814C4.88737 8.87513 4.95523 8.92342 5.03104 8.95546C5.10686 8.98751 5.18878 9.00252 5.27104 8.99944C5.35329 8.99637 5.43386 8.97528 5.50708 8.93766C5.58029 8.90005 5.64435 8.84683 5.69475 8.78175L8.883 4.65675Z" fill="var(--fill-0, #0D9655)"/>
</g>
<defs>
<clipPath id="clip0_0_19">
<rect width="12" height="12" fill="white"/>
</clipPath>
</defs>
</svg>
