<svg preserveAspectRatio="xMidYMid meet" width="100%" height="100%" overflow="visible" style="display: block;" viewBox="0 0 8.01203 4.8125" fill="none" xmlns="http://www.w3.org/2000/svg">
<path id="Vector" fill-rule="evenodd" clip-rule="evenodd" d="M0.183623 0.180885C0.29823 0.0706212 0.451926 0.0103689 0.610935 0.013369C0.769944 0.0163692 0.921257 0.0823765 1.03162 0.196885L3.99962 3.34729L6.96762 0.196885C7.02157 0.13741 7.08691 0.089368 7.15977 0.0556073C7.23262 0.0218465 7.31152 0.0030538 7.39177 0.000342219C7.47202 -0.00236936 7.552 0.0110553 7.62697 0.0398213C7.70194 0.0685873 7.77038 0.112109 7.82822 0.167808C7.88606 0.223506 7.93213 0.290248 7.9637 0.364079C7.99528 0.43791 8.01171 0.517328 8.01203 0.597626C8.01234 0.677924 7.99654 0.757469 7.96555 0.831548C7.93456 0.905626 7.88902 0.972731 7.83162 1.02889L4.43162 4.62889C4.37565 4.68696 4.30855 4.73314 4.23432 4.76469C4.1601 4.79624 4.08027 4.8125 3.99962 4.8125C3.91897 4.8125 3.83915 4.79624 3.76492 4.76469C3.6907 4.73314 3.62359 4.68696 3.56762 4.62889L0.167623 1.02889C0.0573591 0.914279 -0.00289327 0.760583 0.000106905 0.601574C0.00310708 0.442564 0.0691143 0.291251 0.183623 0.180885Z" fill="var(--fill-0, #818AA3)"/>
</svg>
