<svg width="24" height="24" viewBox="0 0 24 24" fill="none" xmlns="http://www.w3.org/2000/svg">
<path d="M20.0616 9C20.4436 9 20.8106 9.057 21.1556 9.162V9C21.1556 8.20435 20.8395 7.44129 20.2769 6.87868C19.7143 6.31607 18.9512 6 18.1556 6H14.2766C14.0777 5.99982 13.8871 5.92069 13.7466 5.78L11.6256 3.66C11.4167 3.45089 11.1687 3.28497 10.8957 3.17173C10.6228 3.05848 10.3301 3.00013 10.0346 3H6.15559C5.35994 3 4.59687 3.31607 4.03427 3.87868C3.47166 4.44129 3.15559 5.20435 3.15559 6V9.162C3.51026 9.05431 3.87892 8.99972 4.24959 9H20.0616ZM4.24959 10.5C3.92728 10.5001 3.60874 10.5694 3.31554 10.7032C3.02234 10.8371 2.76133 11.0324 2.55016 11.2759C2.33899 11.5194 2.1826 11.8054 2.09158 12.1146C2.00056 12.4238 1.97703 12.7489 2.02259 13.068L2.87959 19.068C2.95613 19.6041 3.22348 20.0947 3.63256 20.4496C4.04165 20.8045 4.56501 20.9999 5.10659 21H19.2056C19.7472 20.9999 20.2705 20.8045 20.6796 20.4496C21.0887 20.0947 21.356 19.6041 21.4326 19.068L22.2896 13.068C22.3351 12.7489 22.3116 12.4238 22.2206 12.1146C22.1296 11.8054 21.9732 11.5194 21.762 11.2759C21.5508 11.0324 21.2898 10.8371 20.9966 10.7032C20.7034 10.5694 20.3849 10.5001 20.0626 10.5H4.24959Z" fill="#0138C7"/>
</svg>
