<svg preserveAspectRatio="none" width="100%" height="100%" overflow="visible" style="display: block;" viewBox="0 0 16 16" fill="none" xmlns="http://www.w3.org/2000/svg">
<g id="archive-box-arrow-down (2) 1">
<path id="Vector" fill-rule="evenodd" clip-rule="evenodd" d="M1.60078 2.3999C1.38861 2.3999 1.18512 2.48419 1.0351 2.63422C0.885067 2.78425 0.800781 2.98773 0.800781 3.1999V3.9999C0.800781 4.21208 0.885067 4.41556 1.0351 4.56559C1.18512 4.71562 1.38861 4.7999 1.60078 4.7999H14.4008C14.613 4.7999 14.8164 4.71562 14.9665 4.56559C15.1165 4.41556 15.2008 4.21208 15.2008 3.9999V3.1999C15.2008 2.98773 15.1165 2.78425 14.9665 2.63422C14.8164 2.48419 14.613 2.3999 14.4008 2.3999H1.60078ZM1.60078 5.9999H14.4008L13.752 12.1679C13.7105 12.5611 13.5248 12.925 13.2308 13.1895C12.9369 13.4539 12.5554 13.6001 12.16 13.5999H3.84238C3.44698 13.6001 3.0655 13.4539 2.77152 13.1895C2.47755 12.925 2.2919 12.5611 2.25038 12.1679L1.60078 5.9999ZM8.00078 7.1999C8.15991 7.1999 8.31252 7.26312 8.42504 7.37564C8.53757 7.48816 8.60078 7.64077 8.60078 7.7999V9.8367L9.35518 8.9983C9.40738 8.93788 9.47112 8.88848 9.54266 8.85301C9.6142 8.81754 9.69211 8.79671 9.7718 8.79173C9.8515 8.78675 9.93139 8.79773 10.0068 8.82403C10.0822 8.85033 10.1516 8.89141 10.2109 8.94486C10.2702 8.99832 10.3183 9.06308 10.3522 9.13535C10.3862 9.20762 10.4054 9.28594 10.4087 9.36572C10.412 9.44551 10.3993 9.52515 10.3715 9.59998C10.3436 9.67481 10.3011 9.74332 10.2464 9.8015L8.44638 11.8015C8.39012 11.8639 8.32139 11.9138 8.24463 11.9479C8.16787 11.9821 8.08479 11.9997 8.00078 11.9997C7.91677 11.9997 7.83369 11.9821 7.75693 11.9479C7.68017 11.9138 7.61144 11.8639 7.55518 11.8015L5.75518 9.8015C5.70049 9.74332 5.65796 9.67481 5.6301 9.59998C5.60223 9.52515 5.58957 9.44551 5.59288 9.36572C5.59618 9.28594 5.61538 9.20762 5.64935 9.13535C5.68331 9.06308 5.73136 8.99832 5.79068 8.94486C5.84999 8.89141 5.91938 8.85033 5.99478 8.82403C6.07018 8.79773 6.15006 8.78675 6.22976 8.79173C6.30946 8.79671 6.38736 8.81754 6.4589 8.85301C6.53044 8.88848 6.59418 8.93788 6.64638 8.9983L7.40078 9.8367V7.7999C7.40078 7.64077 7.464 7.48816 7.57652 7.37564C7.68904 7.26312 7.84165 7.1999 8.00078 7.1999Z" fill="var(--fill-0, #818AA3)"/>
</g>
</svg>
