<svg preserveAspectRatio="none" width="100%" height="100%" overflow="visible" style="display: block;" viewBox="0 0 16 16" fill="none" xmlns="http://www.w3.org/2000/svg">
<g id="Frame">
<path id="Vector" fill-rule="evenodd" clip-rule="evenodd" d="M12.2496 9.13921C12.0497 9.88518 11.657 10.5654 11.1109 11.1115C10.5648 11.6576 9.88462 12.0503 9.13867 12.2502C8.39271 12.4502 7.60726 12.4502 6.86127 12.2504C6.11527 12.0506 5.43501 11.658 4.88883 11.112L4.63923 10.8632H6.58563C6.74476 10.8632 6.89737 10.8 7.0099 10.6875C7.12242 10.575 7.18563 10.4223 7.18563 10.2632C7.18563 10.1041 7.12242 9.95147 7.0099 9.83895C6.89737 9.72643 6.74476 9.66321 6.58563 9.66321H3.19123C3.0321 9.66321 2.87949 9.72643 2.76697 9.83895C2.65445 9.95147 2.59123 10.1041 2.59123 10.2632V13.6568C2.59123 13.8159 2.65445 13.9686 2.76697 14.0811C2.87949 14.1936 3.0321 14.2568 3.19123 14.2568C3.35036 14.2568 3.50297 14.1936 3.6155 14.0811C3.72802 13.9686 3.79123 13.8159 3.79123 13.6568V11.7128L4.03923 11.9608C4.73431 12.6561 5.60016 13.1561 6.54975 13.4106C7.49934 13.6651 8.4992 13.6651 9.44881 13.4107C10.3984 13.1563 11.2643 12.6563 11.9595 11.9612C12.6546 11.266 13.1545 10.4 13.4088 9.45041C13.4502 9.29669 13.4288 9.13283 13.3494 8.99488C13.2699 8.85693 13.139 8.75619 12.9852 8.71481C12.8315 8.67344 12.6677 8.69483 12.5297 8.77427C12.3917 8.85371 12.291 8.98549 12.2496 9.13921ZM13.2336 6.16081C13.3459 6.04827 13.4089 5.89577 13.4088 5.73681V2.34321C13.4088 2.18408 13.3456 2.03147 13.2331 1.91895C13.1206 1.80643 12.968 1.74321 12.8088 1.74321C12.6497 1.74321 12.4971 1.80643 12.3846 1.91895C12.272 2.03147 12.2088 2.18408 12.2088 2.34321V4.28801L11.9608 4.04001C11.2658 3.34477 10.3999 2.84475 9.45031 2.59024C8.50072 2.33573 7.50087 2.33568 6.55125 2.59011C5.60164 2.84454 4.73574 3.34448 4.04061 4.03966C3.34547 4.73485 2.84559 5.60078 2.59123 6.55041C2.56811 6.6273 2.56066 6.70805 2.56932 6.78787C2.57797 6.86769 2.60256 6.94496 2.64163 7.01511C2.68069 7.08525 2.73344 7.14685 2.79674 7.19623C2.86004 7.24562 2.93261 7.2818 3.01015 7.30264C3.08769 7.32347 3.16862 7.32852 3.24815 7.31751C3.32768 7.30649 3.40419 7.27962 3.47315 7.23849C3.54211 7.19737 3.60211 7.14282 3.6496 7.07808C3.69709 7.01335 3.73111 6.93974 3.74963 6.86161C3.94929 6.11527 4.34194 5.43466 4.8881 4.88822C5.43426 4.34178 6.11467 3.94878 6.86091 3.74874C7.60714 3.5487 8.3929 3.54867 9.13915 3.74866C9.8854 3.94865 10.5658 4.34161 11.112 4.88801L11.3608 5.13601H9.41523C9.2561 5.13601 9.10349 5.19923 8.99097 5.31175C8.87845 5.42427 8.81523 5.57688 8.81523 5.73601C8.81523 5.89514 8.87845 6.04776 8.99097 6.16028C9.10349 6.2728 9.2561 6.33601 9.41523 6.33601H12.8096C12.9686 6.33609 13.1211 6.27307 13.2336 6.16081Z" fill="var(--fill-0, #818AA3)"/>
</g>
</svg>
