<svg preserveAspectRatio="none" width="100%" height="100%" overflow="visible" style="display: block;" viewBox="0 0 20 20" fill="none" xmlns="http://www.w3.org/2000/svg">
<g id="Frame">
<path id="Vector" d="M3.25 4C2.65326 4 2.08097 4.23705 1.65901 4.65901C1.23705 5.08097 1 5.65326 1 6.25V13.75C1 14.3467 1.23705 14.919 1.65901 15.341C2.08097 15.7629 2.65326 16 3.25 16H10.75C11.3467 16 11.919 15.7629 12.341 15.341C12.7629 14.919 13 14.3467 13 13.75V6.25C13 5.65326 12.7629 5.08097 12.341 4.65901C11.919 4.23705 11.3467 4 10.75 4H3.25ZM19 4.75C18.9999 4.60176 18.9558 4.45688 18.8734 4.33367C18.791 4.21045 18.6739 4.11442 18.5369 4.05771C18.4 4.001 18.2493 3.98615 18.1039 4.01503C17.9585 4.04392 17.8249 4.11524 17.72 4.22L14.72 7.22C14.5793 7.36052 14.5002 7.55115 14.5 7.75V12.25C14.5 12.449 14.579 12.64 14.72 12.78L17.72 15.78C17.8249 15.8848 17.9585 15.9561 18.1039 15.985C18.2493 16.0138 18.4 15.999 18.5369 15.9423C18.6739 15.8856 18.791 15.7895 18.8734 15.6663C18.9558 15.5431 18.9999 15.3982 19 15.25V4.75Z" fill="var(--fill-0, #818AA3)"/>
</g>
</svg>
