<svg preserveAspectRatio="none" width="100%" height="100%" overflow="visible" style="display: block;" viewBox="0 0 16 16" fill="none" xmlns="http://www.w3.org/2000/svg">
<g id="Frame">
<path id="Vector" d="M5.02334 4.17666C4.9096 4.07067 4.75916 4.01298 4.60372 4.01572C4.44828 4.01846 4.29997 4.08143 4.19004 4.19136C4.08011 4.30129 4.01714 4.4496 4.0144 4.60504C4.01166 4.76048 4.06936 4.91092 4.17534 5.02466L7.15134 8.00066L4.17534 10.9767C4.11639 11.0316 4.06911 11.0978 4.03632 11.1714C4.00352 11.245 3.98589 11.3245 3.98447 11.405C3.98305 11.4856 3.99787 11.5656 4.02804 11.6403C4.05822 11.715 4.10314 11.7829 4.16011 11.8399C4.21709 11.8969 4.28495 11.9418 4.35966 11.972C4.43437 12.0021 4.5144 12.017 4.59496 12.0155C4.67552 12.0141 4.75497 11.9965 4.82857 11.9637C4.90217 11.9309 4.96841 11.8836 5.02334 11.8247L7.99934 8.84866L10.9753 11.8247C11.0303 11.8836 11.0965 11.9309 11.1701 11.9637C11.2437 11.9965 11.3232 12.0141 11.4037 12.0155C11.4843 12.017 11.5643 12.0021 11.639 11.972C11.7137 11.9418 11.7816 11.8969 11.8386 11.8399C11.8955 11.7829 11.9405 11.715 11.9706 11.6403C12.0008 11.5656 12.0156 11.4856 12.0142 11.405C12.0128 11.3245 11.9952 11.245 11.9624 11.1714C11.9296 11.0978 11.8823 11.0316 11.8233 10.9767L8.84734 8.00066L11.8233 5.02466C11.9293 4.91092 11.987 4.76048 11.9843 4.60504C11.9815 4.4496 11.9186 4.30129 11.8086 4.19136C11.6987 4.08143 11.5504 4.01846 11.395 4.01572C11.2395 4.01298 11.0891 4.07067 10.9753 4.17666L7.99934 7.15266L5.02334 4.17666Z" fill="var(--fill-0, #818AA3)"/>
</g>
</svg>
