<svg preserveAspectRatio="none" width="100%" height="100%" overflow="visible" style="display: block;" viewBox="0 0 16 16" fill="none" xmlns="http://www.w3.org/2000/svg">
<g id="Frame 337192">
<rect width="16" height="16" rx="8" fill="var(--fill-0, #F7F7F8)"/>
<path id="Vector" d="M5.62886 4.92863C5.5382 4.84384 5.4183 4.79769 5.29441 4.79988C5.17052 4.80207 5.05232 4.85245 4.9647 4.94039C4.87709 5.02834 4.8269 5.14698 4.82471 5.27134C4.82253 5.39569 4.86851 5.51604 4.95298 5.60703L7.32491 7.98783L4.95298 10.3686C4.906 10.4126 4.86832 10.4656 4.84218 10.5244C4.81604 10.5833 4.80199 10.6469 4.80086 10.7113C4.79972 10.7758 4.81153 10.8398 4.83559 10.8996C4.85964 10.9593 4.89544 11.0136 4.94085 11.0592C4.98626 11.1048 5.04035 11.1407 5.09989 11.1649C5.15944 11.189 5.22322 11.2009 5.28743 11.1997C5.35164 11.1986 5.41496 11.1845 5.47362 11.1583C5.53228 11.132 5.58508 11.0942 5.62886 11.047L8.00078 8.66623L10.3727 11.047C10.4165 11.0942 10.4693 11.132 10.5279 11.1583C10.5866 11.1845 10.6499 11.1986 10.7141 11.1997C10.7783 11.2009 10.8421 11.189 10.9017 11.1649C10.9612 11.1407 11.0153 11.1048 11.0607 11.0592C11.1061 11.0136 11.1419 10.9593 11.166 10.8996C11.19 10.8398 11.2018 10.7758 11.2007 10.7113C11.1996 10.6469 11.1855 10.5833 11.1594 10.5244C11.1332 10.4656 11.0956 10.4126 11.0486 10.3686L8.67665 7.98783L11.0486 5.60703C11.133 5.51604 11.179 5.39569 11.1769 5.27134C11.1747 5.14698 11.1245 5.02834 11.0369 4.94039C10.9492 4.85245 10.831 4.80207 10.7071 4.79988C10.5833 4.79769 10.4634 4.84384 10.3727 4.92863L8.00078 7.30943L5.62886 4.92863Z" fill="var(--fill-0, #818AA3)"/>
</g>
</svg>
