<svg preserveAspectRatio="none" width="100%" height="100%" overflow="visible" style="display: block;" viewBox="0 0 12 12" fill="none" xmlns="http://www.w3.org/2000/svg">
<g id="Frame">
<path id="Vector" fill-rule="evenodd" clip-rule="evenodd" d="M8.25 3V2.25C8.25 1.85218 8.09196 1.47064 7.81066 1.18934C7.52936 0.908035 7.14782 0.75 6.75 0.75H5.25C4.85218 0.75 4.47064 0.908035 4.18934 1.18934C3.90804 1.47064 3.75 1.85218 3.75 2.25V3H3C2.60218 3 2.22064 3.15804 1.93934 3.43934C1.65804 3.72064 1.5 4.10218 1.5 4.5V6.75C1.5 7.14782 1.65804 7.52936 1.93934 7.81066C2.22064 8.09196 2.60218 8.25 3 8.25H9C9.39782 8.25 9.77936 8.09196 10.0607 7.81066C10.342 7.52936 10.5 7.14782 10.5 6.75V4.5C10.5 4.10218 10.342 3.72064 10.0607 3.43934C9.77936 3.15804 9.39782 3 9 3H8.25ZM6.75 1.875H5.25C5.15054 1.875 5.05516 1.91451 4.98484 1.98484C4.91451 2.05516 4.875 2.15054 4.875 2.25V3H7.125V2.25C7.125 2.15054 7.08549 2.05516 7.01517 1.98484C6.94484 1.91451 6.84946 1.875 6.75 1.875ZM6.75 6.75C6.75 6.94891 6.67098 7.13968 6.53033 7.28033C6.38968 7.42098 6.19891 7.5 6 7.5C5.80109 7.5 5.61032 7.42098 5.46967 7.28033C5.32902 7.13968 5.25 6.94891 5.25 6.75C5.25 6.55109 5.32902 6.36032 5.46967 6.21967C5.61032 6.07902 5.80109 6 6 6C6.19891 6 6.38968 6.07902 6.53033 6.21967C6.67098 6.36032 6.75 6.55109 6.75 6.75Z" fill="var(--fill-0, #818AA3)"/>
<path id="Vector_2" d="M2.25 8.87256V9.00006C2.25 9.39788 2.40804 9.77941 2.68934 10.0607C2.97064 10.342 3.35218 10.5001 3.75 10.5001H8.25C8.64782 10.5001 9.02936 10.342 9.31066 10.0607C9.59196 9.77941 9.75 9.39788 9.75 9.00006V8.87256C9.51525 8.95506 9.2625 9.00006 9 9.00006H3C2.7375 9.00006 2.48475 8.95506 2.25 8.87256Z" fill="var(--fill-0, #818AA3)"/>
</g>
</svg>
