<svg preserveAspectRatio="none" width="100%" height="100%" overflow="visible" style="display: block;" viewBox="0 0 16 16" fill="none" xmlns="http://www.w3.org/2000/svg">
<g id="Frame">
<path id="Vector" d="M9.99068 3.6594C9.84676 3.6594 9.70874 3.71657 9.60697 3.81834C9.50521 3.9201 9.44803 4.05813 9.44803 4.20205V11.7991C9.44803 12.0986 9.69114 12.3418 9.99068 12.3418H10.3524C10.4964 12.3418 10.6344 12.2846 10.7362 12.1828C10.8379 12.0811 10.8951 11.943 10.8951 11.7991V4.20205C10.8951 4.05813 10.8379 3.9201 10.7362 3.81834C10.6344 3.71657 10.4964 3.6594 10.3524 3.6594H9.99068ZM13.6083 3.6594C13.4644 3.6594 13.3264 3.71657 13.2246 3.81834C13.1229 3.9201 13.0657 4.05813 13.0657 4.20205V11.7991C13.0657 12.0986 13.3088 12.3418 13.6083 12.3418H13.9701C14.114 12.3418 14.252 12.2846 14.3538 12.1828C14.4556 12.0811 14.5127 11.943 14.5127 11.7991V4.20205C14.5127 4.05813 14.4556 3.9201 14.3538 3.81834C14.252 3.71657 14.114 3.6594 13.9701 3.6594H13.6083ZM3.14465 4.25197C2.98025 4.15047 2.79174 4.0947 2.59858 4.09042C2.40543 4.08613 2.21463 4.13348 2.04589 4.22759C1.87716 4.32169 1.7366 4.45913 1.63874 4.62572C1.54087 4.7923 1.48925 4.98199 1.48921 5.17519L1.48921 10.826C1.48913 11.0192 1.54065 11.209 1.63846 11.3757C1.73627 11.5424 1.87682 11.6799 2.04558 11.7741C2.21434 11.8683 2.40518 11.9157 2.5984 11.9115C2.79162 11.9072 2.9802 11.8514 3.14465 11.7499L7.71952 8.9238C7.8769 8.82655 8.0068 8.69067 8.09689 8.52909C8.18698 8.36751 8.23427 8.18558 8.23427 8.00058C8.23427 7.81558 8.18698 7.63365 8.09689 7.47206C8.0068 7.31048 7.8769 7.17461 7.71952 7.07735L3.14465 4.25197Z" fill="var(--fill-0, #818AA3)"/>
</g>
</svg>
