<svg preserveAspectRatio="none" width="100%" height="100%" overflow="visible" style="display: block;" viewBox="0 0 16 16" fill="none" xmlns="http://www.w3.org/2000/svg">
<g id="Frame">
<path id="Vector" d="M8.00004 7.2C8.63656 7.2 9.24701 6.94714 9.6971 6.49706C10.1472 6.04697 10.4 5.43652 10.4 4.8C10.4 4.16348 10.1472 3.55303 9.6971 3.10294C9.24701 2.65286 8.63656 2.4 8.00004 2.4C7.36352 2.4 6.75307 2.65286 6.30298 3.10294C5.8529 3.55303 5.60004 4.16348 5.60004 4.8C5.60004 5.43652 5.8529 6.04697 6.30298 6.49706C6.75307 6.94714 7.36352 7.2 8.00004 7.2ZM4.80004 6.4C4.80004 6.82435 4.63147 7.23131 4.33141 7.53137C4.03135 7.83143 3.62439 8 3.20004 8C2.77569 8 2.36873 7.83143 2.06867 7.53137C1.76861 7.23131 1.60004 6.82435 1.60004 6.4C1.60004 5.97565 1.76861 5.56869 2.06867 5.26863C2.36873 4.96857 2.77569 4.8 3.20004 4.8C3.62439 4.8 4.03135 4.96857 4.33141 5.26863C4.63147 5.56869 4.80004 5.97565 4.80004 6.4ZM1.19204 12.2608C1.05547 12.1832 0.953197 12.0569 0.905641 11.9072C0.764685 11.4507 0.763207 10.9624 0.901396 10.5051C1.03958 10.0477 1.31115 9.64195 1.68131 9.33984C2.05148 9.03773 2.5034 8.85298 2.97919 8.80925C3.45499 8.76553 3.93301 8.86481 4.35204 9.0944C3.49094 9.94061 2.95199 11.0607 2.82804 12.2616C2.80964 12.4392 2.81684 12.6152 2.84804 12.7848C2.26417 12.7343 1.69868 12.5554 1.19204 12.2608ZM13.152 12.784C13.7358 12.7338 14.3013 12.5551 14.808 12.2608C14.9443 12.183 15.0463 12.0568 15.0936 11.9072C15.2348 11.4506 15.2365 10.9623 15.0984 10.5047C14.9603 10.0472 14.6887 9.64132 14.3185 9.33909C13.9483 9.03685 13.4963 8.85202 13.0204 8.80829C12.5445 8.76455 12.0663 8.8639 11.6472 9.0936C12.5091 9.93978 13.0486 11.0602 13.1728 12.2616C13.1907 12.4361 13.1837 12.6123 13.152 12.7848V12.784ZM14.4 6.4C14.4 6.82435 14.2315 7.23131 13.9314 7.53137C13.6314 7.83143 13.2244 8 12.8 8C12.3757 8 11.9687 7.83143 11.6687 7.53137C11.3686 7.23131 11.2 6.82435 11.2 6.4C11.2 5.97565 11.3686 5.56869 11.6687 5.26863C11.9687 4.96857 12.3757 4.8 12.8 4.8C13.2244 4.8 13.6314 4.96857 13.9314 5.26863C14.2315 5.56869 14.4 5.97565 14.4 6.4ZM4.24324 12.952C4.16434 12.8813 4.10317 12.7931 4.06468 12.6944C4.02618 12.5958 4.01144 12.4894 4.02164 12.384C4.1234 11.3996 4.58647 10.4878 5.32137 9.825C6.05626 9.16216 7.01078 8.79528 8.00044 8.79528C8.9901 8.79528 9.94462 9.16216 10.6795 9.825C11.4144 10.4878 11.8775 11.3996 11.9792 12.384C11.9895 12.4894 11.9748 12.5958 11.9363 12.6945C11.8978 12.7932 11.8366 12.8814 11.7576 12.952C10.729 13.8856 9.38915 14.4019 8.00004 14.4C6.6112 14.4018 5.27163 13.8854 4.24324 12.952Z" fill="var(--fill-0, #818AA3)"/>
</g>
</svg>
