<svg preserveAspectRatio="none" width="100%" height="100%" overflow="visible" style="display: block;" viewBox="0 0 12.8 12.8" fill="none" xmlns="http://www.w3.org/2000/svg">
<path id="Vector" fill-rule="evenodd" clip-rule="evenodd" d="M6.4 12.8C8.09739 12.8 9.72525 12.1257 10.9255 10.9255C12.1257 9.72525 12.8 8.09739 12.8 6.4C12.8 4.70261 12.1257 3.07475 10.9255 1.87452C9.72525 0.674284 8.09739 0 6.4 0C4.70261 0 3.07475 0.674284 1.87452 1.87452C0.674284 3.07475 0 4.70261 0 6.4C0 8.09739 0.674284 9.72525 1.87452 10.9255C3.07475 12.1257 4.70261 12.8 6.4 12.8ZM5.8 9C5.8 9.15913 5.86321 9.31174 5.97574 9.42426C6.08826 9.53679 6.24087 9.6 6.4 9.6C6.55913 9.6 6.71174 9.53679 6.82426 9.42426C6.93679 9.31174 7 9.15913 7 9V5.328L8.56 7.008C8.66821 7.1247 8.81834 7.19363 8.97737 7.19963C9.1364 7.20563 9.29131 7.14821 9.408 7.04C9.5247 6.93179 9.59363 6.78166 9.59963 6.62263C9.60563 6.4636 9.54821 6.3087 9.44 6.192L6.84 3.392C6.78383 3.33142 6.71576 3.28309 6.64005 3.25003C6.56434 3.21698 6.48261 3.19992 6.4 3.19992C6.31739 3.19992 6.23566 3.21698 6.15995 3.25003C6.08424 3.28309 6.01617 3.33142 5.96 3.392L3.36 6.192C3.30642 6.24978 3.26475 6.31755 3.23736 6.39144C3.20997 6.46532 3.1974 6.54388 3.20037 6.62263C3.20334 6.70137 3.2218 6.77876 3.25468 6.85037C3.28756 6.92199 3.33422 6.98642 3.392 7.04C3.44978 7.09358 3.51755 7.13525 3.59144 7.16264C3.66533 7.19003 3.74388 7.2026 3.82263 7.19963C3.90137 7.19666 3.97876 7.1782 4.05037 7.14532C4.12199 7.11244 4.18642 7.06578 4.24 7.008L5.8 5.328V9Z" fill="var(--fill-0, #0138C7)"/>
</svg>
