<svg preserveAspectRatio="none" width="100%" height="100%" overflow="visible" style="display: block;" viewBox="0 0 16 16" fill="none" xmlns="http://www.w3.org/2000/svg">
<g id="Frame">
<path id="Vector" d="M7.99965 7.2C8.63617 7.2 9.24662 6.94714 9.69671 6.49706C10.1468 6.04697 10.3996 5.43652 10.3996 4.8C10.3996 4.16348 10.1468 3.55303 9.69671 3.10294C9.24662 2.65286 8.63617 2.4 7.99965 2.4C7.36313 2.4 6.75268 2.65286 6.30259 3.10294C5.85251 3.55303 5.59965 4.16348 5.59965 4.8C5.59965 5.43652 5.85251 6.04697 6.30259 6.49706C6.75268 6.94714 7.36313 7.2 7.99965 7.2ZM4.79965 6.4C4.79965 6.82435 4.63108 7.23131 4.33102 7.53137C4.03096 7.83143 3.624 8 3.19965 8C2.7753 8 2.36834 7.83143 2.06828 7.53137C1.76822 7.23131 1.59965 6.82435 1.59965 6.4C1.59965 5.97565 1.76822 5.56869 2.06828 5.26863C2.36834 4.96857 2.7753 4.8 3.19965 4.8C3.624 4.8 4.03096 4.96857 4.33102 5.26863C4.63108 5.56869 4.79965 5.97565 4.79965 6.4ZM1.19165 12.2608C1.05508 12.1832 0.952806 12.0569 0.90525 11.9072C0.764295 11.4507 0.762816 10.9624 0.901005 10.5051C1.03919 10.0477 1.31076 9.64195 1.68092 9.33984C2.05109 9.03773 2.50301 8.85298 2.9788 8.80925C3.4546 8.76553 3.93262 8.86481 4.35165 9.0944C3.49055 9.94061 2.9516 11.0607 2.82765 12.2616C2.80925 12.4392 2.81645 12.6152 2.84765 12.7848C2.26378 12.7343 1.69829 12.5554 1.19165 12.2608ZM13.1516 12.784C13.7355 12.7338 14.3009 12.5551 14.8076 12.2608C14.9439 12.183 15.0459 12.0568 15.0933 11.9072C15.2344 11.4506 15.2361 10.9623 15.098 10.5047C14.9599 10.0472 14.6883 9.64132 14.3181 9.33909C13.9479 9.03685 13.4959 8.85202 13.02 8.80829C12.5441 8.76455 12.0659 8.8639 11.6468 9.0936C12.5087 9.93978 13.0483 11.0602 13.1724 12.2616C13.1903 12.4361 13.1833 12.6123 13.1516 12.7848V12.784ZM14.3996 6.4C14.3996 6.82435 14.2311 7.23131 13.931 7.53137C13.631 7.83143 13.224 8 12.7996 8C12.3753 8 11.9683 7.83143 11.6683 7.53137C11.3682 7.23131 11.1996 6.82435 11.1996 6.4C11.1996 5.97565 11.3682 5.56869 11.6683 5.26863C11.9683 4.96857 12.3753 4.8 12.7996 4.8C13.224 4.8 13.631 4.96857 13.931 5.26863C14.2311 5.56869 14.3996 5.97565 14.3996 6.4ZM4.24285 12.952C4.16395 12.8813 4.10278 12.7931 4.06429 12.6944C4.02579 12.5958 4.01105 12.4894 4.02125 12.384C4.12301 11.3996 4.58608 10.4878 5.32098 9.825C6.05587 9.16216 7.01039 8.79528 8.00005 8.79528C8.98971 8.79528 9.94423 9.16216 10.6791 9.825C11.414 10.4878 11.8771 11.3996 11.9788 12.384C11.9891 12.4894 11.9744 12.5958 11.9359 12.6945C11.8974 12.7932 11.8362 12.8814 11.7572 12.952C10.7286 13.8856 9.38875 14.4019 7.99965 14.4C6.61081 14.4018 5.27124 13.8854 4.24285 12.952Z" fill="var(--fill-0, white)"/>
</g>
</svg>
