<svg preserveAspectRatio="none" width="100%" height="100%" overflow="visible" style="display: block;" viewBox="0 0 16 16" fill="none" xmlns="http://www.w3.org/2000/svg">
<g id="Frame">
<path id="Vector" d="M13.6 2.2C13.6 2.04087 13.5368 1.88826 13.4243 1.77574C13.3117 1.66321 13.1591 1.6 13 1.6C12.8409 1.6 12.6883 1.66321 12.5757 1.77574C12.4632 1.88826 12.4 2.04087 12.4 2.2V6.6C12.4 6.75913 12.4632 6.91174 12.5757 7.02426C12.6883 7.13679 12.8409 7.2 13 7.2C13.1591 7.2 13.3117 7.13679 13.4243 7.02426C13.5368 6.91174 13.6 6.75913 13.6 6.6V2.2ZM13.6 12.6C13.6 12.4409 13.5368 12.2883 13.4243 12.1757C13.3117 12.0632 13.1591 12 13 12C12.8409 12 12.6883 12.0632 12.5757 12.1757C12.4632 12.2883 12.4 12.4409 12.4 12.6V13.8C12.4 13.9591 12.4632 14.1117 12.5757 14.2243C12.6883 14.3368 12.8409 14.4 13 14.4C13.1591 14.4 13.3117 14.3368 13.4243 14.2243C13.5368 14.1117 13.6 13.9591 13.6 13.8V12.6ZM3 12C3.15913 12 3.31174 12.0632 3.42426 12.1757C3.53679 12.2883 3.6 12.4409 3.6 12.6V13.8C3.6 13.9591 3.53679 14.1117 3.42426 14.2243C3.31174 14.3368 3.15913 14.4 3 14.4C2.84087 14.4 2.68826 14.3368 2.57574 14.2243C2.46321 14.1117 2.4 13.9591 2.4 13.8V12.6C2.4 12.4409 2.46321 12.2883 2.57574 12.1757C2.68826 12.0632 2.84087 12 3 12ZM3.6 2.2C3.6 2.04087 3.53679 1.88826 3.42426 1.77574C3.31174 1.66321 3.15913 1.6 3 1.6C2.84087 1.6 2.68826 1.66321 2.57574 1.77574C2.46321 1.88826 2.4 2.04087 2.4 2.2V6.6C2.4 6.75913 2.46321 6.91174 2.57574 7.02426C2.68826 7.13679 2.84087 7.2 3 7.2C3.15913 7.2 3.31174 7.13679 3.42426 7.02426C3.53679 6.91174 3.6 6.75913 3.6 6.6V2.2ZM8 8.8C8.15913 8.8 8.31174 8.86321 8.42426 8.97574C8.53679 9.08826 8.6 9.24087 8.6 9.4V13.8C8.6 13.9591 8.53679 14.1117 8.42426 14.2243C8.31174 14.3368 8.15913 14.4 8 14.4C7.84087 14.4 7.68826 14.3368 7.57574 14.2243C7.46321 14.1117 7.4 13.9591 7.4 13.8V9.4C7.4 9.24087 7.46321 9.08826 7.57574 8.97574C7.68826 8.86321 7.84087 8.8 8 8.8ZM8.6 2.2C8.6 2.04087 8.53679 1.88826 8.42426 1.77574C8.31174 1.66321 8.15913 1.6 8 1.6C7.84087 1.6 7.68826 1.66321 7.57574 1.77574C7.46321 1.88826 7.4 2.04087 7.4 2.2V3.4C7.4 3.55913 7.46321 3.71174 7.57574 3.82426C7.68826 3.93679 7.84087 4 8 4C8.15913 4 8.31174 3.93679 8.42426 3.82426C8.53679 3.71174 8.6 3.55913 8.6 3.4V2.2ZM8 4.8C7.57565 4.8 7.16869 4.96857 6.86863 5.26863C6.56857 5.56869 6.4 5.97565 6.4 6.4C6.4 6.82435 6.56857 7.23131 6.86863 7.53137C7.16869 7.83143 7.57565 8 8 8C8.42435 8 8.83131 7.83143 9.13137 7.53137C9.43143 7.23131 9.6 6.82435 9.6 6.4C9.6 5.97565 9.43143 5.56869 9.13137 5.26863C8.83131 4.96857 8.42435 4.8 8 4.8ZM3 8C2.57565 8 2.16869 8.16857 1.86863 8.46863C1.56857 8.76869 1.4 9.17565 1.4 9.6C1.4 10.0243 1.56857 10.4313 1.86863 10.7314C2.16869 11.0314 2.57565 11.2 3 11.2C3.42435 11.2 3.83131 11.0314 4.13137 10.7314C4.43143 10.4313 4.6 10.0243 4.6 9.6C4.6 9.17565 4.43143 8.76869 4.13137 8.46863C3.83131 8.16857 3.42435 8 3 8ZM13 8C12.5757 8 12.1687 8.16857 11.8686 8.46863C11.5686 8.76869 11.4 9.17565 11.4 9.6C11.4 10.0243 11.5686 10.4313 11.8686 10.7314C12.1687 11.0314 12.5757 11.2 13 11.2C13.4243 11.2 13.8313 11.0314 14.1314 10.7314C14.4314 10.4313 14.6 10.0243 14.6 9.6C14.6 9.17565 14.4314 8.76869 14.1314 8.46863C13.8313 8.16857 13.4243 8 13 8Z" fill="var(--fill-0, white)"/>
</g>
</svg>
