<svg preserveAspectRatio="none" width="100%" height="100%" overflow="visible" style="display: block;" viewBox="0 0 16 16" fill="none" xmlns="http://www.w3.org/2000/svg">
<g id="Frame">
<path id="Vector" d="M7.99977 6.4C8.63629 6.4 9.24674 6.14714 9.69683 5.69706C10.1469 5.24697 10.3998 4.63652 10.3998 4C10.3998 3.36348 10.1469 2.75303 9.69683 2.30294C9.24674 1.85286 8.63629 1.6 7.99977 1.6C7.36325 1.6 6.7528 1.85286 6.30271 2.30294C5.85262 2.75303 5.59977 3.36348 5.59977 4C5.59977 4.63652 5.85262 5.24697 6.30271 5.69706C6.7528 6.14714 7.36325 6.4 7.99977 6.4ZM2.77177 11.5944C2.6975 11.7929 2.68931 12.0101 2.74841 12.2136C2.8075 12.4171 2.93074 12.5961 3.09977 12.724C4.50084 13.8128 6.22535 14.4027 7.99977 14.4C9.84777 14.4 11.5502 13.7728 12.9046 12.72C13.2486 12.4536 13.3878 11.9976 13.231 11.592C12.8248 10.5344 12.1074 9.62487 11.1736 8.98338C10.2398 8.34189 9.13345 7.99863 8.00054 7.99889C6.86763 7.99915 5.76143 8.34292 4.82792 8.98483C3.89442 9.62675 3.17749 10.5366 2.77177 11.5944Z" fill="var(--fill-0, white)"/>
</g>
</svg>
