<svg preserveAspectRatio="none" width="100%" height="100%" overflow="visible" style="display: block;" viewBox="0 0 16 16" fill="none" xmlns="http://www.w3.org/2000/svg">
<g id="Frame">
<path id="Vector" fill-rule="evenodd" clip-rule="evenodd" d="M4.8 3C4.8 2.41652 5.03178 1.85695 5.44437 1.44437C5.85695 1.03179 6.41652 0.8 7 0.8H9C9.58348 0.8 10.1431 1.03179 10.5556 1.44437C10.9682 1.85695 11.2 2.41652 11.2 3V3.3544C11.6576 3.3984 12.112 3.452 12.5648 3.5144C13.6424 3.6656 14.4 4.6 14.4 5.656V8.4312C14.4 9.332 13.8448 10.184 12.936 10.4632C11.3744 10.9424 9.7168 11.2 8 11.2C6.2832 11.2 4.6248 10.9424 3.064 10.4632C2.1552 10.184 1.6 9.332 1.6 8.4312V5.656C1.6 4.5992 2.3576 3.6648 3.4352 3.5152C3.88896 3.45209 4.34399 3.39847 4.8 3.3544V3ZM10 3V3.26C8.66787 3.17984 7.33213 3.17984 6 3.26V3C6 2.448 6.448 2 7 2H9C9.552 2 10 2.448 10 3ZM8 8C7.78783 8 7.58434 8.08429 7.43431 8.23431C7.28429 8.38434 7.2 8.58783 7.2 8.8V8.808C7.2 9.02017 7.28429 9.22366 7.43431 9.37368C7.58434 9.52371 7.78783 9.608 8 9.608H8.008C8.22017 9.608 8.42366 9.52371 8.57369 9.37368C8.72371 9.22366 8.808 9.02017 8.808 8.808V8.8C8.808 8.58783 8.72371 8.38434 8.57369 8.23431C8.42366 8.08429 8.22017 8 8.008 8H8Z" fill="var(--fill-0, white)"/>
<path id="Vector_2" d="M2.4 12.0441V11.4969C2.5008 11.5393 2.604 11.5769 2.712 11.6105C4.3856 12.1241 6.1624 12.4001 8 12.4001C9.8376 12.4001 11.6144 12.1241 13.288 11.6105C13.396 11.5777 13.4992 11.5393 13.6 11.4969V12.0441C13.6 13.1217 12.812 14.0681 11.7096 14.1929C9.24432 14.4704 6.75568 14.4704 4.2904 14.1929C3.188 14.0681 2.4 13.1217 2.4 12.0441Z" fill="var(--fill-0, white)"/>
</g>
</svg>
