<svg width="16" height="16" viewBox="0 0 16 16" fill="none" xmlns="http://www.w3.org/2000/svg">
<g transform="translate(4 5.69278)">
<path id="Vector" fill-rule="evenodd" clip-rule="evenodd" d="M0.175472 0.190967C0.287972 0.0786064 0.440472 0.0154945 0.599472 0.0154945C0.758473 0.0154945 0.910972 0.0786064 1.02347 0.190967L3.99947 3.16697L6.97547 0.190967C7.0304 0.132017 7.09664 0.0847352 7.17024 0.0519416C7.24384 0.019148 7.32329 0.00151481 7.40385 9.3378e-05C7.48442 -0.00132805 7.56444 0.0134915 7.63915 0.0436683C7.71386 0.0738451 7.78173 0.118761 7.8387 0.175736C7.89568 0.232711 7.94059 0.300578 7.97077 0.375288C8.00095 0.449999 8.01577 0.530022 8.01435 0.610584C8.01292 0.691147 7.99529 0.770598 7.9625 0.844197C7.9297 0.917797 7.88242 0.984037 7.82347 1.03897L4.42347 4.43897C4.31097 4.55133 4.15847 4.61444 3.99947 4.61444C3.84047 4.61444 3.68797 4.55133 3.57547 4.43897L0.175472 1.03897C0.0631115 0.926466 0 0.773967 0 0.614967C0 0.455966 0.0631115 0.303467 0.175472 0.190967Z" fill="#818AA3"/>
</g>
</svg>
