<svg preserveAspectRatio="none" width="100%" height="100%" overflow="visible" style="display: block;" viewBox="0 0 16 16" fill="none" xmlns="http://www.w3.org/2000/svg">
<g id="Frame">
<path id="Vector" d="M10.2 3.2C10.0409 3.2 9.88826 3.26321 9.77574 3.37574C9.66321 3.48826 9.6 3.64087 9.6 3.8V12.2C9.6 12.5312 9.8688 12.8 10.2 12.8H10.6C10.7591 12.8 10.9117 12.7368 11.0243 12.6243C11.1368 12.5117 11.2 12.3591 11.2 12.2V3.8C11.2 3.64087 11.1368 3.48826 11.0243 3.37574C10.9117 3.26321 10.7591 3.2 10.6 3.2H10.2ZM14.2 3.2C14.0409 3.2 13.8883 3.26321 13.7757 3.37574C13.6632 3.48826 13.6 3.64087 13.6 3.8V12.2C13.6 12.5312 13.8688 12.8 14.2 12.8H14.6C14.7591 12.8 14.9117 12.7368 15.0243 12.6243C15.1368 12.5117 15.2 12.3591 15.2 12.2V3.8C15.2 3.64087 15.1368 3.48826 15.0243 3.37574C14.9117 3.26321 14.7591 3.2 14.6 3.2H14.2ZM2.6304 3.8552C2.44863 3.74298 2.24019 3.68131 2.02662 3.67657C1.81305 3.67183 1.60209 3.72419 1.41552 3.82824C1.22895 3.93229 1.07353 4.08426 0.965329 4.26845C0.857124 4.45264 0.800049 4.66238 0.8 4.876V11.124C0.799907 11.3377 0.856877 11.5475 0.965025 11.7318C1.07317 11.9161 1.22857 12.0682 1.41517 12.1724C1.60176 12.2765 1.81278 12.3289 2.02642 12.3242C2.24006 12.3195 2.44857 12.2579 2.6304 12.1456L7.6888 9.0208C7.86281 8.91326 8.00644 8.76303 8.10605 8.58437C8.20566 8.40571 8.25795 8.20455 8.25795 8C8.25795 7.79545 8.20566 7.59429 8.10605 7.41563C8.00644 7.23697 7.86281 7.08674 7.6888 6.9792L2.6304 3.8552Z" fill="var(--fill-0, white)"/>
</g>
</svg>
