<svg preserveAspectRatio="none" width="100%" height="100%" overflow="visible" style="display: block;" viewBox="0 0 12 12" fill="none" xmlns="http://www.w3.org/2000/svg">
<g id="Frame">
<path id="Vector" fill-rule="evenodd" clip-rule="evenodd" d="M7.18505 0.807504C7.29641 0.862172 7.38657 0.95212 7.44151 1.06335C7.49645 1.17458 7.51307 1.30085 7.4888 1.4225L6.8738 4.49975H9.93755C10.0454 4.49975 10.1509 4.53073 10.2416 4.58901C10.3324 4.64729 10.4044 4.73042 10.4492 4.8285C10.494 4.92657 10.5097 5.03546 10.4944 5.14219C10.4791 5.24892 10.4334 5.349 10.3628 5.4305L5.4878 11.0555C5.40647 11.1492 5.29644 11.2134 5.17483 11.2381C5.05323 11.2628 4.92688 11.2465 4.81546 11.1919C4.70404 11.1373 4.61379 11.0474 4.55878 10.9362C4.50377 10.825 4.48707 10.6987 4.5113 10.577L5.1263 7.49975H2.06255C1.95472 7.49976 1.84917 7.46878 1.75845 7.4105C1.66773 7.35221 1.59568 7.26909 1.55087 7.17101C1.50606 7.07294 1.49039 6.96405 1.50571 6.85732C1.52103 6.75059 1.56671 6.65051 1.6373 6.569L6.5123 0.944004C6.59364 0.850188 6.70374 0.785924 6.82544 0.761233C6.94713 0.736542 7.07357 0.752812 7.18505 0.807504Z" fill="var(--fill-0, #FF9E2C)"/>
</g>
</svg>
