<svg preserveAspectRatio="none" width="100%" height="100%" overflow="visible" style="display: block;" viewBox="0 0 12 12" fill="none" xmlns="http://www.w3.org/2000/svg">
<g id="Frame">
<path id="Vector" d="M6.56312 2.0625C6.56312 1.91332 6.50385 1.77024 6.39836 1.66475C6.29288 1.55926 6.1498 1.5 6.00062 1.5C5.85143 1.5 5.70836 1.55926 5.60287 1.66475C5.49738 1.77024 5.43812 1.91332 5.43812 2.0625V6.33L3.77312 4.665C3.66649 4.56564 3.52545 4.51155 3.37973 4.51412C3.234 4.51669 3.09496 4.57572 2.9919 4.67878C2.88884 4.78184 2.82981 4.92088 2.82724 5.06661C2.82466 5.21233 2.87876 5.35337 2.97812 5.46L5.60312 8.085C5.70859 8.19034 5.85155 8.24951 6.00062 8.24951C6.14968 8.24951 6.29265 8.19034 6.39812 8.085L9.02312 5.46C9.12248 5.35337 9.17657 5.21233 9.174 5.06661C9.17143 4.92088 9.11239 4.78184 9.00933 4.67878C8.90627 4.57572 8.76723 4.51669 8.62151 4.51412C8.47578 4.51155 8.33475 4.56564 8.22812 4.665L6.56312 6.33V2.0625Z" fill="var(--fill-0, #CC3333)"/>
<path id="Vector_2" d="M2.625 7.3125C2.625 7.16332 2.56574 7.02024 2.46025 6.91475C2.35476 6.80926 2.21168 6.75 2.0625 6.75C1.91332 6.75 1.77024 6.80926 1.66475 6.91475C1.55926 7.02024 1.5 7.16332 1.5 7.3125V8.4375C1.5 8.98451 1.7173 9.50911 2.10409 9.89591C2.49089 10.2827 3.01549 10.5 3.5625 10.5H8.4375C8.98451 10.5 9.50911 10.2827 9.89591 9.89591C10.2827 9.50911 10.5 8.98451 10.5 8.4375V7.3125C10.5 7.16332 10.4407 7.02024 10.3352 6.91475C10.2298 6.80926 10.0867 6.75 9.9375 6.75C9.78832 6.75 9.64524 6.80926 9.53975 6.91475C9.43426 7.02024 9.375 7.16332 9.375 7.3125V8.4375C9.375 8.955 8.955 9.375 8.4375 9.375H3.5625C3.045 9.375 2.625 8.955 2.625 8.4375V7.3125Z" fill="var(--fill-0, #CC3333)"/>
</g>
</svg>
