<svg preserveAspectRatio="none" width="100%" height="100%" overflow="visible" style="display: block;" viewBox="0 0 12 12" fill="none" xmlns="http://www.w3.org/2000/svg">
<g id="Frame">
<path id="Vector" d="M2.25 3C1.85218 3 1.47064 3.15804 1.18934 3.43934C0.908035 3.72064 0.75 4.10218 0.75 4.5V7.5C0.75 7.89782 0.908035 8.27936 1.18934 8.56066C1.47064 8.84196 1.85218 9 2.25 9H6C6.39782 9 6.77936 8.84196 7.06066 8.56066C7.34196 8.27936 7.5 7.89782 7.5 7.5V4.5C7.5 4.10218 7.34196 3.72064 7.06066 3.43934C6.77936 3.15804 6.39782 3 6 3H2.25ZM11.25 3.5625C11.2499 3.45132 11.2169 3.34266 11.155 3.25025C11.0932 3.15784 11.0054 3.08582 10.9027 3.04328C10.8 3.00075 10.6869 2.98961 10.5779 3.01128C10.4688 3.03294 10.3687 3.08643 10.29 3.165L8.79 4.665C8.68448 4.77039 8.62513 4.91337 8.625 5.0625V6.9375C8.625 7.08675 8.68425 7.23 8.79 7.335L10.29 8.835C10.3687 8.91357 10.4688 8.96706 10.5779 8.98872C10.6869 9.01039 10.8 8.99925 10.9027 8.95672C11.0054 8.91418 11.0932 8.84216 11.155 8.74975C11.2169 8.65734 11.2499 8.54868 11.25 8.4375V3.5625Z" fill="var(--fill-0, #818AA3)"/>
</g>
</svg>
