<svg preserveAspectRatio="none" width="100%" height="100%" overflow="visible" style="display: block;" viewBox="0 0 12 12" fill="none" xmlns="http://www.w3.org/2000/svg">
<g id="Frame">
<path id="Vector" d="M0.75 6.55453C0.75 7.29178 1.28475 7.92328 2.0175 8.01178C2.5905 8.08078 3.168 8.13478 3.75 8.17378V9.93703C3.7501 10.0482 3.78314 10.1569 3.84496 10.2493C3.90677 10.3417 3.99458 10.4137 4.09731 10.4562C4.20003 10.4988 4.31305 10.5099 4.4221 10.4883C4.53115 10.4666 4.63134 10.4131 4.71 10.3345L6.5925 8.45203C6.729 8.31628 6.91275 8.23753 7.1055 8.23153C8.06748 8.2 9.02764 8.12668 9.98325 8.01178C10.7152 7.92328 11.25 7.29178 11.25 6.55453V3.19453C11.25 2.45728 10.7153 1.82578 9.9825 1.73728C7.33704 1.41895 4.66296 1.41895 2.0175 1.73728C1.284 1.82578 0.75 2.45728 0.75 3.19453V6.55603V6.55453Z" fill="var(--fill-0, #0DACAA)"/>
</g>
</svg>
