<svg preserveAspectRatio="none" width="100%" height="100%" overflow="visible" style="display: block;" viewBox="0 0 12 12" fill="none" xmlns="http://www.w3.org/2000/svg">
<g id="Frame">
<path id="Vector" d="M1.875 2.625C1.875 2.32663 1.99353 2.04048 2.2045 1.8295C2.41548 1.61853 2.70163 1.5 3 1.5H6.65925C6.95752 1.50026 7.24347 1.61896 7.45425 1.83L9.79575 4.17C9.9002 4.27452 9.98304 4.39859 10.0395 4.53512C10.096 4.67166 10.1251 4.81799 10.125 4.96575V9.375C10.125 9.67337 10.0065 9.95952 9.7955 10.1705C9.58452 10.3815 9.29837 10.5 9 10.5H3C2.70163 10.5 2.41548 10.3815 2.2045 10.1705C1.99353 9.95952 1.875 9.67337 1.875 9.375V2.625Z" fill="var(--fill-0, #F2C300)"/>
</g>
</svg>
