<svg preserveAspectRatio="none" width="100%" height="100%" overflow="visible" style="display: block;" viewBox="0 0 12 12" fill="none" xmlns="http://www.w3.org/2000/svg">
<g id="Frame">
<path id="Vector" d="M0.75 3.60352C0.75 3.46964 0.785835 3.3382 0.853787 3.22285C0.921738 3.1075 1.01933 3.01243 1.13642 2.94753C1.25352 2.88263 1.38585 2.85026 1.51969 2.85377C1.65352 2.85729 1.78397 2.89656 1.8975 2.96752L5.73225 5.36452C5.84012 5.43194 5.92907 5.52568 5.99073 5.63694C6.0524 5.7482 6.08475 5.87331 6.08475 6.00052C6.08475 6.12772 6.0524 6.25284 5.99073 6.36409C5.92907 6.47535 5.84012 6.5691 5.73225 6.63652L1.8975 9.03352C1.78397 9.10447 1.65352 9.14375 1.51969 9.14726C1.38585 9.15077 1.25352 9.1184 1.13642 9.0535C1.01933 8.9886 0.921738 8.89354 0.853787 8.77819C0.785835 8.66283 0.75 8.5314 0.75 8.39752V3.60352ZM10.125 3.37552C10.125 3.27606 10.1645 3.18068 10.2348 3.11035C10.3052 3.04003 10.4005 3.00052 10.5 3.00052H10.875C10.9745 3.00052 11.0698 3.04003 11.1402 3.11035C11.2105 3.18068 11.25 3.27606 11.25 3.37552V8.62552C11.25 8.72497 11.2105 8.82036 11.1402 8.89068C11.0698 8.96101 10.9745 9.00052 10.875 9.00052H10.5C10.4005 9.00052 10.3052 8.96101 10.2348 8.89068C10.1645 8.82036 10.125 8.72497 10.125 8.62552V3.37552ZM7.875 3.00052C7.77554 3.00052 7.68016 3.04003 7.60983 3.11035C7.53951 3.18068 7.5 3.27606 7.5 3.37552V8.62552C7.5 8.72497 7.53951 8.82036 7.60983 8.89068C7.68016 8.96101 7.77554 9.00052 7.875 9.00052H8.25C8.34946 9.00052 8.44484 8.96101 8.51517 8.89068C8.58549 8.82036 8.625 8.72497 8.625 8.62552V3.37552C8.625 3.27606 8.58549 3.18068 8.51517 3.11035C8.44484 3.04003 8.34946 3.00052 8.25 3.00052H7.875Z" fill="var(--fill-0, #0D9655)"/>
</g>
</svg>
