<svg preserveAspectRatio="none" width="100%" height="100%" overflow="visible" style="display: block;" viewBox="0 0 12 12" fill="none" xmlns="http://www.w3.org/2000/svg">
<g id="Frame" clip-path="url(#clip0_0_42)">
<path id="Vector" fill-rule="evenodd" clip-rule="evenodd" d="M6 0.75C4.60761 0.75 3.27226 1.30312 2.28769 2.28769C1.30312 3.27226 0.75 4.60761 0.75 6C0.75 7.39239 1.30312 8.72774 2.28769 9.71231C3.27226 10.6969 4.60761 11.25 6 11.25C7.39239 11.25 8.72774 10.6969 9.71231 9.71231C10.6969 8.72774 11.25 7.39239 11.25 6C11.25 4.60761 10.6969 3.27226 9.71231 2.28769C8.72774 1.30312 7.39239 0.75 6 0.75ZM5.4375 8.4375C5.4375 8.58668 5.49676 8.72976 5.60225 8.83525C5.70774 8.94074 5.85082 9 6 9C6.14918 9 6.29226 8.94074 6.39775 8.83525C6.50324 8.72976 6.5625 8.58668 6.5625 8.4375V4.92L7.4775 5.835C7.529 5.89027 7.5911 5.93459 7.6601 5.96534C7.7291 5.99608 7.80358 6.01261 7.87911 6.01394C7.95464 6.01528 8.02966 6.00138 8.0997 5.97309C8.16974 5.9448 8.23336 5.90269 8.28678 5.84928C8.34019 5.79586 8.3823 5.73224 8.41059 5.6622C8.43888 5.59216 8.45278 5.51714 8.45144 5.44161C8.45011 5.36608 8.43358 5.2916 8.40284 5.2226C8.37209 5.1536 8.32776 5.0915 8.2725 5.04L6.3975 3.165C6.29203 3.05966 6.14906 3.00049 6 3.00049C5.85094 3.00049 5.70797 3.05966 5.6025 3.165L3.7275 5.04C3.62814 5.14663 3.57405 5.28767 3.57662 5.43339C3.57919 5.57912 3.63822 5.71816 3.74128 5.82122C3.84434 5.92428 3.98338 5.98331 4.12911 5.98588C4.27483 5.98845 4.41587 5.93436 4.5225 5.835L5.4375 4.92V8.4375Z" fill="var(--fill-0, #8B2FE8)"/>
</g>
<defs>
<clipPath id="clip0_0_42">
<rect width="12" height="12" fill="white"/>
</clipPath>
</defs>
</svg>
