<svg preserveAspectRatio="none" width="100%" height="100%" overflow="visible" style="display: block;" viewBox="0 0 12 12" fill="none" xmlns="http://www.w3.org/2000/svg">
<g id="Frame">
<path id="Vector" fill-rule="evenodd" clip-rule="evenodd" d="M1.5 2.25C1.5 2.05109 1.57902 1.86032 1.71967 1.71967C1.86032 1.57902 2.05109 1.5 2.25 1.5H4.5C4.69891 1.5 4.88968 1.57902 5.03033 1.71967C5.17098 1.86032 5.25 2.05109 5.25 2.25V8.625C5.25 9.12228 5.05246 9.59919 4.70083 9.95083C4.34919 10.3025 3.87228 10.5 3.375 10.5C2.87772 10.5 2.40081 10.3025 2.04917 9.95083C1.69754 9.59919 1.5 9.12228 1.5 8.625V2.25ZM3.9375 8.625C3.9375 8.77418 3.87824 8.91726 3.77275 9.02275C3.66726 9.12824 3.52418 9.1875 3.375 9.1875C3.22582 9.1875 3.08274 9.12824 2.97725 9.02275C2.87176 8.91726 2.8125 8.77418 2.8125 8.625C2.8125 8.47582 2.87176 8.33274 2.97725 8.22725C3.08274 8.12176 3.22582 8.0625 3.375 8.0625C3.52418 8.0625 3.66726 8.12176 3.77275 8.22725C3.87824 8.33274 3.9375 8.47582 3.9375 8.625Z" fill="var(--fill-0, #0138C7)"/>
<path id="Vector_2" d="M6.37519 8.27661L9.20869 5.44311C9.34929 5.30246 9.42828 5.11173 9.42828 4.91286C9.42828 4.71398 9.34929 4.52325 9.20869 4.38261L7.61719 2.79186C7.47654 2.65125 7.28581 2.57227 7.08694 2.57227C6.88806 2.57227 6.69733 2.65125 6.55669 2.79186L6.37519 2.97336V8.27661ZM5.74219 10.5004H9.75019C9.9491 10.5004 10.1399 10.4213 10.2805 10.2807C10.4212 10.14 10.5002 9.94927 10.5002 9.75036V7.50036C10.5002 7.30144 10.4212 7.11068 10.2805 6.97003C10.1399 6.82937 9.9491 6.75036 9.75019 6.75036H9.49219L5.74219 10.5004Z" fill="var(--fill-0, #0138C7)"/>
</g>
</svg>
