<svg preserveAspectRatio="xMidYMid meet" width="100%" height="100%" overflow="visible" style="display: block;" viewBox="0 0 12 12" fill="none" xmlns="http://www.w3.org/2000/svg">
<g id="arrow-down-tray (1) 1">
<path id="Vector" d="M6.45066 1.64922C6.45066 1.52987 6.40325 1.41541 6.31885 1.33102C6.23446 1.24663 6.12 1.19922 6.00066 1.19922C5.88131 1.19922 5.76685 1.24663 5.68246 1.33102C5.59807 1.41541 5.55066 1.52987 5.55066 1.64922V6.81762L3.77766 4.94022C3.73745 4.89583 3.68878 4.85991 3.63451 4.83458C3.58024 4.80924 3.52146 4.79499 3.46161 4.79266C3.40176 4.79034 3.34205 4.79998 3.28598 4.82103C3.22991 4.84208 3.1786 4.87412 3.13507 4.91525C3.09154 4.95639 3.05666 5.0058 3.03247 5.06059C3.00828 5.11538 2.99527 5.17445 2.99421 5.23434C2.99315 5.29422 3.00405 5.35371 3.02628 5.40933C3.04851 5.46494 3.08161 5.51556 3.12366 5.55822L5.67366 8.25822C5.71571 8.30271 5.76641 8.33814 5.82263 8.36236C5.87886 8.38658 5.93944 8.39907 6.00066 8.39907C6.06188 8.39907 6.12245 8.38658 6.17868 8.36236C6.23491 8.33814 6.2856 8.30271 6.32766 8.25822L8.87766 5.55822C8.95668 5.47098 8.99837 5.35626 8.9938 5.23864C8.98923 5.12103 8.93876 5.00988 8.85321 4.92904C8.76766 4.8482 8.65384 4.8041 8.53615 4.80618C8.41847 4.80827 8.30628 4.85639 8.22366 4.94022L6.45066 6.81762V1.64922Z" fill="var(--fill-0, #818AA3)"/>
<path id="Vector_2" d="M2.09922 7.64922C2.09922 7.52987 2.05181 7.41541 1.96742 7.33102C1.88303 7.24663 1.76857 7.19922 1.64922 7.19922C1.52987 7.19922 1.41541 7.24663 1.33102 7.33102C1.24663 7.41541 1.19922 7.52987 1.19922 7.64922V9.14922C1.19922 9.58683 1.37306 10.0065 1.68249 10.3159C1.99193 10.6254 2.41161 10.7992 2.84922 10.7992H9.14922C9.58683 10.7992 10.0065 10.6254 10.3159 10.3159C10.6254 10.0065 10.7992 9.58683 10.7992 9.14922V7.64922C10.7992 7.52987 10.7518 7.41541 10.6674 7.33102C10.583 7.24663 10.4686 7.19922 10.3492 7.19922C10.2299 7.19922 10.1154 7.24663 10.031 7.33102C9.94663 7.41541 9.89922 7.52987 9.89922 7.64922V9.14922C9.89922 9.56322 9.56322 9.89922 9.14922 9.89922H2.84922C2.43522 9.89922 2.09922 9.56322 2.09922 9.14922V7.64922Z" fill="var(--fill-0, #818AA3)"/>
</g>
</svg>
