<svg preserveAspectRatio="none" width="100%" height="100%" overflow="visible" style="display: block;" viewBox="0 0 13.6296 14.4" fill="none" xmlns="http://www.w3.org/2000/svg">
<path id="Vector" fill-rule="evenodd" clip-rule="evenodd" d="M5.0868 0.6432C5.12304 0.461912 5.22094 0.298769 5.36387 0.181509C5.5068 0.0642498 5.68593 0.000111651 5.8708 0H7.7588C7.94367 0.000111651 8.1228 0.0642498 8.26573 0.181509C8.40866 0.298769 8.50657 0.461912 8.5428 0.6432L8.8076 1.9648C9.36637 2.17775 9.88738 2.4789 10.3508 2.8568L11.6292 2.4248C11.8043 2.36562 11.9945 2.3689 12.1675 2.43409C12.3405 2.49928 12.4855 2.62236 12.578 2.7824L13.522 4.4176C13.6145 4.57767 13.6487 4.76485 13.6188 4.94731C13.5889 5.12976 13.4968 5.29623 13.358 5.4184L12.3444 6.3088C12.4389 6.89917 12.4389 7.50083 12.3444 8.0912L13.358 8.9816C13.4967 9.10362 13.5889 9.26989 13.619 9.45217C13.649 9.63446 13.615 9.82152 13.5228 9.9816L12.5788 11.6176C12.4863 11.7778 12.3411 11.901 12.1679 11.9662C11.9948 12.0314 11.8044 12.0346 11.6292 11.9752L10.3508 11.5432C9.88738 11.9211 9.36637 12.2223 8.8076 12.4352L8.5436 13.7568C8.50737 13.9381 8.40946 14.1012 8.26653 14.2185C8.1236 14.3357 7.94447 14.3999 7.7596 14.4H5.8708C5.68593 14.3999 5.5068 14.3357 5.36387 14.2185C5.22094 14.1012 5.12304 13.9381 5.0868 13.7568L4.822 12.4352C4.26323 12.2223 3.74222 11.9211 3.2788 11.5432L2.0004 11.9752C1.82529 12.0344 1.63508 12.0311 1.46211 11.9659C1.28914 11.9007 1.14409 11.7776 1.0516 11.6176L0.107601 9.9824C0.0150783 9.82233 -0.0191432 9.63515 0.0107555 9.45269C0.0406542 9.27024 0.132827 9.10377 0.271601 8.9816L1.2852 8.0904C1.19081 7.50028 1.19081 6.89892 1.2852 6.3088L0.271601 5.4184C0.132891 5.29638 0.040689 5.13011 0.0106487 4.94782C-0.0193916 4.76554 0.0145818 4.57848 0.106801 4.4184L1.0508 2.7824C1.14332 2.62218 1.28851 2.49899 1.46165 2.43378C1.63479 2.36858 1.82518 2.36541 2.0004 2.4248L3.2788 2.8568C3.74247 2.47883 4.26375 2.17767 4.8228 1.9648L5.0868 0.6432ZM6.8148 9.6C7.45132 9.6 8.06177 9.34714 8.51186 8.89706C8.96194 8.44697 9.2148 7.83652 9.2148 7.2C9.2148 6.56348 8.96194 5.95303 8.51186 5.50294C8.06177 5.05286 7.45132 4.8 6.8148 4.8C6.17828 4.8 5.56783 5.05286 5.11774 5.50294C4.66766 5.95303 4.4148 6.56348 4.4148 7.2C4.4148 7.83652 4.66766 8.44697 5.11774 8.89706C5.56783 9.34714 6.17828 9.6 6.8148 9.6Z" fill="var(--fill-0, #818AA3)"/>
</svg>
