<svg preserveAspectRatio="none" width="100%" height="100%" overflow="visible" style="display: block;" viewBox="0 0 16 16" fill="none" xmlns="http://www.w3.org/2000/svg">
<g id="Frame">
<path id="Vector" fill-rule="evenodd" clip-rule="evenodd" d="M6.57547 4.17625C6.68797 4.06389 6.84047 4.00078 6.99947 4.00078C7.15847 4.00078 7.31097 4.06389 7.42347 4.17625L10.8235 7.57625C10.9358 7.68875 10.9989 7.84125 10.9989 8.00025C10.9989 8.15925 10.9358 8.31175 10.8235 8.42425L7.42347 11.8243C7.30973 11.9302 7.1593 11.9879 7.00385 11.9852C6.84841 11.9825 6.70011 11.9195 6.59017 11.8096C6.48024 11.6996 6.41727 11.5513 6.41453 11.3959C6.41179 11.2404 6.46949 11.09 6.57547 10.9763L9.55147 8.00025L6.57547 5.02425C6.46311 4.91175 6.4 4.75925 6.4 4.60025C6.4 4.44125 6.46311 4.28875 6.57547 4.17625Z" fill="var(--fill-0, #818AA3)"/>
</g>
</svg>
