<svg preserveAspectRatio="none" width="100%" height="100%" overflow="visible" style="display: block;" viewBox="0 0 16 16" fill="none" xmlns="http://www.w3.org/2000/svg">
<g id="Frame">
<path id="Vector" fill-rule="evenodd" clip-rule="evenodd" d="M14.4 8C14.4 9.69739 13.7257 11.3253 12.5255 12.5255C11.3253 13.7257 9.69739 14.4 8 14.4C6.30261 14.4 4.67475 13.7257 3.47452 12.5255C2.27428 11.3253 1.6 9.69739 1.6 8C1.6 6.30261 2.27428 4.67475 3.47452 3.47452C4.67475 2.27428 6.30261 1.6 8 1.6C9.69739 1.6 11.3253 2.27428 12.5255 3.47452C13.7257 4.67475 14.4 6.30261 14.4 8ZM10 6C10 6.53043 9.78929 7.03914 9.41421 7.41421C9.03914 7.78929 8.53043 8 8 8C7.46957 8 6.96086 7.78929 6.58579 7.41421C6.21071 7.03914 6 6.53043 6 6C6 5.46957 6.21071 4.96086 6.58579 4.58579C6.96086 4.21071 7.46957 4 8 4C8.53043 4 9.03914 4.21071 9.41421 4.58579C9.78929 4.96086 10 5.46957 10 6ZM8 9.6C7.25634 9.59932 6.52272 9.77172 5.8572 10.1036C5.19169 10.4354 4.61254 10.9176 4.1656 11.512C4.6522 12.0446 5.24454 12.4697 5.90477 12.7604C6.56501 13.0511 7.27862 13.2008 8 13.2C8.72138 13.2008 9.43499 13.0511 10.0952 12.7604C10.7555 12.4697 11.3478 12.0446 11.8344 11.512C11.3875 10.9176 10.8083 10.4354 10.1428 10.1036C9.47728 9.77172 8.74366 9.59932 8 9.6Z" fill="var(--fill-0, #818AA3)"/>
</g>
</svg>
