<svg preserveAspectRatio="xMidYMid meet" width="100%" height="100%" overflow="visible" style="display: block;" viewBox="0 0 16 16" fill="none" xmlns="http://www.w3.org/2000/svg">
<g id="power 1">
<path id="Vector" fill-rule="evenodd" clip-rule="evenodd" d="M8 1.6C8.15913 1.6 8.31174 1.66321 8.42426 1.77574C8.53679 1.88826 8.6 2.04087 8.6 2.2V8.2C8.6 8.35913 8.53679 8.51174 8.42426 8.62426C8.31174 8.73679 8.15913 8.8 8 8.8C7.84087 8.8 7.68826 8.73679 7.57574 8.62426C7.46321 8.51174 7.4 8.35913 7.4 8.2V2.2C7.4 2.04087 7.46321 1.88826 7.57574 1.77574C7.68826 1.66321 7.84087 1.6 8 1.6ZM4.3232 3.4744C4.43556 3.5869 4.49867 3.7394 4.49867 3.8984C4.49867 4.0574 4.43556 4.2099 4.3232 4.3224C3.59592 5.04962 3.10063 5.97617 2.89995 6.98488C2.69927 7.99359 2.80222 9.03916 3.19578 9.98936C3.58935 10.9396 4.25584 11.7517 5.11099 12.3231C5.96613 12.8945 6.97152 13.1995 8 13.1995C9.02848 13.1995 10.0339 12.8945 10.889 12.3231C11.7442 11.7517 12.4107 10.9396 12.8042 9.98936C13.1978 9.03916 13.3007 7.99359 13.1001 6.98488C12.8994 5.97617 12.4041 5.04962 11.6768 4.3224C11.6179 4.26747 11.5706 4.20123 11.5378 4.12763C11.505 4.05403 11.4873 3.97458 11.4859 3.89402C11.4845 3.81346 11.4993 3.73343 11.5295 3.65872C11.5597 3.58401 11.6046 3.51614 11.6616 3.45917C11.7185 3.40219 11.7864 3.35728 11.8611 3.3271C11.9358 3.29693 12.0159 3.28211 12.0964 3.28353C12.177 3.28495 12.2564 3.30258 12.33 3.33538C12.4036 3.36817 12.4699 3.41545 12.5248 3.4744C13.4199 4.36942 14.0296 5.50979 14.2766 6.75129C14.5236 7.99279 14.3969 9.27966 13.9125 10.4492C13.4281 11.6186 12.6078 12.6182 11.5553 13.3215C10.5028 14.0248 9.26543 14.4002 7.9996 14.4002C6.73377 14.4002 5.49636 14.0248 4.44387 13.3215C3.39138 12.6182 2.57107 11.6186 2.08669 10.4492C1.60232 9.27966 1.47562 7.99279 1.72263 6.75129C1.96964 5.50979 2.57926 4.36942 3.4744 3.4744C3.5869 3.36204 3.7394 3.29893 3.8984 3.29893C4.0574 3.29893 4.2107 3.36204 4.3232 3.4744Z" fill="var(--fill-0, #818AA3)"/>
</g>
</svg>
