<svg preserveAspectRatio="none" width="100%" height="100%" overflow="visible" style="display: block;" viewBox="0 0 16 16" fill="none" xmlns="http://www.w3.org/2000/svg">
<g id="Frame">
<path id="Vector" d="M4.2 9.6C4.2 9.44087 4.26321 9.28826 4.37574 9.17574C4.48826 9.06321 4.64087 9 4.8 9H4.808C4.96713 9 5.11974 9.06321 5.23226 9.17574C5.34479 9.28826 5.408 9.44087 5.408 9.6V9.608C5.408 9.76713 5.34479 9.91974 5.23226 10.0323C5.11974 10.1448 4.96713 10.208 4.808 10.208H4.8C4.64087 10.208 4.48826 10.1448 4.37574 10.0323C4.26321 9.91974 4.2 9.76713 4.2 9.608V9.6ZM4.8 10.6C4.64087 10.6 4.48826 10.6632 4.37574 10.7757C4.26321 10.8883 4.2 11.0409 4.2 11.2V11.208C4.2 11.5392 4.4688 11.808 4.8 11.808H4.808C4.96713 11.808 5.11974 11.7448 5.23226 11.6323C5.34479 11.5197 5.408 11.3671 5.408 11.208V11.2C5.408 11.0409 5.34479 10.8883 5.23226 10.7757C5.11974 10.6632 4.96713 10.6 4.808 10.6H4.8ZM5.8 9.6C5.8 9.44087 5.86321 9.28826 5.97574 9.17574C6.08826 9.06321 6.24087 9 6.4 9H6.408C6.56713 9 6.71974 9.06321 6.83226 9.17574C6.94479 9.28826 7.008 9.44087 7.008 9.6V9.608C7.008 9.76713 6.94479 9.91974 6.83226 10.0323C6.71974 10.1448 6.56713 10.208 6.408 10.208H6.4C6.24087 10.208 6.08826 10.1448 5.97574 10.0323C5.86321 9.91974 5.8 9.76713 5.8 9.608V9.6ZM6.4 10.6C6.24087 10.6 6.08826 10.6632 5.97574 10.7757C5.86321 10.8883 5.8 11.0409 5.8 11.2V11.208C5.8 11.5392 6.0688 11.808 6.4 11.808H6.408C6.56713 11.808 6.71974 11.7448 6.83226 11.6323C6.94479 11.5197 7.008 11.3671 7.008 11.208V11.2C7.008 11.0409 6.94479 10.8883 6.83226 10.7757C6.71974 10.6632 6.56713 10.6 6.408 10.6H6.4ZM7.4 8C7.4 7.84087 7.46321 7.68826 7.57574 7.57574C7.68826 7.46321 7.84087 7.4 8 7.4H8.008C8.16713 7.4 8.31974 7.46321 8.43226 7.57574C8.54479 7.68826 8.608 7.84087 8.608 8V8.008C8.608 8.16713 8.54479 8.31974 8.43226 8.43226C8.31974 8.54479 8.16713 8.608 8.008 8.608H8C7.84087 8.608 7.68826 8.54479 7.57574 8.43226C7.46321 8.31974 7.4 8.16713 7.4 8.008V8ZM8 9C7.84087 9 7.68826 9.06321 7.57574 9.17574C7.46321 9.28826 7.4 9.44087 7.4 9.6V9.608C7.4 9.9392 7.6688 10.208 8 10.208H8.008C8.16713 10.208 8.31974 10.1448 8.43226 10.0323C8.54479 9.91974 8.608 9.76713 8.608 9.608V9.6C8.608 9.44087 8.54479 9.28826 8.43226 9.17574C8.31974 9.06321 8.16713 9 8.008 9H8ZM7.4 11.2C7.4 11.0409 7.46321 10.8883 7.57574 10.7757C7.68826 10.6632 7.84087 10.6 8 10.6H8.008C8.16713 10.6 8.31974 10.6632 8.43226 10.7757C8.54479 10.8883 8.608 11.0409 8.608 11.2V11.208C8.608 11.3671 8.54479 11.5197 8.43226 11.6323C8.31974 11.7448 8.16713 11.808 8.008 11.808H8C7.84087 11.808 7.68826 11.7448 7.57574 11.6323C7.46321 11.5197 7.4 11.3671 7.4 11.208V11.2ZM9.6 7.4C9.44087 7.4 9.28826 7.46321 9.17574 7.57574C9.06321 7.68826 9 7.84087 9 8V8.008C9 8.3392 9.2688 8.608 9.6 8.608H9.608C9.76713 8.608 9.91974 8.54479 10.0323 8.43226C10.1448 8.31974 10.208 8.16713 10.208 8.008V8C10.208 7.84087 10.1448 7.68826 10.0323 7.57574C9.91974 7.46321 9.76713 7.4 9.608 7.4H9.6ZM9 9.6C9 9.44087 9.06321 9.28826 9.17574 9.17574C9.28826 9.06321 9.44087 9 9.6 9H9.608C9.76713 9 9.91974 9.06321 10.0323 9.17574C10.1448 9.28826 10.208 9.44087 10.208 9.6V9.608C10.208 9.76713 10.1448 9.91974 10.0323 10.0323C9.91974 10.1448 9.76713 10.208 9.608 10.208H9.6C9.44087 10.208 9.28826 10.1448 9.17574 10.0323C9.06321 9.91974 9 9.76713 9 9.608V9.6ZM9.6 10.6C9.44087 10.6 9.28826 10.6632 9.17574 10.7757C9.06321 10.8883 9 11.0409 9 11.2V11.208C9 11.5392 9.2688 11.808 9.6 11.808H9.608C9.76713 11.808 9.91974 11.7448 10.0323 11.6323C10.1448 11.5197 10.208 11.3671 10.208 11.208V11.2C10.208 11.0409 10.1448 10.8883 10.0323 10.7757C9.91974 10.6632 9.76713 10.6 9.608 10.6H9.6ZM10.6 8C10.6 7.84087 10.6632 7.68826 10.7757 7.57574C10.8883 7.46321 11.0409 7.4 11.2 7.4H11.208C11.3671 7.4 11.5197 7.46321 11.6323 7.57574C11.7448 7.68826 11.808 7.84087 11.808 8V8.008C11.808 8.16713 11.7448 8.31974 11.6323 8.43226C11.5197 8.54479 11.3671 8.608 11.208 8.608H11.2C11.0409 8.608 10.8883 8.54479 10.7757 8.43226C10.6632 8.31974 10.6 8.16713 10.6 8.008V8ZM11.2 9C11.0409 9 10.8883 9.06321 10.7757 9.17574C10.6632 9.28826 10.6 9.44087 10.6 9.6V9.608C10.6 9.9392 10.8688 10.208 11.2 10.208H11.208C11.3671 10.208 11.5197 10.1448 11.6323 10.0323C11.7448 9.91974 11.808 9.76713 11.808 9.608V9.6C11.808 9.44087 11.7448 9.28826 11.6323 9.17574C11.5197 9.06321 11.3671 9 11.208 9H11.2Z" fill="var(--fill-0, #818AA3)"/>
<path id="Vector_2" fill-rule="evenodd" clip-rule="evenodd" d="M4.6 1.6C4.75913 1.6 4.91174 1.66321 5.02426 1.77574C5.13679 1.88826 5.2 2.04087 5.2 2.2V3.2H10.8V2.2C10.8 2.04087 10.8632 1.88826 10.9757 1.77574C11.0883 1.66321 11.2409 1.6 11.4 1.6C11.5591 1.6 11.7117 1.66321 11.8243 1.77574C11.9368 1.88826 12 2.04087 12 2.2V3.2H12.2C12.7835 3.2 13.3431 3.43178 13.7556 3.84436C14.1682 4.25695 14.4 4.81652 14.4 5.4V12.2C14.4 12.7835 14.1682 13.3431 13.7556 13.7556C13.3431 14.1682 12.7835 14.4 12.2 14.4H3.8C3.21652 14.4 2.65695 14.1682 2.24437 13.7556C1.83179 13.3431 1.6 12.7835 1.6 12.2V5.4C1.6 4.81652 1.83179 4.25695 2.24437 3.84436C2.65695 3.43178 3.21652 3.2 3.8 3.2H4V2.2C4 2.04087 4.06321 1.88826 4.17574 1.77574C4.28826 1.66321 4.44087 1.6 4.6 1.6ZM3.8 6C3.248 6 2.8 6.448 2.8 7V12.2C2.8 12.752 3.248 13.2 3.8 13.2H12.2C12.752 13.2 13.2 12.752 13.2 12.2V7C13.2 6.448 12.752 6 12.2 6H3.8Z" fill="var(--fill-0, #818AA3)"/>
</g>
</svg>
