<svg preserveAspectRatio="none" width="100%" height="100%" overflow="visible" style="display: block;" viewBox="0 0 16 16" fill="none" xmlns="http://www.w3.org/2000/svg">
<g id="Frame">
<path id="Vector" d="M10.6 11.5496C10.7724 11.5496 10.9381 11.6181 11.06 11.74C11.1819 11.8619 11.2504 12.0276 11.2504 12.2C11.2504 12.3724 11.1819 12.5381 11.06 12.66C10.9381 12.7819 10.7724 12.8504 10.6 12.8504H5.3998C5.22767 12.8503 5.06264 12.7816 4.94082 12.66C4.81892 12.5381 4.75039 12.3724 4.75039 12.2C4.75039 12.0276 4.81892 11.8619 4.94082 11.74C5.06264 11.6184 5.22767 11.5497 5.3998 11.5496H10.6ZM12.1996 7.35039C12.372 7.35039 12.5377 7.41892 12.6596 7.54082C12.7813 7.66265 12.8499 7.82758 12.85 7.9998C12.85 8.1722 12.7815 8.33787 12.6596 8.45977C12.5377 8.5816 12.372 8.6502 12.1996 8.6502H3.8002C3.6278 8.6502 3.46213 8.58166 3.34023 8.45977C3.21834 8.33787 3.1498 8.1722 3.1498 7.9998C3.14986 7.82762 3.21856 7.66264 3.34023 7.54082C3.46213 7.41892 3.6278 7.35039 3.8002 7.35039H12.1996ZM13.8002 3.1502C13.9725 3.15025 14.1373 3.21883 14.2592 3.34063C14.381 3.46243 14.4495 3.62736 14.4496 3.79961C14.4496 3.972 14.3811 4.13767 14.2592 4.25957C14.1373 4.3813 13.9724 4.44995 13.8002 4.45H2.19961C2.02741 4.4499 1.86242 4.38132 1.74063 4.25957C1.61873 4.13767 1.5502 3.972 1.5502 3.79961C1.5503 3.62736 1.61882 3.46243 1.74063 3.34063C1.86243 3.21882 2.02736 3.1503 2.19961 3.1502H13.8002Z" fill="var(--fill-0, #818AA3)" stroke="var(--stroke-0, #818AA3)" stroke-width="0.1"/>
</g>
</svg>
