<svg preserveAspectRatio="xMidYMid meet" width="100%" height="100%" overflow="visible" style="display: block;" viewBox="0 0 16 16" fill="none" xmlns="http://www.w3.org/2000/svg">
<g id="Frame">
<path id="Vector" fill-rule="evenodd" clip-rule="evenodd" d="M7.00007 0.8C6.4166 0.8 5.85702 1.03179 5.44444 1.44437C5.03186 1.85695 4.80007 2.41652 4.80007 3V3.3544C4.16407 3.416 3.53287 3.4952 2.90807 3.5928C2.82907 3.60356 2.75301 3.62996 2.68433 3.67046C2.61564 3.71095 2.55572 3.76473 2.50806 3.82865C2.4604 3.89256 2.42596 3.96534 2.40674 4.04272C2.38753 4.1201 2.38393 4.20054 2.39616 4.27932C2.40839 4.35811 2.4362 4.43367 2.47796 4.50159C2.51972 4.56951 2.5746 4.62842 2.63939 4.67489C2.70419 4.72135 2.77759 4.75444 2.85531 4.77221C2.93304 4.78998 3.01353 4.79209 3.09207 4.7784L3.21127 4.7608L3.88407 13.1752C3.92812 13.7266 4.17824 14.2411 4.5846 14.6163C4.99097 14.9916 5.52376 15.1999 6.07687 15.2H9.92247C10.4756 15.2002 11.0085 14.992 11.415 14.6169C11.8215 14.2418 12.0718 13.7273 12.1161 13.176L12.7889 4.76L12.9081 4.7784C13.0638 4.79962 13.2217 4.75886 13.3477 4.66489C13.4737 4.57092 13.5579 4.43125 13.582 4.27591C13.6061 4.12057 13.5683 3.96197 13.4766 3.83422C13.385 3.70648 13.2469 3.61979 13.0921 3.5928C12.4638 3.49503 11.8329 3.41553 11.2001 3.3544V3C11.2001 2.41652 10.9683 1.85695 10.5557 1.44437C10.1431 1.03179 9.58355 0.8 9.00007 0.8H7.00007ZM8.00007 3.2C8.67207 3.2 9.33847 3.22 10.0001 3.26V3C10.0001 2.448 9.55207 2 9.00007 2H7.00007C6.44807 2 6.00007 2.448 6.00007 3V3.26C6.66167 3.22 7.32807 3.2 8.00007 3.2ZM6.86407 6.176C6.85771 6.01687 6.78839 5.86679 6.67137 5.75877C6.55434 5.65074 6.3992 5.59363 6.24007 5.6C6.08094 5.60636 5.93086 5.67568 5.82284 5.79271C5.71482 5.90973 5.65771 6.06487 5.66407 6.224L5.90407 12.224C5.90723 12.3028 5.92587 12.3802 5.95893 12.4518C5.99199 12.5234 6.03884 12.5877 6.09678 12.6412C6.15472 12.6947 6.22263 12.7363 6.29664 12.7635C6.37064 12.7908 6.44928 12.8032 6.52807 12.8C6.60687 12.7968 6.68427 12.7782 6.75586 12.7451C6.82745 12.7121 6.89182 12.6652 6.94531 12.6073C6.99879 12.5493 7.04034 12.4814 7.06758 12.4074C7.09483 12.3334 7.10723 12.2548 7.10407 12.176L6.86407 6.176ZM10.3361 6.224C10.3392 6.14521 10.3268 6.06656 10.2996 5.99256C10.2723 5.91856 10.2308 5.85065 10.1773 5.79271C10.1238 5.73476 10.0594 5.68792 9.98786 5.65486C9.91627 5.62179 9.83887 5.60315 9.76007 5.6C9.60094 5.59363 9.4458 5.65074 9.32878 5.75877C9.21176 5.86679 9.14244 6.01687 9.13607 6.176L8.89607 12.176C8.89292 12.2548 8.90532 12.3334 8.93256 12.4074C8.9598 12.4814 9.00135 12.5493 9.05484 12.6073C9.10833 12.6652 9.1727 12.7121 9.24429 12.7451C9.31588 12.7782 9.39328 12.7968 9.47207 12.8C9.55087 12.8032 9.62951 12.7908 9.70351 12.7635C9.77751 12.7363 9.84542 12.6947 9.90337 12.6412C9.96131 12.5877 10.0082 12.5234 10.0412 12.4518C10.0743 12.3802 10.0929 12.3028 10.0961 12.224L10.3361 6.224Z" fill="var(--fill-0, #C7C8CA)"/>
</g>
</svg>
