<svg preserveAspectRatio="none" width="100%" height="100%" overflow="visible" style="display: block;" viewBox="0 0 16.4004 16" fill="none" xmlns="http://www.w3.org/2000/svg">
<g id="filters active">
<g id="Union">
<path d="M10.5996 11.499C10.7853 11.499 10.9635 11.5728 11.0947 11.7041C11.226 11.8354 11.2998 12.0136 11.2998 12.1992C11.2998 12.3849 11.226 12.5631 11.0947 12.6943C10.9635 12.8256 10.7853 12.8994 10.5996 12.8994H5.39941C5.21383 12.8994 5.03553 12.8256 4.9043 12.6943C4.77308 12.5631 4.69922 12.3848 4.69922 12.1992C4.69922 12.0136 4.77308 11.8354 4.9043 11.7041C5.03553 11.5729 5.21383 11.4991 5.39941 11.499H10.5996Z" fill="var(--fill-0, #818AA3)"/>
<path d="M12.1992 7.29883C12.3847 7.29883 12.5631 7.37281 12.6943 7.50391C12.8256 7.63514 12.8994 7.81344 12.8994 7.99902C12.8994 8.18467 12.8256 8.36286 12.6943 8.49414C12.5631 8.62535 12.3848 8.69922 12.1992 8.69922H3.7998C3.61415 8.69922 3.43596 8.62542 3.30469 8.49414C3.17341 8.36287 3.09961 8.18468 3.09961 7.99902C3.09966 7.81344 3.17346 7.63514 3.30469 7.50391C3.43594 7.37275 3.61425 7.29883 3.7998 7.29883H12.1992Z" fill="var(--fill-0, #818AA3)"/>
<path d="M10.4023 3.09961C10.4144 3.59369 10.5168 4.065 10.6924 4.49902H2.19922C2.01375 4.49892 1.83625 4.42507 1.70508 4.29395C1.5738 4.16267 1.5 3.98448 1.5 3.79883C1.5001 3.61332 1.57389 3.43587 1.70508 3.30469C1.83626 3.1735 2.01371 3.09971 2.19922 3.09961H10.4023Z" fill="var(--fill-0, #818AA3)"/>
<path d="M14.4004 1C15.505 1 16.4004 1.89543 16.4004 3C16.4004 4.10457 15.505 5 14.4004 5C13.2958 5 12.4004 4.10457 12.4004 3C12.4004 1.89543 13.2958 1 14.4004 1Z" fill="#0138C7"/>
</g>
</g>
</svg>
