<svg preserveAspectRatio="xMidYMid meet" width="100%" height="100%" overflow="visible" style="display: block;" viewBox="0 0 32 32" fill="none" xmlns="http://www.w3.org/2000/svg">
<g id="Frame" opacity="0">
<path id="Vector" d="M2.4 8C2.4 7.68174 2.52643 7.37652 2.75147 7.15147C2.97652 6.92643 3.28174 6.8 3.6 6.8C3.91826 6.8 4.22348 6.92643 4.44853 7.15147C4.67357 7.37652 4.8 7.68174 4.8 8C4.8 8.31826 4.67357 8.62348 4.44853 8.84853C4.22348 9.07357 3.91826 9.2 3.6 9.2C3.28174 9.2 2.97652 9.07357 2.75147 8.84853C2.52643 8.62348 2.4 8.31826 2.4 8ZM6.8 8C6.8 7.68174 6.92643 7.37652 7.15147 7.15147C7.37652 6.92643 7.68174 6.8 8 6.8C8.31826 6.8 8.62348 6.92643 8.84853 7.15147C9.07357 7.37652 9.2 7.68174 9.2 8C9.2 8.31826 9.07357 8.62348 8.84853 8.84853C8.62348 9.07357 8.31826 9.2 8 9.2C7.68174 9.2 7.37652 9.07357 7.15147 8.84853C6.92643 8.62348 6.8 8.31826 6.8 8ZM12.4 6.8C12.0817 6.8 11.7765 6.92643 11.5515 7.15147C11.3264 7.37652 11.2 7.68174 11.2 8C11.2 8.31826 11.3264 8.62348 11.5515 8.84853C11.7765 9.07357 12.0817 9.2 12.4 9.2C12.7183 9.2 13.0235 9.07357 13.2485 8.84853C13.4736 8.62348 13.6 8.31826 13.6 8C13.6 7.68174 13.4736 7.37652 13.2485 7.15147C13.0235 6.92643 12.7183 6.8 12.4 6.8Z" fill="var(--fill-0, #818AA3)"/>
</g>
</svg>
