<svg preserveAspectRatio="none" width="100%" height="100%" overflow="visible" style="display: block;" viewBox="0 0 16 16" fill="none" xmlns="http://www.w3.org/2000/svg">
<g id="Footer Item Icon">
<path id="Vector" fill-rule="evenodd" clip-rule="evenodd" d="M8 1.6C6.2112 1.6 4.456 1.744 2.744 2.0192C1.5944 2.204 0.8 3.2112 0.8 4.3408V8.4592C0.8 9.5896 1.5944 10.5952 2.744 10.7808C3.4224 10.8904 4.108 10.9792 4.8 11.0456V13.8C4.8001 13.9186 4.83535 14.0345 4.90129 14.1331C4.96722 14.2316 5.06089 14.3085 5.17046 14.3538C5.28003 14.3992 5.40059 14.4111 5.51691 14.388C5.63323 14.3649 5.74009 14.3078 5.824 14.224L8.688 11.3608C8.80073 11.2498 8.95143 11.1857 9.1096 11.1816C10.4988 11.1358 11.8837 11.0022 13.256 10.7816C14.4056 10.596 15.2 9.5896 15.2 8.4592V4.3408C15.2 3.2104 14.4056 2.2048 13.256 2.0192C11.518 1.73963 9.76037 1.59945 8 1.6ZM8 7.2C8.21217 7.2 8.41566 7.11571 8.56568 6.96569C8.71571 6.81566 8.8 6.61217 8.8 6.4C8.8 6.18783 8.71571 5.98434 8.56568 5.83431C8.41566 5.68429 8.21217 5.6 8 5.6C7.78783 5.6 7.58434 5.68429 7.43431 5.83431C7.28429 5.98434 7.2 6.18783 7.2 6.4C7.2 6.61217 7.28429 6.81566 7.43431 6.96569C7.58434 7.11571 7.78783 7.2 8 7.2ZM6.4 6.4C6.4 6.61217 6.31571 6.81566 6.16568 6.96569C6.01566 7.11571 5.81217 7.2 5.6 7.2C5.38783 7.2 5.18434 7.11571 5.03431 6.96569C4.88429 6.81566 4.8 6.61217 4.8 6.4C4.8 6.18783 4.88429 5.98434 5.03431 5.83431C5.18434 5.68429 5.38783 5.6 5.6 5.6C5.81217 5.6 6.01566 5.68429 6.16568 5.83431C6.31571 5.98434 6.4 6.18783 6.4 6.4ZM10.4 7.2C10.6122 7.2 10.8157 7.11571 10.9657 6.96569C11.1157 6.81566 11.2 6.61217 11.2 6.4C11.2 6.18783 11.1157 5.98434 10.9657 5.83431C10.8157 5.68429 10.6122 5.6 10.4 5.6C10.1878 5.6 9.98434 5.68429 9.83431 5.83431C9.68429 5.98434 9.6 6.18783 9.6 6.4C9.6 6.61217 9.68429 6.81566 9.83431 6.96569C9.98434 7.11571 10.1878 7.2 10.4 7.2Z" fill="var(--fill-0, #818AA3)"/>
</g>
</svg>
