<svg preserveAspectRatio="xMidYMid meet" width="100%" height="100%" overflow="visible" style="display: block;" viewBox="0 0 30.1176 30.1176" fill="none" xmlns="http://www.w3.org/2000/svg">
<g id="Logo Icon">
<g clip-path="url(#clip0_0_68)">
<rect width="30.1176" height="30.1176" rx="15.0588" fill="var(--fill-0, #0138C7)"/>
<path id="M" d="M18.6734 26.7519C18.2951 26.7519 17.9695 26.6183 17.6963 26.3512C17.4442 26.084 17.3181 25.6165 17.3181 24.9487C17.3181 24.5646 17.4127 24.1138 17.6018 23.5962C18.022 22.5444 18.4527 21.4173 18.894 20.2152C19.3562 19.013 19.787 17.7858 20.1862 16.5336C20.6064 15.2813 20.9426 14.0708 21.1947 12.902C21.4468 11.7166 21.5729 10.6313 21.5729 9.6462C21.5729 9.31227 21.5519 8.98669 21.5099 8.66945C21.4889 8.35221 21.4363 8.05168 21.3523 7.76783C19.2302 9.37071 17.2656 11.5496 15.4586 14.3046C13.6727 17.0428 12.0443 20.2319 10.5735 23.8717C10.3214 24.4227 10.0062 24.8067 9.62798 25.0238C9.24978 25.2409 8.89259 25.3494 8.55641 25.3494C8.26225 25.3494 7.9786 25.2576 7.70545 25.0739C7.4323 24.8735 7.29573 24.573 7.29573 24.1723C7.29573 23.9051 7.53736 23.4087 7.70545 22.9245C7.87354 22.4236 7.93732 22.2866 8.20329 21.6487C8.46925 21.0109 8.85056 19.397 8.99764 18.1615C9.16573 16.9259 9.24978 15.7822 9.24978 14.7303C9.24978 14.2461 9.21826 13.7953 9.15523 13.3779C9.11321 12.9438 9.03967 12.5681 8.93461 12.2509C7.84202 13.1692 6.82297 14.3213 5.87746 15.7071C4.95297 17.0762 4.13352 18.5539 3.41914 20.14C2.70476 21.7095 2.10593 23.2456 1.62267 24.7483C1.24447 25.8336 0.635142 26.3762 -0.205311 26.3762C-0.541492 26.3762 -0.825144 26.2343 -1.05627 25.9505C-1.26638 25.6666 -1.37144 25.2409 -1.37144 24.6732C-1.37144 24.1222 -1.20335 23.3792 -0.867167 22.4442C-0.530986 21.5092 -0.0792429 20.4823 0.488062 19.3636C1.07638 18.245 1.72773 17.1346 2.44211 16.0327C3.17751 14.914 3.93392 13.8955 4.71134 12.9772C5.50977 12.0422 6.28718 11.2908 7.04359 10.7231C7.8 10.1555 8.48287 9.87161 9.09219 9.87161C9.49141 9.87161 9.8486 9.93005 10.1638 10.0469C10.4789 10.1638 10.7521 10.4059 10.9832 10.7732C11.2143 11.1239 11.3824 11.6665 11.4875 12.4011C11.6136 13.1191 11.6766 14.0792 11.6766 15.2813C11.6766 15.4984 11.6766 15.7488 11.6766 16.0327C12.2859 14.6969 12.9898 13.4029 13.7882 12.1507C14.6077 10.8818 15.4691 9.74638 16.3726 8.74459C17.2761 7.74279 18.1796 6.9497 19.0831 6.36531C19.9866 5.78093 20.8375 5.48874 21.6359 5.48874C22.5394 5.48874 23.2748 5.88111 23.8421 6.66585C24.4094 7.4339 24.6931 8.64441 24.6931 10.2974C24.6931 11.8669 24.5355 13.3946 24.2203 14.8806C23.9052 16.3666 23.506 17.7691 23.0227 19.0882C22.5604 20.4072 22.0772 21.6093 21.5729 22.6946C21.0897 23.7632 20.6694 24.6815 20.3122 25.4496C20.0811 25.9171 19.8395 26.251 19.5873 26.4514C19.3352 26.6517 19.0305 26.7519 18.6734 26.7519Z" fill="var(--fill-0, white)"/>
</g>
</g>
<defs>
<clipPath id="clip0_0_68">
<rect width="30.1176" height="30.1176" rx="15.0588" fill="white"/>
</clipPath>
</defs>
</svg>
