<svg preserveAspectRatio="none" width="100%" height="100%" overflow="visible" style="display: block;" viewBox="0 0 14 14" fill="none" xmlns="http://www.w3.org/2000/svg">
<g id="jitsi.org 2">
<g clip-path="url(#clip0_0_6)">
<path id="Vector" fill-rule="evenodd" clip-rule="evenodd" d="M0 0H14V14H0V0Z" fill="var(--fill-0, #00A0DE)"/>
<path id="Vector_2" d="M4.21534 7.98348C4.21861 7.98348 4.22281 7.98348 4.23058 7.99188C4.26263 8.02673 4.33185 8.17373 4.28145 8.78179C4.26963 8.90702 4.29981 9.0131 4.37121 9.09726C4.42269 9.15808 4.48849 9.19744 4.54994 9.2231C4.35254 9.35455 4.19341 9.5045 4.04749 9.69459C3.89085 9.89899 3.80996 10.0976 3.75863 10.2779C3.69485 9.97257 3.62003 9.47044 3.66281 9.07937C3.75132 8.26924 4.15218 7.99779 4.21176 7.98364L4.21534 7.98348ZM7.71472 7.34539L7.72016 7.35255C7.80136 7.45833 7.92876 7.5277 7.95878 7.5431L7.96516 7.54637C8.09769 7.60937 8.24096 7.63037 8.32558 7.63753C8.32247 8.06997 8.12538 8.51844 7.77818 8.87808C7.39629 9.27366 6.88887 9.51275 6.34909 9.55117C6.28568 9.55578 6.22212 9.55812 6.15854 9.55817C5.44345 9.55817 5.08038 9.25437 4.91347 9.08528C5.72143 8.73653 5.88523 8.2375 5.95678 8.01957L5.97561 7.96435C6.02471 7.9409 6.07468 7.91932 6.12541 7.89964L6.16756 7.88284L6.40696 7.79137L7.17945 7.52553L7.66758 7.35753L7.67567 7.35504C7.68854 7.35111 7.70163 7.34795 7.71487 7.34555L7.71472 7.34539ZM4.64592 8.13826L4.69289 8.16875L4.78809 8.23004C4.97927 8.35184 5.17154 8.46757 5.30609 8.52762C5.19658 8.62453 4.96869 8.79937 4.72883 8.90002C4.70472 8.91013 4.68185 8.91542 4.66256 8.91542C4.63767 8.91542 4.62616 8.90655 4.61901 8.89877C4.60609 8.88508 4.57716 8.83826 4.58634 8.70386C4.59303 8.63713 4.60236 8.57055 4.61107 8.5063C4.62741 8.3873 4.64421 8.26535 4.64576 8.1381L4.64592 8.13826ZM9.41587 7.38117C9.12996 8.0961 8.71556 8.4111 8.58925 8.4937L8.46092 8.37688C8.50623 8.26187 8.54045 8.1428 8.56312 8.02128C8.58645 7.89295 8.60092 7.72433 8.60776 7.63504C8.74984 7.6139 8.89047 7.58398 9.02885 7.54544C9.19561 7.49768 9.32425 7.44308 9.41587 7.38117ZM8.82289 4.63919C8.78152 4.77453 8.74869 5.00584 8.88294 5.33219C8.95232 5.50082 9.08563 5.88084 9.19607 6.25277C9.38616 6.89366 9.35972 7.00628 9.35598 7.01702C9.34229 7.0573 9.33296 7.0727 9.32876 7.0783C9.31398 7.07517 9.29969 7.07005 9.28629 7.06306C9.19187 7.01919 9.08345 6.93955 8.95792 6.84746C8.72458 6.67635 8.43463 6.46339 8.01012 6.29757C7.69854 6.17577 7.38867 6.11386 7.08938 6.11386C6.96074 6.11386 6.83676 6.12553 6.72087 6.14824C6.05229 6.28015 5.69996 6.57539 5.51081 6.73406L5.50925 6.7353C5.48343 6.75693 5.47394 6.79068 5.48498 6.82133C5.49039 6.83615 5.50027 6.84894 5.51326 6.85791C5.52624 6.86688 5.54169 6.8716 5.55747 6.87142C5.57474 6.87142 5.59154 6.86659 5.64723 6.85073C5.75689 6.81946 5.98525 6.75397 6.25934 6.72286C6.33929 6.71384 6.41272 6.70948 6.48334 6.70948C6.80705 6.70948 7.10463 6.80904 7.41978 7.02293C7.49181 7.08328 7.53598 7.12342 7.56258 7.1497L7.53536 7.15686L7.34418 7.21068C6.87098 7.34477 6.15574 7.54715 5.81694 7.54715C5.78723 7.54715 5.76109 7.54544 5.73916 7.54233C5.65143 7.52942 5.54425 7.43779 5.44469 7.29095C5.23314 6.97844 5.07385 6.43119 5.17885 5.99004L5.17932 5.98802C5.22956 5.74846 5.39632 5.60768 5.46569 5.55822C5.47098 5.55433 5.47425 5.55184 5.47534 5.55075C5.57785 5.46146 5.78754 5.36688 6.06583 5.28444C6.08643 5.27885 6.10718 5.27382 6.12805 5.26935C6.17923 5.25877 6.23523 5.24586 6.28952 5.23342C6.40214 5.20744 6.51881 5.18053 6.60203 5.17213C6.62817 5.1691 6.65417 5.16495 6.67996 5.15968C6.71512 5.15299 6.75136 5.14615 6.78372 5.14615C6.81607 5.14615 6.84034 5.15268 6.86181 5.16699C6.96494 5.28973 7.21694 5.53208 7.38323 5.54624L7.38836 5.54671L7.39349 5.54639C7.58234 5.53644 7.87774 5.35211 8.27223 4.99853C8.33927 4.93848 8.40149 4.88715 8.46263 4.84188L8.47025 4.83628C8.59252 4.74637 8.70887 4.68119 8.82258 4.63935L8.82289 4.63919ZM7.07274 6.36897C7.60863 6.36897 8.12414 6.55891 8.60496 6.93317C8.80112 7.08593 8.94547 7.19404 9.07007 7.28099L8.82414 7.35022L8.78401 7.36126C8.63498 7.38584 8.51054 7.39766 8.40383 7.39766C8.10469 7.39766 7.99954 7.30122 7.90169 7.18455C7.41605 6.60479 6.87907 6.50991 6.67063 6.49591C6.6058 6.49152 6.54085 6.48929 6.47587 6.48922C6.42435 6.48918 6.37283 6.49074 6.32141 6.49388C6.56338 6.41162 6.81716 6.36943 7.07274 6.36897ZM9.19327 4.58413C9.29065 4.58413 9.41043 4.67622 9.50578 4.82446C9.62074 5.00319 9.68903 5.23871 9.69789 5.48728C9.71749 6.02955 9.66756 6.48268 9.57921 6.85897C9.53674 6.50633 9.39425 6.07062 9.33856 5.90122L9.32409 5.85657C9.31014 5.81553 9.29567 5.77467 9.28069 5.73399C9.21194 5.54235 9.06867 5.14382 9.04378 5.02591C9.00723 4.85246 9.08983 4.61399 9.14194 4.59346C9.15781 4.58724 9.17507 4.58397 9.19296 4.58397L9.19327 4.58413ZM7.71829 3.93733C7.72285 3.95843 7.72715 3.97959 7.73121 4.00079L7.74287 4.05913C7.78036 4.24455 7.82298 4.45331 8.20798 4.56888C8.17205 4.64868 8.09816 4.78199 8.07249 4.80735L8.06394 4.81482L8.05803 4.82446C7.98289 4.94502 7.57689 5.20868 7.39505 5.20868C7.38723 5.20875 7.37941 5.20808 7.37172 5.20666C7.26236 5.18566 7.01083 4.96197 6.93787 4.79662C6.79507 4.47244 6.82416 4.35531 6.87378 4.31408C6.96945 4.23459 7.14492 4.12773 7.71845 3.93717L7.71829 3.93733ZM8.38843 3.52853C8.42281 3.57939 8.47678 3.68128 8.49763 3.76668C8.52454 3.87666 8.51941 3.99831 8.48378 4.10097C8.42716 4.23584 8.35094 4.30428 8.25745 4.30428C8.25341 4.30428 8.24921 4.30413 8.24516 4.30397C8.21219 4.29892 8.18057 4.28734 8.15214 4.26991C8.03189 4.19959 7.96687 4.01293 8.01401 3.87573C8.01609 3.87168 8.01796 3.86753 8.01961 3.86328C8.02738 3.84259 8.04932 3.80542 8.11014 3.74662C8.19911 3.66928 8.2921 3.59649 8.38843 3.52853ZM8.26258 2.70533C8.19056 2.95795 8.01727 3.38308 7.73276 3.64068C7.66961 3.69793 7.54158 3.74848 7.39365 3.80697C7.23421 3.86997 7.04241 3.94588 6.85621 4.05975C6.87067 3.91415 6.91594 3.66013 6.99621 3.49119L6.99714 3.48917L6.99792 3.48715C7.02374 3.42384 7.20076 3.32133 7.31789 3.25335L7.36176 3.22784C7.39614 3.20777 7.45354 3.18335 7.52012 3.15488C7.71332 3.07244 8.01447 2.94426 8.26227 2.70533H8.26258ZM8.61741 2.16757C8.64499 2.27872 8.64876 2.39445 8.62845 2.50715C8.59734 2.72648 8.50463 2.92186 8.34596 3.10168C8.49156 2.78451 8.56949 2.48382 8.61741 2.16742V2.16757ZM10.3702 4.58522C10.1972 4.22339 9.95612 4.04062 9.78952 3.93468C9.64952 3.84571 9.48852 3.78099 9.30978 3.74164C9.28886 3.6128 9.2551 3.48637 9.20898 3.36426C9.51045 2.91455 9.58294 2.40884 9.41821 1.89659C9.29158 1.50273 9.19343 1.24886 9.10881 1.09719C8.92634 0.769439 8.67325 0.700684 8.49327 0.700684C8.40132 0.700737 8.3104 0.720062 8.22638 0.757411C8.14236 0.794761 8.0671 0.849305 8.00545 0.917528C7.87789 1.05862 7.81832 1.24326 7.83776 1.43739C7.85441 1.60291 7.81101 1.90359 7.78223 2.01108C7.78176 2.01248 7.73058 2.15606 7.34978 2.34086L7.29114 2.36093C7.07212 2.43435 6.66503 2.57093 6.39374 2.92995C6.18654 3.18117 6.13567 3.43022 6.07687 3.71831C6.04172 3.89004 6.00501 4.11451 6.01403 4.38004C5.33332 4.53139 4.84285 4.83971 4.55538 5.29782C4.25765 5.77211 4.20616 6.35995 4.40201 7.04595L4.40372 7.05108L4.41507 7.08842C4.38126 7.08257 4.34728 7.07775 4.31318 7.07395C4.2824 7.07048 4.25145 7.06876 4.22047 7.06882C3.88058 7.06882 3.51892 7.2827 3.25307 7.64095C3.05101 7.91302 2.80834 8.39353 2.79978 9.13802C2.79341 9.69086 2.85236 10.2006 2.97541 10.653C3.06718 10.9901 3.16954 11.1971 3.20874 11.2696L4.04252 12.834L4.42456 11.1014C4.55492 10.5113 4.68356 10.2608 4.84969 10.0951C5.23609 10.3283 5.69265 10.4509 6.17721 10.4509C6.71729 10.4509 7.28056 10.2949 7.76294 10.0119C8.07623 9.82775 8.34332 9.60173 8.55783 9.33899H8.56654L8.58941 9.33853C8.72194 9.33402 8.90332 9.26837 9.08672 9.15839C9.23947 9.06693 9.46985 8.89846 9.70101 8.61597C9.93403 8.33084 10.1241 7.9841 10.2658 7.5851C10.4318 7.11797 10.5329 6.57415 10.5659 5.96888C10.6059 5.40593 10.5404 4.94051 10.3705 4.58522H10.3702ZM9.98738 5.93248C9.95767 6.48408 9.86761 6.9747 9.71967 7.39066C9.60021 7.72682 9.44294 8.01537 9.25223 8.2487C8.92385 8.65019 8.60309 8.75784 8.56903 8.75924H8.56638C8.53527 8.75924 8.51707 8.74648 8.42996 8.6855L8.33849 8.62297C8.15634 8.97764 7.85705 9.28408 7.46956 9.51166C7.07476 9.74344 6.61572 9.87115 6.17705 9.87115C5.65625 9.87115 5.19892 9.6991 4.85078 9.37259C4.37587 9.67499 4.09027 9.92715 3.85896 10.9765L3.81509 11.1755L3.71927 10.9958C3.69516 10.9516 3.61225 10.7878 3.53416 10.5005C3.42527 10.1 3.37301 9.64373 3.37876 9.14455C3.39043 8.14837 3.92445 7.64842 4.22032 7.64842C4.22988 7.64837 4.23944 7.64889 4.24894 7.64997C4.52941 7.68139 4.71265 7.80273 5.04523 8.02284L5.15396 8.0947C5.27312 8.17295 5.44158 8.26862 5.48405 8.27686C5.56478 8.27219 5.64381 8.09128 5.66667 7.92328L5.67072 7.89482C5.67227 7.87763 5.67336 7.86041 5.67398 7.84317C5.65924 7.83799 5.64471 7.83223 5.63043 7.8259L5.62716 7.82482C5.41794 7.75264 5.11227 7.39859 4.95843 6.88433C4.80987 6.36462 4.83927 5.93482 5.04569 5.60597C5.38045 5.07257 6.10705 4.94719 6.34754 4.90597C6.42514 4.8906 6.50304 4.87675 6.58118 4.86444C6.61852 4.8551 6.64403 4.84717 6.66052 4.84002C6.66767 4.83504 6.67078 4.82975 6.66596 4.81046L6.67249 4.80859L6.66612 4.80999C6.66316 4.79693 6.65912 4.78153 6.65461 4.76379L6.63361 4.67839C6.55925 4.34426 6.59721 4.06426 6.64418 3.83435C6.69707 3.57551 6.72632 3.43224 6.84843 3.28928C7.01021 3.06637 7.30109 2.96884 7.47501 2.91051C7.52354 2.89417 7.56554 2.88017 7.58981 2.86851C8.12289 2.61262 8.29261 2.34351 8.34114 2.16291C8.37956 2.01964 8.44054 1.64273 8.41409 1.37953C8.41114 1.34966 8.41814 1.32508 8.43494 1.30642C8.44233 1.29828 8.45133 1.29177 8.46138 1.2873C8.47142 1.28283 8.48228 1.28049 8.49327 1.28044C8.54321 1.28044 8.61165 1.28044 8.86692 2.07424C9.00163 2.49284 8.90114 2.88515 8.56872 3.24059L8.55596 3.25413C8.54694 3.26346 8.53325 3.27762 8.53138 3.28275C8.53138 3.28275 8.53076 3.29551 8.55301 3.33237C8.69347 3.56462 8.76985 3.85348 8.74776 4.06815C8.74247 4.11808 8.73298 4.16631 8.72458 4.20862C8.71917 4.23408 8.71455 4.25971 8.71074 4.28546H8.71494C8.7706 4.2797 8.82652 4.27684 8.88247 4.27691C9.04923 4.27691 9.28801 4.30242 9.47903 4.42406C9.63998 4.52157 9.76831 4.66473 9.84769 4.83535C9.97416 5.09964 10.0208 5.46877 9.98738 5.93248Z" fill="var(--fill-0, white)"/>
</g>
</g>
<defs>
<clipPath id="clip0_0_6">
<rect width="14" height="14" rx="3.11111" fill="white"/>
</clipPath>
</defs>
</svg>
