<svg width="16" height="16" viewBox="0 0 16 16" fill="none" xmlns="http://www.w3.org/2000/svg">
<path d="M7.4 10.6C7.4 10.7591 7.46321 10.9117 7.57574 11.0243C7.68826 11.1368 7.84087 11.2 8 11.2C8.15913 11.2 8.31174 11.1368 8.42426 11.0243C8.53679 10.9117 8.6 10.7591 8.6 10.6V6.928L10.16 8.608C10.2682 8.7247 10.4183 8.79363 10.5774 8.79963C10.7364 8.80563 10.8913 8.74821 11.008 8.64C11.1247 8.53179 11.1936 8.38166 11.1996 8.22263C11.2056 8.0636 11.1482 7.9087 11.04 7.792L8.44 4.992C8.38383 4.93142 8.31576 4.88309 8.24005 4.85003C8.16434 4.81698 8.08261 4.79992 8 4.79992C7.91739 4.79992 7.83566 4.81698 7.75995 4.85003C7.68424 4.88309 7.61617 4.93142 7.56 4.992L4.96 7.792C4.90642 7.84978 4.86475 7.91755 4.83736 7.99144C4.80997 8.06532 4.7974 8.14388 4.80037 8.22263C4.80335 8.30137 4.8218 8.37876 4.85468 8.45037C4.88756 8.52199 4.93422 8.58642 4.992 8.64C5.04978 8.69358 5.11755 8.73525 5.19144 8.76264C5.26533 8.79003 5.34388 8.8026 5.42263 8.79963C5.50137 8.79666 5.57876 8.7782 5.65037 8.74532C5.72199 8.71244 5.78642 8.66578 5.84 8.608L7.4 6.928V10.6Z" fill="white"/>
</svg>
