<svg preserveAspectRatio="none" width="100%" height="100%" overflow="visible" style="display: block;" viewBox="0 0 17.9107 17.9107" fill="none" xmlns="http://www.w3.org/2000/svg">
<g id="Frame">
<path id="Vector" fill-rule="evenodd" clip-rule="evenodd" d="M8.95414 16.1195C10.8542 16.1195 12.6765 15.3647 14.0201 14.0212C15.3636 12.6776 16.1184 10.8553 16.1184 8.95524C16.1184 7.05515 15.3636 5.23289 14.0201 3.88932C12.6765 2.54576 10.8542 1.79095 8.95414 1.79095C7.05405 1.79095 5.23179 2.54576 3.88822 3.88932C2.54465 5.23289 1.78985 7.05515 1.78985 8.95524C1.78985 10.8553 2.54465 12.6776 3.88822 14.0212C5.23179 15.3647 7.05405 16.1195 8.95414 16.1195ZM8.28249 11.8657C8.28249 12.0439 8.35325 12.2147 8.47921 12.3407C8.60517 12.4666 8.77601 12.5374 8.95414 12.5374C9.13228 12.5374 9.30311 12.4666 9.42907 12.3407C9.55503 12.2147 9.6258 12.0439 9.6258 11.8657V7.75522L11.3721 9.63585C11.4932 9.76648 11.6613 9.84364 11.8393 9.85036C12.0173 9.85708 12.1907 9.7928 12.3214 9.67167C12.452 9.55054 12.5292 9.38248 12.5359 9.20446C12.5426 9.02643 12.4783 8.85303 12.3572 8.7224L9.44669 5.58802C9.38381 5.52021 9.30761 5.4661 9.22286 5.4291C9.1381 5.39211 9.04662 5.37301 8.95414 5.37301C8.86166 5.37301 8.77018 5.39211 8.68543 5.4291C8.60067 5.4661 8.52447 5.52021 8.4616 5.58802L5.5511 8.7224C5.49112 8.78709 5.44447 8.86295 5.41381 8.94566C5.38315 9.02837 5.36909 9.11631 5.37241 9.20446C5.37574 9.2926 5.3964 9.37923 5.4332 9.4594C5.47001 9.53956 5.52224 9.6117 5.58692 9.67167C5.65161 9.73165 5.72747 9.7783 5.81018 9.80896C5.89289 9.83962 5.98083 9.85369 6.06898 9.85036C6.15712 9.84704 6.24375 9.82638 6.32392 9.78957C6.40408 9.75277 6.47622 9.70053 6.53619 9.63585L8.28249 7.75522V11.8657Z" fill="var(--fill-0, #0138C7)"/>
</g>
</svg>
