<svg preserveAspectRatio="none" width="100%" height="100%" overflow="visible" style="display: block;" viewBox="0 0 17.9107 17.9107" fill="none" xmlns="http://www.w3.org/2000/svg">
<g id="Frame" clip-path="url(#clip0_0_37)">
<path id="Vector" d="M10.733 1.70863C10.7638 1.56386 10.746 1.41295 10.6823 1.27935C10.6185 1.14576 10.5125 1.03696 10.3805 0.969861C10.2486 0.902767 10.0982 0.881138 9.95266 0.908336C9.80716 0.935533 9.67472 1.01003 9.57592 1.12026L1.96386 9.62786C1.87742 9.7245 1.8208 9.84409 1.80084 9.9722C1.78087 10.1003 1.79841 10.2315 1.85134 10.3498C1.90427 10.4682 1.99033 10.5687 2.09913 10.6392C2.20792 10.7097 2.33481 10.7473 2.46446 10.7473H8.34993L7.18126 16.2038C7.15039 16.3486 7.1682 16.4995 7.23194 16.6331C7.29567 16.7667 7.40176 16.8755 7.5337 16.9426C7.66564 17.0096 7.81605 17.0313 7.96155 17.0041C8.10705 16.9769 8.23949 16.9024 8.33829 16.7922L15.9504 8.28455C16.0368 8.18791 16.0934 8.06832 16.1134 7.94021C16.1333 7.8121 16.1158 7.68095 16.0629 7.56259C16.0099 7.44423 15.9239 7.34372 15.8151 7.27319C15.7063 7.20267 15.5794 7.16514 15.4497 7.16513L9.56428 7.16513L10.733 1.70863Z" fill="var(--fill-0, #F87527)"/>
</g>
<defs>
<clipPath id="clip0_0_37">
<rect width="17.9107" height="17.9107" fill="white"/>
</clipPath>
</defs>
</svg>
