<svg preserveAspectRatio="none" width="100%" height="100%" overflow="visible" style="display: block;" viewBox="0 0 16 16" fill="none" xmlns="http://www.w3.org/2000/svg">
<g id="Frame">
<path id="Vector" fill-rule="evenodd" clip-rule="evenodd" d="M1.60026 7.99994C1.60026 6.30255 2.27454 4.67468 3.47478 3.47445C4.67501 2.27422 6.30287 1.59993 8.00026 1.59993C9.69765 1.59993 11.3255 2.27422 12.5257 3.47445C13.726 4.67468 14.4003 6.30255 14.4003 7.99994C14.4003 9.69732 13.726 11.3252 12.5257 12.5254C11.3255 13.7257 9.69765 14.3999 8.00026 14.3999C6.30287 14.3999 4.67501 13.7257 3.47478 12.5254C2.27454 11.3252 1.60026 9.69732 1.60026 7.99994ZM5.60026 6.19994C5.60026 6.04081 5.66347 5.88819 5.776 5.77567C5.88852 5.66315 6.04113 5.59993 6.20026 5.59993H9.80026C9.95939 5.59993 10.112 5.66315 10.2245 5.77567C10.337 5.88819 10.4003 6.04081 10.4003 6.19994V9.79994C10.4003 9.95906 10.337 10.1117 10.2245 10.2242C10.112 10.3367 9.95939 10.3999 9.80026 10.3999H6.20026C6.04113 10.3999 5.88852 10.3367 5.776 10.2242C5.66347 10.1117 5.60026 9.95906 5.60026 9.79994V6.19994Z" fill="#818AA3"/>
</g>
</svg>
