<svg preserveAspectRatio="none" overflow="visible" style="display: block;" width="16" height="16" viewBox="0 0 16 16" fill="none" xmlns="http://www.w3.org/2000/svg">
<g id="Frame">
<path id="Vector" fill-rule="evenodd" clip-rule="evenodd" d="M3 2.5C2.46957 2.5 1.96086 2.71071 1.58579 3.08579C1.21071 3.46086 1 3.96957 1 4.5V11.5C1 12.0304 1.21071 12.5391 1.58579 12.9142C1.96086 13.2893 2.46957 13.5 3 13.5H13C13.5304 13.5 14.0391 13.2893 14.4142 12.9142C14.7893 12.5391 15 12.0304 15 11.5V4.5C15 3.96957 14.7893 3.46086 14.4142 3.08579C14.0391 2.71071 13.5304 2.5 13 2.5H3ZM5.75 4.5C5.35218 4.5 4.97064 4.65804 4.68934 4.93934C4.40804 5.22064 4.25 5.60218 4.25 6C4.25 6.39782 4.40804 6.77936 4.68934 7.06066C4.97064 7.34196 5.35218 7.5 5.75 7.5C6.14782 7.5 6.52936 7.34196 6.81066 7.06066C7.09196 6.77936 7.25 6.39782 7.25 6C7.25 5.60218 7.09196 5.22064 6.81066 4.93934C6.52936 4.65804 6.14782 4.5 5.75 4.5ZM3.168 10.302C3.36215 9.77342 3.71385 9.31716 4.1756 8.99486C4.63735 8.67255 5.18689 8.49972 5.75 8.49972C6.31311 8.49972 6.86265 8.67255 7.3244 8.99486C7.78615 9.31716 8.13785 9.77342 8.332 10.302C8.37355 10.4153 8.37275 10.5397 8.32975 10.6524C8.28675 10.7652 8.20444 10.8585 8.098 10.9153C7.3753 11.3003 6.56883 11.5011 5.75 11.5C4.93117 11.5011 4.1247 11.3003 3.402 10.9153C3.29556 10.8585 3.21325 10.7652 3.17025 10.6524C3.12725 10.5397 3.12645 10.4153 3.168 10.302ZM10 5.5C9.86739 5.5 9.74021 5.55268 9.64645 5.64645C9.55268 5.74022 9.5 5.86739 9.5 6C9.5 6.13261 9.55268 6.25979 9.64645 6.35355C9.74021 6.44732 9.86739 6.5 10 6.5H12.5C12.6326 6.5 12.7598 6.44732 12.8536 6.35355C12.9473 6.25979 13 6.13261 13 6C13 5.86739 12.9473 5.74022 12.8536 5.64645C12.7598 5.55268 12.6326 5.5 12.5 5.5H10ZM9.5 8C9.5 7.86739 9.55268 7.74022 9.64645 7.64645C9.74021 7.55268 9.86739 7.5 10 7.5H12.5C12.6326 7.5 12.7598 7.55268 12.8536 7.64645C12.9473 7.74022 13 7.86739 13 8C13 8.13261 12.9473 8.25979 12.8536 8.35355C12.7598 8.44732 12.6326 8.5 12.5 8.5H10C9.86739 8.5 9.74021 8.44732 9.64645 8.35355C9.55268 8.25979 9.5 8.13261 9.5 8ZM10 9.5C9.86739 9.5 9.74021 9.55268 9.64645 9.64645C9.55268 9.74022 9.5 9.86739 9.5 10C9.5 10.1326 9.55268 10.2598 9.64645 10.3536C9.74021 10.4473 9.86739 10.5 10 10.5H12.5C12.6326 10.5 12.7598 10.4473 12.8536 10.3536C12.9473 10.2598 13 10.1326 13 10C13 9.86739 12.9473 9.74022 12.8536 9.64645C12.7598 9.55268 12.6326 9.5 12.5 9.5H10Z" fill="#818AA3"/>
</g>
</svg>
