<svg preserveAspectRatio="none" width="100%" height="100%" overflow="visible" style="display: block;" viewBox="0 0 16 16" fill="none" xmlns="http://www.w3.org/2000/svg">
<g id="Frame">
<path id="Vector" fill-rule="evenodd" clip-rule="evenodd" d="M1 8.74C1 9.723 1.713 10.565 2.69 10.683C3.454 10.775 4.224 10.847 5 10.899V13.25C5.00013 13.3982 5.04419 13.5431 5.12661 13.6663C5.20903 13.7895 5.32611 13.8856 5.46308 13.9423C5.60004 13.999 5.75074 14.0138 5.89614 13.985C6.04154 13.9561 6.17511 13.8848 6.28 13.78L8.79 11.27C8.972 11.089 9.217 10.984 9.474 10.976C10.7566 10.934 12.0368 10.8362 13.311 10.683C14.287 10.565 15 9.723 15 8.74V4.26C15 3.277 14.287 2.435 13.31 2.317C9.78272 1.89256 6.21728 1.89256 2.69 2.317C1.712 2.435 1 3.277 1 4.26V8.742V8.74ZM5.5 6.5C5.5 6.76522 5.39464 7.01957 5.20711 7.20711C5.01957 7.39464 4.76522 7.5 4.5 7.5C4.23478 7.5 3.98043 7.39464 3.79289 7.20711C3.60536 7.01957 3.5 6.76522 3.5 6.5C3.5 6.23478 3.60536 5.98043 3.79289 5.79289C3.98043 5.60536 4.23478 5.5 4.5 5.5C4.76522 5.5 5.01957 5.60536 5.20711 5.79289C5.39464 5.98043 5.5 6.23478 5.5 6.5ZM8 7.5C8.26522 7.5 8.51957 7.39464 8.70711 7.20711C8.89464 7.01957 9 6.76522 9 6.5C9 6.23478 8.89464 5.98043 8.70711 5.79289C8.51957 5.60536 8.26522 5.5 8 5.5C7.73478 5.5 7.48043 5.60536 7.29289 5.79289C7.10536 5.98043 7 6.23478 7 6.5C7 6.76522 7.10536 7.01957 7.29289 7.20711C7.48043 7.39464 7.73478 7.5 8 7.5ZM11.5 7.5C11.7652 7.5 12.0196 7.39464 12.2071 7.20711C12.3946 7.01957 12.5 6.76522 12.5 6.5C12.5 6.23478 12.3946 5.98043 12.2071 5.79289C12.0196 5.60536 11.7652 5.5 11.5 5.5C11.2348 5.5 10.9804 5.60536 10.7929 5.79289C10.6054 5.98043 10.5 6.23478 10.5 6.5C10.5 6.76522 10.6054 7.01957 10.7929 7.20711C10.9804 7.39464 11.2348 7.5 11.5 7.5Z" fill="var(--fill-0, #818AA3)"/>
</g>
</svg>
