<svg preserveAspectRatio="none" width="100%" height="100%" overflow="visible" style="display: block;" viewBox="0 0 16 16" fill="none" xmlns="http://www.w3.org/2000/svg">
<g id="Frame">
<path id="Vector" d="M5.28 4.22C5.13783 4.08752 4.94978 4.0154 4.75548 4.01883C4.56118 4.02225 4.37579 4.10097 4.23838 4.23838C4.10096 4.37579 4.02225 4.56118 4.01882 4.75548C4.0154 4.94978 4.08752 5.13783 4.22 5.28L6.94 8L4.22 10.72C4.14631 10.7887 4.08721 10.8715 4.04622 10.9635C4.00523 11.0555 3.98319 11.1548 3.98141 11.2555C3.97963 11.3562 3.99816 11.4562 4.03588 11.5496C4.0736 11.643 4.12974 11.7278 4.20096 11.799C4.27218 11.8703 4.35701 11.9264 4.4504 11.9641C4.54379 12.0018 4.64382 12.0204 4.74452 12.0186C4.84523 12.0168 4.94454 11.9948 5.03654 11.9538C5.12854 11.9128 5.21134 11.8537 5.28 11.78L8 9.06L10.72 11.78C10.7887 11.8537 10.8715 11.9128 10.9635 11.9538C11.0555 11.9948 11.1548 12.0168 11.2555 12.0186C11.3562 12.0204 11.4562 12.0018 11.5496 11.9641C11.643 11.9264 11.7278 11.8703 11.799 11.799C11.8703 11.7278 11.9264 11.643 11.9641 11.5496C12.0018 11.4562 12.0204 11.3562 12.0186 11.2555C12.0168 11.1548 11.9948 11.0555 11.9538 10.9635C11.9128 10.8715 11.8537 10.7887 11.78 10.72L9.06 8L11.78 5.28C11.9125 5.13783 11.9846 4.94978 11.9812 4.75548C11.9777 4.56118 11.899 4.37579 11.7616 4.23838C11.6242 4.10097 11.4388 4.02225 11.2445 4.01883C11.0502 4.0154 10.8622 4.08752 10.72 4.22L8 6.94L5.28 4.22Z" fill="var(--fill-0, #818AA3)"/>
</g>
</svg>
