<svg preserveAspectRatio="xMidYMid meet" width="100%" height="100%" overflow="visible" style="display: block;" viewBox="0 0 20 20" fill="none" xmlns="http://www.w3.org/2000/svg">
<g id="Frame">
<path id="Vector" fill-rule="evenodd" clip-rule="evenodd" d="M17.721 1.599C17.808 1.66923 17.8782 1.75803 17.9265 1.8589C17.9748 1.95978 17.9999 2.07017 18 2.182V13.472C18.0002 13.9862 17.8243 14.485 17.5015 14.8853C17.1787 15.2856 16.7286 15.5632 16.226 15.672L14.185 16.112C13.6105 16.2364 13.0102 16.1275 12.516 15.8092C12.0219 15.491 11.6744 14.9895 11.55 14.415C11.4256 13.8405 11.5345 13.2402 11.8528 12.746C12.171 12.2519 12.6725 11.9044 13.247 11.78L15.909 11.203C16.0764 11.1667 16.2263 11.0742 16.3339 10.9408C16.4414 10.8074 16.5 10.6413 16.5 10.47V6.112L8.5 7.842V15.526C8.50021 16.0402 8.32428 16.539 8.0015 16.9393C7.67873 17.3396 7.22858 17.6172 6.726 17.726L4.684 18.166C4.39681 18.2351 4.09869 18.2461 3.80719 18.1983C3.51569 18.1505 3.23669 18.045 2.98658 17.8878C2.73647 17.7306 2.52031 17.525 2.3508 17.2831C2.18129 17.0412 2.06186 16.7679 1.99952 16.4791C1.93719 16.1904 1.93321 15.8921 1.98782 15.6018C2.04243 15.3115 2.15453 15.035 2.31753 14.7887C2.48052 14.5423 2.69113 14.3311 2.93696 14.1673C3.18279 14.0035 3.45888 13.8905 3.749 13.835L6.408 13.262C6.57559 13.2259 6.72575 13.1334 6.83347 13.0001C6.94119 12.8667 6.99996 12.7004 7 12.529V4.236C6.99999 4.0647 7.05862 3.89855 7.16614 3.7652C7.27366 3.63185 7.42359 3.53932 7.591 3.503L17.091 1.449C17.2005 1.42534 17.314 1.42654 17.423 1.4525C17.532 1.47846 17.6339 1.52852 17.721 1.599Z" fill="var(--fill-0, white)"/>
</g>
</svg>
