<svg preserveAspectRatio="xMidYMid meet" width="100%" height="100%" overflow="visible" style="display: block;" viewBox="0 0 16 16" fill="none" xmlns="http://www.w3.org/2000/svg">
<g id="Frame">
<path id="Vector" fill-rule="evenodd" clip-rule="evenodd" d="M5.73715 3.31635L7.29475 5.28915C7.7575 5.16916 8.2432 5.16916 8.70595 5.28915L10.2635 3.31635C9.55753 2.97634 8.78397 2.79977 8.00035 2.79977C7.21672 2.79977 6.44317 2.97634 5.73715 3.31635ZM12.6835 5.73635L10.7107 7.29395C10.8307 7.75635 10.8307 8.24275 10.7107 8.70515L12.6835 10.2627C13.0236 9.55673 13.2001 8.78317 13.2001 7.99955C13.2001 7.21592 13.0236 6.44237 12.6835 5.73635ZM10.2635 12.6827L8.70595 10.7099C8.24355 10.8299 7.75715 10.8299 7.29475 10.7099L5.73715 12.6827C6.44317 13.0228 7.21672 13.1993 8.00035 13.1993C8.78397 13.1993 9.55753 13.0228 10.2635 12.6827ZM3.31715 10.2635L5.28995 8.70595C5.16996 8.2432 5.16996 7.7575 5.28995 7.29475L3.31715 5.73635C2.97714 6.44237 2.80057 7.21592 2.80057 7.99955C2.80057 8.78317 2.97714 9.55753 3.31715 10.2635ZM4.50435 2.63715C5.54442 1.9603 6.75864 1.6 7.99955 1.6C9.24046 1.6 10.4547 1.9603 11.4947 2.63715C12.2397 3.12355 12.8755 3.75938 13.3619 4.50435C14.0388 5.54442 14.3991 6.75864 14.3991 7.99955C14.3991 9.24046 14.0388 10.4547 13.3619 11.4947C12.8755 12.2397 12.2397 12.8755 11.4947 13.3619C10.4547 14.0388 9.24046 14.3991 7.99955 14.3991C6.75864 14.3991 5.54442 14.0388 4.50435 13.3619C3.75939 12.8755 3.12357 12.2397 2.63715 11.4947C1.9603 10.4547 1.6 9.24046 1.6 7.99955C1.6 6.75864 1.9603 5.54442 2.63715 4.50435C3.12353 3.75936 3.75936 3.12353 4.50435 2.63715ZM8.66275 6.54275C8.36591 6.40871 8.03533 6.36808 7.71486 6.42623C7.3944 6.48438 7.09918 6.63857 6.86835 6.86835C6.63719 7.09832 6.48205 7.3936 6.42384 7.71443C6.36562 8.03526 6.40712 8.36623 6.54275 8.66275C6.70236 9.01472 6.98438 9.29674 7.33635 9.45635C7.63319 9.59038 7.96376 9.63102 8.28423 9.57287C8.6047 9.51472 8.89992 9.36053 9.13075 9.13075C9.27155 8.99075 9.37875 8.83155 9.45635 8.66275C9.59038 8.36591 9.63102 8.03533 9.57287 7.71486C9.51472 7.3944 9.36053 7.09918 9.13075 6.86835C8.99558 6.73258 8.83704 6.62228 8.66275 6.54275Z" fill="var(--fill-0, #818AA3)"/>
</g>
</svg>
