<svg preserveAspectRatio="xMidYMid meet" width="100%" height="100%" overflow="visible" style="display: block;" viewBox="0 0 16 16" fill="none" xmlns="http://www.w3.org/2000/svg">
<g id="Menu Item Icon">
<path id="Vector" d="M8.44987 3.7832C8.44987 3.62849 8.38841 3.48012 8.27902 3.37072C8.16962 3.26133 8.02125 3.19987 7.86654 3.19987C7.71183 3.19987 7.56345 3.26133 7.45406 3.37072C7.34466 3.48012 7.2832 3.62849 7.2832 3.7832V7.2832H3.7832C3.62849 7.2832 3.48012 7.34466 3.37072 7.45406C3.26133 7.56345 3.19987 7.71183 3.19987 7.86654C3.19987 8.02125 3.26133 8.16962 3.37072 8.27902C3.48012 8.38841 3.62849 8.44987 3.7832 8.44987H7.2832V11.9499C7.2832 12.1046 7.34466 12.253 7.45406 12.3623C7.56345 12.4717 7.71183 12.5332 7.86654 12.5332C8.02125 12.5332 8.16962 12.4717 8.27902 12.3623C8.38841 12.253 8.44987 12.1046 8.44987 11.9499V8.44987H11.9499C12.1046 8.44987 12.253 8.38841 12.3623 8.27902C12.4717 8.16962 12.5332 8.02125 12.5332 7.86654C12.5332 7.71183 12.4717 7.56345 12.3623 7.45406C12.253 7.34466 12.1046 7.2832 11.9499 7.2832H8.44987V3.7832Z" fill="var(--fill-0, white)"/>
</g>
</svg>
