<svg preserveAspectRatio="none" width="100%" height="100%" overflow="visible" style="display: block;" viewBox="0 0 24 16" fill="none" xmlns="http://www.w3.org/2000/svg">
<g id="Frame 2085664762">
<circle id="Ellipse 121" cx="2" cy="8" r="2" fill="var(--fill-0, #0138C7)"/>
<g id="Frame">
<path id="Vector" fill-rule="evenodd" clip-rule="evenodd" d="M14.5755 4.17625C14.688 4.06389 14.8405 4.00078 14.9995 4.00078C15.1585 4.00078 15.311 4.06389 15.4235 4.17625L18.8235 7.57625C18.9358 7.68875 18.9989 7.84125 18.9989 8.00025C18.9989 8.15925 18.9358 8.31175 18.8235 8.42425L15.4235 11.8243C15.3097 11.9302 15.1593 11.9879 15.0039 11.9852C14.8484 11.9825 14.7001 11.9195 14.5902 11.8096C14.4802 11.6996 14.4173 11.5513 14.4145 11.3959C14.4118 11.2404 14.4695 11.09 14.5755 10.9763L17.5515 8.00025L14.5755 5.02425C14.4631 4.91175 14.4 4.75925 14.4 4.60025C14.4 4.44125 14.4631 4.28875 14.5755 4.17625Z" fill="var(--fill-0, #818AA3)"/>
</g>
</g>
</svg>
