<svg preserveAspectRatio="none" width="100%" height="100%" overflow="visible" style="display: block;" viewBox="0 0 16 16" fill="none" xmlns="http://www.w3.org/2000/svg">
<g id="Frame">
<path id="Vector" d="M5.02334 4.17588C4.9096 4.06989 4.75916 4.01219 4.60372 4.01494C4.44828 4.01768 4.29997 4.08065 4.19004 4.19058C4.08011 4.30051 4.01714 4.44882 4.0144 4.60426C4.01166 4.7597 4.06936 4.91014 4.17534 5.02388L7.15134 7.99988L4.17534 10.9759C4.11639 11.0308 4.06911 11.097 4.03632 11.1706C4.00352 11.2442 3.98589 11.3237 3.98447 11.4043C3.98305 11.4848 3.99787 11.5648 4.02804 11.6396C4.05822 11.7143 4.10314 11.7821 4.16011 11.8391C4.21709 11.8961 4.28495 11.941 4.35966 11.9712C4.43437 12.0014 4.5144 12.0162 4.59496 12.0148C4.67552 12.0133 4.75497 11.9957 4.82857 11.9629C4.90217 11.9301 4.96841 11.8828 5.02334 11.8239L7.99934 8.84788L10.9753 11.8239C11.0303 11.8828 11.0965 11.9301 11.1701 11.9629C11.2437 11.9957 11.3232 12.0133 11.4037 12.0148C11.4843 12.0162 11.5643 12.0014 11.639 11.9712C11.7137 11.941 11.7816 11.8961 11.8386 11.8391C11.8955 11.7821 11.9405 11.7143 11.9706 11.6396C12.0008 11.5648 12.0156 11.4848 12.0142 11.4043C12.0128 11.3237 11.9952 11.2442 11.9624 11.1706C11.9296 11.097 11.8823 11.0308 11.8233 10.9759L8.84734 7.99988L11.8233 5.02388C11.9293 4.91014 11.987 4.7597 11.9843 4.60426C11.9815 4.44882 11.9186 4.30051 11.8086 4.19058C11.6987 4.08065 11.5504 4.01768 11.395 4.01494C11.2395 4.01219 11.0891 4.06989 10.9753 4.17588L7.99934 7.15188L5.02334 4.17588Z" fill="var(--fill-0, #818AA3)"/>
</g>
</svg>
