<svg preserveAspectRatio="none" width="100%" height="100%" overflow="visible" style="display: block;" viewBox="0 0 16 16" fill="none" xmlns="http://www.w3.org/2000/svg">
<g id="Frame">
<path id="Vector" fill-rule="evenodd" clip-rule="evenodd" d="M8 0.8C11.0928 0.8 13.6 2.232 13.6 4C13.6 5.768 11.0928 7.2 8 7.2C4.9072 7.2 2.4 5.768 2.4 4C2.4 2.232 4.9072 0.8 8 0.8ZM12.5552 7.304C12.9264 7.0928 13.2832 6.8376 13.6 6.5424V8C13.6 9.768 11.0928 11.2 8 11.2C4.9072 11.2 2.4 9.768 2.4 8V6.5424C2.7168 6.8384 3.0736 7.0928 3.4448 7.3048C4.6704 8.0048 6.2832 8.4 8 8.4C9.7168 8.4 11.3296 8.0048 12.5552 7.304ZM2.4 10.5432V12C2.4 13.768 4.9072 15.2 8 15.2C11.0928 15.2 13.6 13.768 13.6 12V10.5424C13.2832 10.8384 12.9264 11.0928 12.5552 11.3048C11.3296 12.0048 9.7168 12.4 8 12.4C6.2832 12.4 4.6704 12.0048 3.4448 11.304C3.06837 11.0915 2.71778 10.8362 2.4 10.5432Z" fill="var(--fill-0, #818AA3)"/>
</g>
</svg>
