<svg width="16" height="16" viewBox="0 0 16 16" fill="none" xmlns="http://www.w3.org/2000/svg">
<path fill-rule="evenodd" clip-rule="evenodd" d="M1.6 8C1.6 6.30261 2.27428 4.67475 3.47452 3.47452C4.67475 2.27428 6.30261 1.6 8 1.6C9.69739 1.6 11.3253 2.27428 12.5255 3.47452C13.7257 4.67475 14.4 6.30261 14.4 8C14.4 9.69739 13.7257 11.3253 12.5255 12.5255C11.3253 13.7257 9.69739 14.4 8 14.4C6.30261 14.4 4.67475 13.7257 3.47452 12.5255C2.27428 11.3253 1.6 9.69739 1.6 8ZM5.6 6.2C5.6 6.04087 5.66321 5.88826 5.77574 5.77574C5.88826 5.66321 6.04087 5.6 6.2 5.6H9.8C9.95913 5.6 10.1117 5.66321 10.2243 5.77574C10.3368 5.88826 10.4 6.04087 10.4 6.2V9.8C10.4 9.95913 10.3368 10.1117 10.2243 10.2243C10.1117 10.3368 9.95913 10.4 9.8 10.4H6.2C6.04087 10.4 5.88826 10.3368 5.77574 10.2243C5.66321 10.1117 5.6 9.95913 5.6 9.8V6.2Z" fill="#CC3333"/>
</svg>
