<svg preserveAspectRatio="none" width="100%" height="100%" overflow="visible" style="display: block;" viewBox="0 0 12 12" fill="none" xmlns="http://www.w3.org/2000/svg">
<g id="Frame">
<path id="Vector" fill-rule="evenodd" clip-rule="evenodd" d="M9.31262 2.53219C9.43673 2.61494 9.52289 2.7436 9.55215 2.88988C9.5814 3.03616 9.55136 3.18806 9.46862 3.31219L5.71862 8.93719C5.67243 9.00637 5.61147 9.06445 5.54014 9.10724C5.46881 9.15003 5.38887 9.17646 5.30609 9.18464C5.22331 9.19282 5.13974 9.18253 5.06142 9.15453C4.98309 9.12652 4.91195 9.08149 4.85312 9.02269L2.60312 6.77269C2.50376 6.66605 2.44966 6.52502 2.45224 6.37929C2.45481 6.23357 2.51384 6.09453 2.6169 5.99147C2.71996 5.88841 2.859 5.82938 3.00473 5.82681C3.15045 5.82423 3.29149 5.87833 3.39812 5.97769L5.16287 7.74244L8.53262 2.68744C8.61549 2.56344 8.74421 2.47744 8.89048 2.44832C9.03674 2.41921 9.18858 2.44938 9.31262 2.53219Z" fill="var(--fill-0, white)"/>
</g>
</svg>
