<svg preserveAspectRatio="xMidYMid meet" width="100%" height="100%" overflow="visible" style="display: block;" viewBox="0 0 16 16" fill="none" xmlns="http://www.w3.org/2000/svg">
<g id="Frame">
<path id="Vector" d="M2.4842 1.83094C2.38508 1.81689 2.28403 1.82786 2.19024 1.86286C2.09644 1.89786 2.0129 1.95577 1.94722 2.03132C1.88153 2.10686 1.83579 2.19764 1.81417 2.29539C1.79254 2.39313 1.79572 2.49473 1.8234 2.59094L2.9546 6.53174C3.02651 6.78215 3.17796 7.00236 3.38608 7.1591C3.59419 7.31584 3.84767 7.40058 4.1082 7.40054H9.0002C9.15933 7.40054 9.31194 7.46375 9.42447 7.57627C9.53699 7.6888 9.6002 7.84141 9.6002 8.00054C9.6002 8.15967 9.53699 8.31228 9.42447 8.4248C9.31194 8.53732 9.15933 8.60054 9.0002 8.60054H4.1082C3.84767 8.60049 3.59419 8.68524 3.38608 8.84198C3.17796 8.99871 3.02651 9.21892 2.9546 9.46934L1.8234 13.4101C1.79572 13.5063 1.79254 13.6079 1.81417 13.7057C1.83579 13.8034 1.88153 13.8942 1.94722 13.9698C2.0129 14.0453 2.09644 14.1032 2.19024 14.1382C2.28403 14.1732 2.38508 14.1842 2.4842 14.1701C7.04123 13.5226 11.3012 11.5295 14.7186 8.44614C14.781 8.38988 14.8309 8.32114 14.865 8.24438C14.8992 8.16762 14.9168 8.08455 14.9168 8.00054C14.9168 7.91653 14.8992 7.83345 14.865 7.75669C14.8309 7.67993 14.781 7.6112 14.7186 7.55494C11.3012 4.47153 7.04123 2.47843 2.4842 1.83094Z" fill="var(--fill-0, #818AA3)"/>
</g>
</svg>
