<svg preserveAspectRatio="xMidYMid meet" width="100%" height="100%" overflow="visible" style="display: block;" viewBox="0 0 87.5286 18.3535" fill="none" xmlns="http://www.w3.org/2000/svg">
<g id="MyMeet.ai">
<path id="Vector" d="M85.8382 1.74523V0H87.5286V1.74523H85.8382ZM85.8382 13.8006V3.55686H87.5286V13.8006H85.8382Z" fill="var(--fill-0, #212833)"/>
<path id="Vector_2" d="M78.261 14.0849C77.4949 14.0849 76.8523 13.9458 76.3332 13.6676C75.8204 13.383 75.431 13.01 75.1651 12.5484C74.9055 12.0868 74.7757 11.5809 74.7757 11.0308C74.7757 10.4933 74.877 10.0285 75.0796 9.63647C75.2886 9.2381 75.5798 8.90929 75.9533 8.65004C76.3269 8.38446 76.7732 8.17579 77.2923 8.02403C77.7798 7.89124 78.3243 7.77742 78.9258 7.68257C79.5335 7.5814 80.1477 7.48971 80.7681 7.4075C81.3886 7.3253 81.9679 7.24626 82.506 7.17038L81.8982 7.52132C81.9172 6.61077 81.7336 5.93733 81.3474 5.50103C80.9675 5.06472 80.3091 4.84656 79.3721 4.84656C78.7517 4.84656 78.2072 4.98884 77.7387 5.27339C77.2765 5.55161 76.9505 6.00689 76.7605 6.63922L75.1556 6.15549C75.4025 5.25758 75.8805 4.55253 76.5896 4.04034C77.2987 3.52815 78.2325 3.27206 79.3911 3.27206C80.3218 3.27206 81.1195 3.43963 81.7843 3.77476C82.4554 4.10357 82.9365 4.60312 83.2277 5.27339C83.3734 5.58955 83.4652 5.93417 83.5031 6.30725C83.5411 6.674 83.5601 7.05972 83.5601 7.46442V13.8004H82.0597V11.3438L82.411 11.5714C82.0248 12.3998 81.4835 13.0258 80.7871 13.4494C80.097 13.8731 79.255 14.0849 78.261 14.0849ZM78.5174 12.6717C79.1252 12.6717 79.6507 12.5642 80.0939 12.3492C80.5434 12.1279 80.9042 11.8401 81.1765 11.486C81.4487 11.1256 81.626 10.7336 81.7083 10.3099C81.8032 9.99374 81.8539 9.6428 81.8602 9.25707C81.8729 8.86503 81.8792 8.56467 81.8792 8.356L82.468 8.6121C81.9172 8.68798 81.3759 8.76069 80.8441 8.83025C80.3123 8.89981 79.809 8.97569 79.3341 9.05789C78.8593 9.13377 78.4319 9.22546 78.0521 9.33295C77.7735 9.42148 77.5108 9.5353 77.2639 9.67441C77.0233 9.81353 76.827 9.99374 76.6751 10.2151C76.5294 10.43 76.4566 10.6988 76.4566 11.0213C76.4566 11.2995 76.5263 11.5651 76.6656 11.818C76.8112 12.0709 77.0328 12.2765 77.3303 12.4345C77.6342 12.5926 78.0299 12.6717 78.5174 12.6717Z" fill="var(--fill-0, #212833)"/>
<path id="Vector_3" d="M70.9099 13.8002V11.9412H72.7713V13.8002H70.9099Z" fill="var(--fill-0, #212833)"/>
<path id="Vector_4" d="M68.9047 13.8007C68.2969 13.9208 67.6954 13.9682 67.1003 13.9429C66.5115 13.924 65.986 13.807 65.5239 13.592C65.0617 13.3707 64.7103 13.0292 64.4697 12.5676C64.2672 12.1629 64.1564 11.7551 64.1374 11.344C64.1247 10.9267 64.1184 10.4556 64.1184 9.93079V0.711397H65.8088V9.85491C65.8088 10.2722 65.8119 10.6295 65.8183 10.9267C65.8309 11.2239 65.8974 11.48 66.0177 11.695C66.2456 12.0997 66.6065 12.3368 67.1003 12.4064C67.6005 12.4759 68.2019 12.457 68.9047 12.3495V13.8007ZM62.0386 4.95118V3.55689H68.9047V4.95118H62.0386Z" fill="var(--fill-0, #212833)"/>
<path id="Vector_5" d="M56.7808 14.0849C55.7741 14.0849 54.8941 13.8636 54.1407 13.421C53.3936 12.972 52.8112 12.3492 52.3933 11.5524C51.9755 10.7494 51.7665 9.81352 51.7665 8.74489C51.7665 7.62566 51.9723 6.65819 52.3838 5.84249C52.7954 5.02045 53.3683 4.38812 54.1027 3.94549C54.8435 3.49654 55.7108 3.27206 56.7048 3.27206C57.7368 3.27206 58.6136 3.50918 59.3354 3.98343C60.0634 4.45768 60.6079 5.13427 60.9688 6.01321C61.336 6.89216 61.4943 7.93866 61.4436 9.15274H59.7342V8.5457C59.7152 7.28736 59.4588 6.34835 58.965 5.72867C58.4712 5.10266 57.7368 4.78965 56.7618 4.78965C55.7171 4.78965 54.9226 5.12479 54.3781 5.79506C53.8336 6.46533 53.5614 7.42648 53.5614 8.67849C53.5614 9.88624 53.8336 10.8221 54.3781 11.486C54.9226 12.15 55.6982 12.482 56.7048 12.482C57.3822 12.482 57.971 12.327 58.4712 12.0172C58.9713 11.7074 59.3639 11.2616 59.6488 10.6798L61.2727 11.2394C60.8738 12.1437 60.2724 12.8456 59.4683 13.3451C58.6706 13.8383 57.7748 14.0849 56.7808 14.0849ZM52.9916 9.15274V7.79639H60.5699V9.15274H52.9916Z" fill="var(--fill-0, #212833)"/>
<path id="Vector_6" d="M45.9389 14.0849C44.9322 14.0849 44.0522 13.8636 43.2988 13.421C42.5517 12.972 41.9693 12.3492 41.5514 11.5524C41.1336 10.7494 40.9246 9.81352 40.9246 8.74489C40.9246 7.62566 41.1304 6.65819 41.5419 5.84249C41.9534 5.02045 42.5264 4.38812 43.2608 3.94549C44.0015 3.49654 44.8689 3.27206 45.8629 3.27206C46.8949 3.27206 47.7717 3.50918 48.4935 3.98343C49.2215 4.45768 49.766 5.13427 50.1269 6.01321C50.4941 6.89216 50.6524 7.93866 50.6017 9.15274H48.8923V8.5457C48.8733 7.28736 48.6169 6.34835 48.1231 5.72867C47.6293 5.10266 46.8949 4.78965 45.9199 4.78965C44.8752 4.78965 44.0807 5.12479 43.5362 5.79506C42.9917 6.46533 42.7195 7.42648 42.7195 8.67849C42.7195 9.88624 42.9917 10.8221 43.5362 11.486C44.0807 12.15 44.8562 12.482 45.8629 12.482C46.5403 12.482 47.1291 12.327 47.6293 12.0172C48.1294 11.7074 48.522 11.2616 48.8069 10.6798L50.4308 11.2394C50.0319 12.1437 49.4305 12.8456 48.6264 13.3451C47.8287 13.8383 46.9328 14.0849 45.9389 14.0849ZM42.1497 9.15274V7.79639H49.728V9.15274H42.1497Z" fill="var(--fill-0, #212833)"/>
<path id="Vector_7" d="M37.7936 13.7998L37.8031 7.24567C37.8031 6.48055 37.5973 5.883 37.1858 5.45301C36.7806 5.01671 36.2519 4.79855 35.5998 4.79855C35.22 4.79855 34.8591 4.88708 34.5172 5.06413C34.1753 5.23486 33.8968 5.50676 33.6815 5.87984C33.4663 6.24659 33.3586 6.71768 33.3586 7.2931L32.4659 6.93267C32.4533 6.20549 32.6021 5.56999 32.9123 5.02619C33.2288 4.47606 33.6594 4.04924 34.2038 3.74572C34.7483 3.4422 35.3624 3.29044 36.0462 3.29044C37.1161 3.29044 37.9582 3.61609 38.5723 4.26739C39.1864 4.91237 39.4935 5.78183 39.4935 6.87576L39.484 13.7998H37.7936ZM25.5239 13.7998V3.55602H27.0339V6.29718H27.2238V13.7998H25.5239ZM31.6682 13.7998L31.6777 7.31207C31.6777 6.52798 31.4751 5.91462 31.0699 5.47198C30.6647 5.02303 30.1266 4.79855 29.4555 4.79855C28.7907 4.79855 28.2526 5.02619 27.8411 5.48147C27.4296 5.93675 27.2238 6.54062 27.2238 7.2931L26.3311 6.76194C26.3311 6.09799 26.4894 5.5036 26.8059 4.97877C27.1225 4.45393 27.553 4.04292 28.0975 3.74572C28.642 3.4422 29.2592 3.29044 29.9493 3.29044C30.6394 3.29044 31.2409 3.43588 31.7537 3.72675C32.2665 4.01762 32.6622 4.43496 32.9408 4.97877C33.2193 5.51625 33.3586 6.15806 33.3586 6.90421L33.3491 13.7998H31.6682Z" fill="var(--fill-0, #212833)"/>
<path id="Vector_8" d="M17.118 18.3535L19.1028 12.9661L19.1313 14.5595L14.6489 3.55699H16.4248L19.9385 12.4065H19.3307L22.6261 3.55699H24.345L18.7609 18.3535H17.118Z" fill="var(--fill-0, #212833)"/>
<path id="Vector_9" d="M12.2697 13.7998L12.2792 7.24567C12.2792 6.48055 12.0734 5.883 11.6619 5.45301C11.2567 5.01671 10.728 4.79855 10.0759 4.79855C9.69608 4.79855 9.3352 4.88708 8.99332 5.06413C8.65145 5.23486 8.37288 5.50676 8.15762 5.87984C7.94236 6.24659 7.83473 6.71768 7.83473 7.2931L6.94205 6.93267C6.92939 6.20549 7.07817 5.56999 7.38839 5.02619C7.70495 4.47606 8.13546 4.04924 8.67993 3.74572C9.22441 3.4422 9.83853 3.29044 10.5223 3.29044C11.5922 3.29044 12.4343 3.61609 13.0484 4.26739C13.6625 4.91237 13.9696 5.78183 13.9696 6.87576L13.9601 13.7998H12.2697ZM0 13.7998V3.55602H1.50997V6.29718H1.6999V13.7998H0ZM6.14433 13.7998L6.15383 7.31207C6.15383 6.52798 5.95123 5.91462 5.54604 5.47198C5.14085 5.02303 4.60271 4.79855 3.93161 4.79855C3.26685 4.79855 2.7287 5.02619 2.31718 5.48147C1.90566 5.93675 1.6999 6.54062 1.6999 7.2931L0.807215 6.76194C0.807215 6.09799 0.965492 5.5036 1.28205 4.97877C1.5986 4.45393 2.02912 4.04292 2.57359 3.74572C3.11807 3.4422 3.73535 3.29044 4.42544 3.29044C5.11553 3.29044 5.71698 3.43588 6.2298 3.72675C6.74262 4.01762 7.13831 4.43496 7.41688 4.97877C7.69545 5.51625 7.83473 6.15806 7.83473 6.90421L7.82524 13.7998H6.14433Z" fill="var(--fill-0, #212833)"/>
</g>
</svg>
