<svg preserveAspectRatio="none" width="100%" height="100%" overflow="visible" style="display: block;" viewBox="0 0 14 14" fill="none" xmlns="http://www.w3.org/2000/svg">
<g id="arrow-down-tray (1) 1">
<path id="Vector" d="M7.52577 1.92409C7.52577 1.78485 7.47045 1.65131 7.372 1.55286C7.27354 1.4544 7.14 1.39909 7.00077 1.39909C6.86153 1.39909 6.72799 1.4544 6.62953 1.55286C6.53108 1.65131 6.47577 1.78485 6.47577 1.92409V7.95389L4.40727 5.76359C4.36036 5.7118 4.30358 5.6699 4.24026 5.64034C4.17695 5.61078 4.10837 5.59415 4.03855 5.59144C3.96872 5.58873 3.89906 5.59998 3.83365 5.62454C3.76823 5.6491 3.70837 5.68647 3.65758 5.73446C3.6068 5.78245 3.5661 5.8401 3.53788 5.90402C3.50966 5.96795 3.49449 6.03686 3.49325 6.10672C3.49201 6.17659 3.50472 6.246 3.53066 6.31088C3.55659 6.37577 3.59521 6.43482 3.64427 6.48459L6.61927 9.63459C6.66833 9.68649 6.72747 9.72783 6.79307 9.75609C6.85867 9.78435 6.92934 9.79892 7.00077 9.79892C7.07219 9.79892 7.14286 9.78435 7.20846 9.75609C7.27406 9.72783 7.3332 9.68649 7.38227 9.63459L10.3573 6.48459C10.4495 6.38281 10.4981 6.24897 10.4928 6.11175C10.4874 5.97453 10.4286 5.84486 10.3287 5.75055C10.2289 5.65623 10.0961 5.60478 9.95884 5.60722C9.82154 5.60965 9.69066 5.66579 9.59427 5.76359L7.52577 7.95389V1.92409Z" fill="var(--fill-0, #818AA3)"/>
<path id="Vector_2" d="M2.44909 8.92409C2.44909 8.78485 2.39378 8.65131 2.29532 8.55286C2.19686 8.4544 2.06333 8.39909 1.92409 8.39909C1.78485 8.39909 1.65131 8.4544 1.55286 8.55286C1.4544 8.65131 1.39909 8.78485 1.39909 8.92409V10.6741C1.39909 11.1846 1.6019 11.6743 1.96291 12.0353C2.32392 12.3963 2.81355 12.5991 3.32409 12.5991H10.6741C11.1846 12.5991 11.6743 12.3963 12.0353 12.0353C12.3963 11.6743 12.5991 11.1846 12.5991 10.6741V8.92409C12.5991 8.78485 12.5438 8.65131 12.4453 8.55286C12.3469 8.4544 12.2133 8.39909 12.0741 8.39909C11.9349 8.39909 11.8013 8.4544 11.7029 8.55286C11.6044 8.65131 11.5491 8.78485 11.5491 8.92409V10.6741C11.5491 11.1571 11.1571 11.5491 10.6741 11.5491H3.32409C2.84109 11.5491 2.44909 11.1571 2.44909 10.6741V8.92409Z" fill="var(--fill-0, #818AA3)"/>
</g>
</svg>
