<svg preserveAspectRatio="none" overflow="visible" style="display: block;" width="468" height="276" viewBox="0 0 468 276" fill="none" xmlns="http://www.w3.org/2000/svg">
<g id="Frame 337939">
<g clip-path="url(#clip0_0_4)">
<rect width="468" height="276" rx="5.09902" fill="#F7F7F8"/>
<g id="Frame 337541">
</g>
<g id="Frame 2085665602">
<path id="Vector" fill-rule="evenodd" clip-rule="evenodd" d="M262.75 103C265.734 103 268.595 104.185 270.705 106.295C272.815 108.405 274 111.266 274 114.25V120.32C274 122.435 272.615 124.26 270.835 125.415C268.736 126.776 267.011 128.64 265.817 130.838C264.623 133.036 263.998 135.498 264 138C264 143.275 266.72 147.91 270.835 150.585C272.615 151.74 274 153.565 274 155.685V161.75C274 164.734 272.815 167.595 270.705 169.705C268.595 171.815 265.734 173 262.75 173H205.25C202.266 173 199.405 171.815 197.295 169.705C195.185 167.595 194 164.734 194 161.75V155.685C194 153.565 195.385 151.74 197.165 150.585C199.264 149.224 200.989 147.36 202.183 145.162C203.376 142.963 204.001 140.501 204 138C204.002 135.498 203.377 133.036 202.183 130.838C200.989 128.64 199.264 126.776 197.165 125.415C195.385 124.26 194 122.435 194 120.315V114.25C194 111.266 195.185 108.405 197.295 106.295C199.405 104.185 202.266 103 205.25 103H262.75ZM251.5 124.98C251.5 123.985 251.105 123.032 250.402 122.328C249.698 121.625 248.745 121.23 247.75 121.23C246.755 121.23 245.802 121.625 245.098 122.328C244.395 123.032 244 123.985 244 124.98V130.19C244 131.185 244.395 132.138 245.098 132.842C245.802 133.545 246.755 133.94 247.75 133.94C248.745 133.94 249.698 133.545 250.402 132.842C251.105 132.138 251.5 131.185 251.5 130.19V124.98ZM251.5 145.815C251.5 144.82 251.105 143.867 250.402 143.163C249.698 142.46 248.745 142.065 247.75 142.065C246.755 142.065 245.802 142.46 245.098 143.163C244.395 143.867 244 144.82 244 145.815V151.02C244 152.015 244.395 152.968 245.098 153.672C245.802 154.375 246.755 154.77 247.75 154.77C248.745 154.77 249.698 154.375 250.402 153.672C251.105 152.968 251.5 152.015 251.5 151.02V145.815Z" fill="#818AA3"/>
</g>
<g id="Vector_2">
<path fill-rule="evenodd" clip-rule="evenodd" d="M258 103C258 94.1631 265.163 87 274 87C282.837 87 290 94.1631 290 103C290 111.837 282.837 119 274 119C265.163 119 258 111.837 258 103ZM279.924 100.023C280.023 99.892 280.094 99.7424 280.134 99.5833C280.173 99.4242 280.181 99.2587 280.156 99.0966C280.131 98.9345 280.074 98.779 279.988 98.6393C279.902 98.4996 279.789 98.3785 279.655 98.2831C279.522 98.1877 279.371 98.12 279.211 98.0839C279.051 98.0477 278.885 98.044 278.724 98.0728C278.562 98.1016 278.408 98.1623 278.27 98.2515C278.133 98.3408 278.014 98.4566 277.922 98.5922L272.612 106.026L269.947 103.361C269.713 103.144 269.405 103.025 269.086 103.031C268.767 103.037 268.463 103.166 268.237 103.391C268.012 103.617 267.883 103.921 267.877 104.24C267.871 104.559 267.99 104.867 268.207 105.101L271.899 108.793C272.026 108.919 272.178 109.016 272.346 109.078C272.514 109.139 272.693 109.163 272.871 109.149C273.049 109.134 273.221 109.081 273.377 108.993C273.532 108.905 273.666 108.784 273.77 108.639L279.924 100.023Z" fill="#0D9655"/>
<path d="M279.924 100.023C280.023 99.892 280.094 99.7424 280.134 99.5833C280.173 99.4242 280.181 99.2587 280.156 99.0966C280.131 98.9345 280.074 98.779 279.988 98.6393C279.902 98.4996 279.789 98.3785 279.655 98.2831C279.522 98.1877 279.371 98.12 279.211 98.0839C279.051 98.0477 278.885 98.044 278.724 98.0728C278.562 98.1016 278.408 98.1623 278.27 98.2515C278.133 98.3408 278.014 98.4566 277.922 98.5922L272.612 106.026L269.947 103.361C269.713 103.144 269.405 103.025 269.086 103.031C268.767 103.037 268.463 103.166 268.237 103.391C268.012 103.617 267.883 103.921 267.877 104.24C267.871 104.559 267.99 104.867 268.207 105.101L271.899 108.793C272.026 108.919 272.178 109.016 272.346 109.078C272.514 109.139 272.693 109.163 272.871 109.149C273.049 109.134 273.221 109.081 273.377 108.993C273.532 108.905 273.666 108.784 273.77 108.639L279.924 100.023Z" fill="#F7F7F8"/>
<path d="M274 85.5C283.665 85.5 291.5 93.3346 291.5 103C291.5 112.665 283.665 120.5 274 120.5C264.335 120.5 256.5 112.665 256.5 103C256.5 93.3346 264.335 85.5 274 85.5Z" stroke="#F7F7F8" stroke-width="3"/>
</g>
</g>
</g>
<defs>
<clipPath id="clip0_0_4">
<rect width="468" height="276" rx="5.09902" fill="white"/>
</clipPath>
</defs>
</svg>
