<svg preserveAspectRatio="xMidYMid meet" width="100%" height="100%" overflow="visible" style="display: block;" viewBox="0 0 32 32" fill="none" xmlns="http://www.w3.org/2000/svg">
<g id="Frame" opacity="0">
<path id="Vector" fill-rule="evenodd" clip-rule="evenodd" d="M8.22 5.22C8.36063 5.07955 8.55125 5.00066 8.75 5.00066C8.94875 5.00066 9.13937 5.07955 9.28 5.22L13.53 9.47C13.6705 9.61063 13.7493 9.80125 13.7493 10C13.7493 10.1988 13.6705 10.3894 13.53 10.53L9.28 14.78C9.13782 14.9125 8.94978 14.9846 8.75548 14.9812C8.56118 14.9777 8.37579 14.899 8.23838 14.7616C8.10097 14.6242 8.02225 14.4388 8.01882 14.2445C8.0154 14.0502 8.08752 13.8622 8.22 13.72L11.94 10L8.22 6.28C8.07955 6.13937 8.00066 5.94875 8.00066 5.75C8.00066 5.55125 8.07955 5.36063 8.22 5.22Z" fill="var(--fill-0, #818AA3)"/>
</g>
</svg>
