<svg preserveAspectRatio="xMidYMid meet" width="100%" height="100%" overflow="visible" style="display: block;" viewBox="0 0 12 12" fill="none" xmlns="http://www.w3.org/2000/svg">
<g id="Frame">
<path id="Vector" fill-rule="evenodd" clip-rule="evenodd" d="M7.47425 8.26924C6.71279 8.83019 5.7675 9.08271 4.82775 8.9762C3.888 8.86969 3.02319 8.41203 2.4066 7.69489C1.79 6.97776 1.46714 6.05412 1.50271 5.10902C1.53828 4.16392 1.92965 3.26716 2.59841 2.59841C3.26717 1.92965 4.16392 1.53828 5.10902 1.50271C6.05412 1.46714 6.97776 1.78999 7.69489 2.40659C8.41203 3.02319 8.86969 3.888 8.9762 4.82775C9.08271 5.7675 8.8302 6.71279 8.26925 7.47424L10.3355 9.53974C10.3908 9.59124 10.4351 9.65334 10.4658 9.72234C10.4966 9.79134 10.5131 9.86582 10.5144 9.94135C10.5158 10.0169 10.5019 10.0919 10.4736 10.1619C10.4453 10.232 10.4032 10.2956 10.3498 10.349C10.2964 10.4024 10.2327 10.4445 10.1627 10.4728C10.0927 10.5011 10.0176 10.515 9.9421 10.5137C9.86658 10.5124 9.79209 10.4958 9.72309 10.4651C9.65409 10.4343 9.59199 10.39 9.5405 10.3347L7.47425 8.26924ZM7.8755 5.24974C7.8755 5.94594 7.59893 6.61362 7.10665 7.1059C6.61437 7.59818 5.94669 7.87474 5.2505 7.87474C4.5543 7.87474 3.88662 7.59818 3.39434 7.1059C2.90206 6.61362 2.6255 5.94594 2.6255 5.24974C2.6255 4.55355 2.90206 3.88587 3.39434 3.39359C3.88662 2.90131 4.5543 2.62474 5.2505 2.62474C5.94669 2.62474 6.61437 2.90131 7.10665 3.39359C7.59893 3.88587 7.8755 4.55355 7.8755 5.24974Z" fill="var(--fill-0, #0138C7)"/>
</g>
</svg>
