<svg preserveAspectRatio="xMidYMid meet" width="100%" height="100%" overflow="visible" style="display: block;" viewBox="0 0 12 12" fill="none" xmlns="http://www.w3.org/2000/svg">
<g id="Frame">
<path id="Vector" d="M10.4979 1.50011C10.4979 1.3012 10.4188 1.11044 10.2782 0.969784C10.1375 0.829132 9.94677 0.750115 9.74786 0.750115L2.24786 0.750115C2.04894 0.750115 1.85818 0.829132 1.71753 0.969784C1.57687 1.11044 1.49786 1.3012 1.49786 1.50011V3.12911C1.49794 3.52691 1.65603 3.90838 1.93736 4.18961L4.05836 6.31061C4.33968 6.59185 4.49777 6.97332 4.49786 7.37111V10.6434C4.49786 10.7073 4.51421 10.7702 4.54537 10.826C4.57652 10.8819 4.62144 10.9288 4.67585 10.9624C4.73026 10.996 4.79236 11.0152 4.85625 11.018C4.92014 11.0208 4.98368 11.0073 5.04086 10.9786L6.66836 10.1649C6.9177 10.0403 7.1274 9.84865 7.27392 9.61152C7.42044 9.37438 7.49799 9.10111 7.49786 8.82236V7.37186C7.49794 6.97407 7.65603 6.5926 7.93736 6.31136L10.0584 4.19036C10.1977 4.05102 10.3083 3.88557 10.3837 3.70348C10.4591 3.52138 10.4979 3.32621 10.4979 3.12911V1.50011Z" fill="var(--fill-0, #0D9655)"/>
</g>
</svg>
