<svg preserveAspectRatio="none" width="100%" height="100%" overflow="visible" style="display: block;" viewBox="0 0 16 16" fill="none" xmlns="http://www.w3.org/2000/svg">
<g id="Frame">
<path id="Vector" fill-rule="evenodd" clip-rule="evenodd" d="M2.8 1.6C2.48174 1.6 2.17652 1.72643 1.95147 1.95147C1.72643 2.17652 1.6 2.48174 1.6 2.8V12C1.6 12.6365 1.85286 13.247 2.30294 13.6971C2.75303 14.1471 3.36348 14.4 4 14.4C4.63652 14.4 5.24697 14.1471 5.69706 13.6971C6.14714 13.247 6.4 12.6365 6.4 12V2.8C6.4 2.48174 6.27357 2.17652 6.04853 1.95147C5.82348 1.72643 5.51826 1.6 5.2 1.6H2.8ZM12.2024 7.192L7.6 11.7944V5.0056L8.808 3.7976C8.91944 3.68609 9.05176 3.59763 9.1974 3.53727C9.34304 3.47692 9.49915 3.44586 9.6568 3.44586C9.81445 3.44586 9.97056 3.47692 10.1162 3.53727C10.2618 3.59763 10.3942 3.68609 10.5056 3.7976L12.2024 5.4944C12.3139 5.60584 12.4024 5.73816 12.4627 5.8838C12.5231 6.02944 12.5541 6.18555 12.5541 6.3432C12.5541 6.50085 12.5231 6.65696 12.4627 6.8026C12.4024 6.94824 12.3139 7.08056 12.2024 7.192ZM6.6912 14.4H13.2C13.5183 14.4 13.8235 14.2736 14.0485 14.0485C14.2736 13.8235 14.4 13.5183 14.4 13.2V10.8C14.4 10.4817 14.2736 10.1765 14.0485 9.95147C13.8235 9.72643 13.5183 9.6 13.2 9.6H11.4912L6.6912 14.4ZM4 12.8C4.21217 12.8 4.41566 12.7157 4.56569 12.5657C4.71571 12.4157 4.8 12.2122 4.8 12C4.8 11.7878 4.71571 11.5843 4.56569 11.4343C4.41566 11.2843 4.21217 11.2 4 11.2C3.78783 11.2 3.58434 11.2843 3.43431 11.4343C3.28429 11.5843 3.2 11.7878 3.2 12C3.2 12.2122 3.28429 12.4157 3.43431 12.5657C3.58434 12.7157 3.78783 12.8 4 12.8Z" fill="var(--fill-0, #818AA3)"/>
</g>
</svg>
