<svg preserveAspectRatio="none" width="100%" height="100%" overflow="visible" style="display: block;" viewBox="0 0 16 16" fill="none" xmlns="http://www.w3.org/2000/svg">
<g id="Frame">
<path id="Vector" fill-rule="evenodd" clip-rule="evenodd" d="M3.77547 7.57847C3.66311 7.69097 3.6 7.84347 3.6 8.00247C3.6 8.16147 3.66311 8.31397 3.77547 8.42647L7.17547 11.8265C7.2304 11.8854 7.29664 11.9327 7.37024 11.9655C7.44384 11.9983 7.52329 12.0159 7.60385 12.0173C7.68442 12.0188 7.76444 12.0039 7.83915 11.9738C7.91386 11.9436 7.98173 11.8987 8.0387 11.8417C8.09568 11.7847 8.14059 11.7169 8.17077 11.6421C8.20095 11.5674 8.21577 11.4874 8.21435 11.4068C8.21292 11.3263 8.19529 11.2468 8.1625 11.1732C8.1297 11.0996 8.08242 11.0334 8.02347 10.9785L5.04747 8.00247L8.02347 5.02647C8.08242 4.97154 8.1297 4.9053 8.1625 4.8317C8.19529 4.7581 8.21292 4.67865 8.21435 4.59808C8.21577 4.51752 8.20095 4.4375 8.17077 4.36279C8.14059 4.28808 8.09568 4.22021 8.0387 4.16324C7.98173 4.10626 7.91386 4.06135 7.83915 4.03117C7.76444 4.00099 7.68442 3.98617 7.60385 3.98759C7.52329 3.98901 7.44384 4.00665 7.37024 4.03944C7.29664 4.07224 7.2304 4.11952 7.17547 4.17847L3.77547 7.57847ZM11.1755 4.17847L7.77547 7.57847C7.66311 7.69097 7.6 7.84347 7.6 8.00247C7.6 8.16147 7.66311 8.31397 7.77547 8.42647L11.1755 11.8265C11.2304 11.8854 11.2966 11.9327 11.3702 11.9655C11.4438 11.9983 11.5233 12.0159 11.6039 12.0173C11.6844 12.0188 11.7644 12.0039 11.8392 11.9738C11.9139 11.9436 11.9817 11.8987 12.0387 11.8417C12.0957 11.7847 12.1406 11.7169 12.1708 11.6421C12.2009 11.5674 12.2158 11.4874 12.2143 11.4068C12.2129 11.3263 12.1953 11.2468 12.1625 11.1732C12.1297 11.0996 12.0824 11.0334 12.0235 10.9785L9.04747 8.00247L12.0235 5.02647C12.1295 4.91273 12.1872 4.76229 12.1844 4.60685C12.1817 4.45141 12.1187 4.3031 12.0088 4.19317C11.8988 4.08324 11.7505 4.02027 11.5951 4.01753C11.4396 4.01478 11.2892 4.07248 11.1755 4.17847Z" fill="var(--fill-0, #818AA3)"/>
</g>
</svg>
