<svg preserveAspectRatio="none" width="100%" height="100%" overflow="visible" style="display: block;" viewBox="0 0 16 16" fill="none" xmlns="http://www.w3.org/2000/svg">
<g id="Frame">
<path id="Vector" fill-rule="evenodd" clip-rule="evenodd" d="M11.2 4.80001C11.3576 4.58989 11.4722 4.3508 11.5374 4.09637C11.6026 3.84194 11.617 3.57717 11.5799 3.31717C11.5428 3.05716 11.4548 2.80702 11.3209 2.58102C11.1871 2.35502 11.0101 2.15759 10.8 2.00001C10.5899 1.84242 10.3508 1.72776 10.0964 1.66258C9.84194 1.5974 9.57716 1.58297 9.31716 1.62011C9.05715 1.65725 8.80701 1.74524 8.58101 1.87906C8.35501 2.01287 8.15759 2.18989 8 2.40001C7.68174 1.97566 7.20794 1.69512 6.68284 1.62011C6.15774 1.54509 5.62435 1.68175 5.2 2.00001C4.77565 2.31827 4.49512 2.79206 4.4201 3.31717C4.34509 3.84227 4.48174 4.37566 4.8 4.80001H2.6C2.048 4.80001 1.6 5.24801 1.6 5.80001V6.20001C1.6 6.75201 2.048 7.20001 2.6 7.20001H7.4V4.80001H8.6V7.20001H13.4C13.952 7.20001 14.4 6.75201 14.4 6.20001V5.80001C14.4 5.24801 13.952 4.80001 13.4 4.80001H11.2ZM10.4 3.60001C10.4 3.81218 10.3157 4.01566 10.1657 4.16569C10.0157 4.31572 9.81217 4.40001 9.6 4.40001H8.8V3.60001C8.8 3.38784 8.88429 3.18435 9.03431 3.03432C9.18434 2.88429 9.38783 2.80001 9.6 2.80001C9.81217 2.80001 10.0157 2.88429 10.1657 3.03432C10.3157 3.18435 10.4 3.38784 10.4 3.60001ZM5.6 3.60001C5.6 3.81218 5.68429 4.01566 5.83431 4.16569C5.98434 4.31572 6.18783 4.40001 6.4 4.40001H7.2V3.60001C7.2 3.38784 7.11571 3.18435 6.96569 3.03432C6.81566 2.88429 6.61217 2.80001 6.4 2.80001C6.18783 2.80001 5.98434 2.88429 5.83431 3.03432C5.68429 3.18435 5.6 3.38784 5.6 3.60001Z" fill="var(--fill-0, #818AA3)"/>
<path id="Vector_2" d="M7.4 8.4H2.4V12.2C2.4 12.7835 2.63179 13.3431 3.04437 13.7556C3.45695 14.1682 4.01652 14.4 4.6 14.4H7.4V8.4ZM8.6 14.4V8.4H13.6V12.2C13.6 12.7835 13.3682 13.3431 12.9556 13.7556C12.5431 14.1682 11.9835 14.4 11.4 14.4H8.6Z" fill="var(--fill-0, #818AA3)"/>
</g>
</svg>
