<svg width="16" height="16" viewBox="0 0 16 16" fill="none" xmlns="http://www.w3.org/2000/svg">
<path fill-rule="evenodd" clip-rule="evenodd" d="M3.4001 1.6C2.92271 1.6 2.46487 1.78964 2.12731 2.12721C1.78974 2.46477 1.6001 2.92261 1.6001 3.4V5.4C1.6001 5.87739 1.78974 6.33523 2.12731 6.67279C2.46487 7.01036 2.92271 7.2 3.4001 7.2H5.4001C5.87749 7.2 6.33532 7.01036 6.67289 6.67279C7.01046 6.33523 7.2001 5.87739 7.2001 5.4V3.4C7.2001 2.92261 7.01046 2.46477 6.67289 2.12721C6.33532 1.78964 5.87749 1.6 5.4001 1.6H3.4001ZM3.4001 8.8C2.92271 8.8 2.46487 8.98964 2.12731 9.32721C1.78974 9.66477 1.6001 10.1226 1.6001 10.6V12.6C1.6001 13.0774 1.78974 13.5352 2.12731 13.8728C2.46487 14.2104 2.92271 14.4 3.4001 14.4H5.4001C5.87749 14.4 6.33532 14.2104 6.67289 13.8728C7.01046 13.5352 7.2001 13.0774 7.2001 12.6V10.6C7.2001 10.1226 7.01046 9.66477 6.67289 9.32721C6.33532 8.98964 5.87749 8.8 5.4001 8.8H3.4001ZM10.6001 1.6C10.1227 1.6 9.66487 1.78964 9.32731 2.12721C8.98974 2.46477 8.8001 2.92261 8.8001 3.4V5.4C8.8001 5.87739 8.98974 6.33523 9.32731 6.67279C9.66487 7.01036 10.1227 7.2 10.6001 7.2H12.6001C13.0775 7.2 13.5353 7.01036 13.8729 6.67279C14.2105 6.33523 14.4001 5.87739 14.4001 5.4V3.4C14.4001 2.92261 14.2105 2.46477 13.8729 2.12721C13.5353 1.78964 13.0775 1.6 12.6001 1.6H10.6001ZM10.6001 8.8C10.1227 8.8 9.66487 8.98964 9.32731 9.32721C8.98974 9.66477 8.8001 10.1226 8.8001 10.6V12.6C8.8001 13.0774 8.98974 13.5352 9.32731 13.8728C9.66487 14.2104 10.1227 14.4 10.6001 14.4H12.6001C13.0775 14.4 13.5353 14.2104 13.8729 13.8728C14.2105 13.5352 14.4001 13.0774 14.4001 12.6V10.6C14.4001 10.1226 14.2105 9.66477 13.8729 9.32721C13.5353 8.98964 13.0775 8.8 12.6001 8.8H10.6001Z" fill="#818AA3"/>
</svg>
