<svg preserveAspectRatio="none" width="100%" height="100%" overflow="visible" style="display: block;" viewBox="0 0 16 16" fill="none" xmlns="http://www.w3.org/2000/svg">
<g id="Frame">
<path id="Vector" d="M7.99995 4C7.99995 4.31517 7.93787 4.62726 7.81726 4.91844C7.69665 5.20962 7.51986 5.4742 7.297 5.69706C7.07414 5.91992 6.80957 6.0967 6.51839 6.21731C6.22721 6.33792 5.91512 6.4 5.59995 6.4C5.28478 6.4 4.97269 6.33792 4.68151 6.21731C4.39033 6.0967 4.12575 5.91992 3.90289 5.69706C3.68003 5.4742 3.50325 5.20962 3.38264 4.91844C3.26203 4.62726 3.19995 4.31517 3.19995 4C3.19995 3.36348 3.4528 2.75303 3.90289 2.30294C4.35298 1.85286 4.96343 1.6 5.59995 1.6C6.23647 1.6 6.84692 1.85286 7.297 2.30294C7.74709 2.75303 7.99995 3.36348 7.99995 4ZM1.29195 13.1424C1.1351 13.0446 1.00911 12.9045 0.928561 12.7382C0.84801 12.5718 0.816179 12.3861 0.836748 12.2024C0.984232 11.0432 1.54935 9.97765 2.4262 9.2053C3.30305 8.43294 4.43145 8.00684 5.59995 8.00684C6.76845 8.00684 7.89685 8.43294 8.7737 9.2053C9.65055 9.97765 10.2157 11.0432 10.3631 12.2024C10.4095 12.576 10.2255 12.9384 9.90715 13.1416C8.62174 13.9653 7.12663 14.4021 5.59995 14.4C4.07307 14.4025 2.57767 13.966 1.29195 13.1424ZM12.9999 4.6C12.9999 4.44087 12.9367 4.28826 12.8242 4.17574C12.7117 4.06321 12.5591 4 12.3999 4C12.2408 4 12.0882 4.06321 11.9757 4.17574C11.8632 4.28826 11.7999 4.44087 11.7999 4.6V6.2H10.1999C10.0408 6.2 9.88821 6.26321 9.77568 6.37574C9.66316 6.48826 9.59995 6.64087 9.59995 6.8C9.59995 6.95913 9.66316 7.11174 9.77568 7.22426C9.88821 7.33679 10.0408 7.4 10.1999 7.4H11.7999V9C11.7999 9.15913 11.8632 9.31174 11.9757 9.42426C12.0882 9.53679 12.2408 9.6 12.3999 9.6C12.5591 9.6 12.7117 9.53679 12.8242 9.42426C12.9367 9.31174 12.9999 9.15913 12.9999 9V7.4H14.5999C14.7591 7.4 14.9117 7.33679 15.0242 7.22426C15.1367 7.11174 15.1999 6.95913 15.1999 6.8C15.1999 6.64087 15.1367 6.48826 15.0242 6.37574C14.9117 6.26321 14.7591 6.2 14.5999 6.2H12.9999V4.6Z" fill="var(--fill-0, #818AA3)"/>
</g>
</svg>
