<svg preserveAspectRatio="none" width="100%" height="100%" overflow="visible" style="display: block;" viewBox="0 0 16 16" fill="none" xmlns="http://www.w3.org/2000/svg">
<g id="Frame">
<path id="Vector" fill-rule="evenodd" clip-rule="evenodd" d="M13.6 3.4C13.6 2.92261 13.4104 2.46477 13.0728 2.12721C12.7352 1.78964 12.2774 1.6 11.8 1.6H7.4C6.92261 1.6 6.46477 1.78964 6.12721 2.12721C5.78964 2.46477 5.6 2.92261 5.6 3.4V5C5.6 5.15913 5.66321 5.31174 5.77574 5.42426C5.88826 5.53679 6.04087 5.6 6.2 5.6C6.35913 5.6 6.51174 5.53679 6.62426 5.42426C6.73679 5.31174 6.8 5.15913 6.8 5V3.4C6.8 3.24087 6.86321 3.08826 6.97574 2.97574C7.08826 2.86321 7.24087 2.8 7.4 2.8H11.8C11.9591 2.8 12.1117 2.86321 12.2243 2.97574C12.3368 3.08826 12.4 3.24087 12.4 3.4V12.6C12.4 12.7591 12.3368 12.9117 12.2243 13.0243C12.1117 13.1368 11.9591 13.2 11.8 13.2H7.4C7.24087 13.2 7.08826 13.1368 6.97574 13.0243C6.86321 12.9117 6.8 12.7591 6.8 12.6V11C6.8 10.8409 6.73679 10.6883 6.62426 10.5757C6.51174 10.4632 6.35913 10.4 6.2 10.4C6.04087 10.4 5.88826 10.4632 5.77574 10.5757C5.66321 10.6883 5.6 10.8409 5.6 11V12.6C5.6 13.0774 5.78964 13.5352 6.12721 13.8728C6.46477 14.2104 6.92261 14.4 7.4 14.4H11.8C12.2774 14.4 12.7352 14.2104 13.0728 13.8728C13.4104 13.5352 13.6 13.0774 13.6 12.6V3.4Z" fill="var(--fill-0, #CC3333)"/>
<path id="Vector_2" fill-rule="evenodd" clip-rule="evenodd" d="M11.1998 8.00217C11.1998 7.84304 11.1366 7.69043 11.0241 7.5779C10.9115 7.46538 10.7589 7.40217 10.5998 7.40217H2.963L3.8014 6.64777C3.86183 6.59556 3.91122 6.53182 3.94669 6.46028C3.98216 6.38874 4.003 6.31084 4.00798 6.23115C4.01295 6.15145 4.00197 6.07156 3.97568 5.99616C3.94938 5.92077 3.9083 5.85138 3.85484 5.79206C3.80138 5.73275 3.73662 5.6847 3.66435 5.65073C3.59209 5.61677 3.51377 5.59757 3.43398 5.59426C3.3542 5.59096 3.27456 5.60361 3.19973 5.63148C3.1249 5.65935 3.05639 5.70188 2.9982 5.75657L0.998204 7.55657C0.935811 7.61283 0.885929 7.68156 0.851786 7.75832C0.817643 7.83508 0.8 7.91816 0.8 8.00217C0.8 8.08618 0.817643 8.16925 0.851786 8.24601C0.885929 8.32277 0.935811 8.39151 0.998204 8.44777L2.9982 10.2478C3.05639 10.3025 3.1249 10.345 3.19973 10.3729C3.27456 10.4007 3.3542 10.4134 3.43398 10.4101C3.51377 10.4068 3.59209 10.3876 3.66435 10.3536C3.73662 10.3196 3.80138 10.2716 3.85484 10.2123C3.9083 10.153 3.94938 10.0836 3.97568 10.0082C4.00197 9.93277 4.01295 9.85288 4.00798 9.77319C4.003 9.69349 3.98216 9.61559 3.94669 9.54405C3.91122 9.47251 3.86183 9.40877 3.8014 9.35657L2.963 8.60217H10.5998C10.6786 8.60217 10.7566 8.58665 10.8294 8.55649C10.9022 8.52634 10.9684 8.48215 11.0241 8.42643C11.0798 8.37072 11.124 8.30457 11.1541 8.23178C11.1843 8.15898 11.1998 8.08096 11.1998 8.00217Z" fill="var(--fill-0, #CC3333)"/>
</g>
</svg>
