<svg preserveAspectRatio="none" width="100%" height="100%" overflow="visible" style="display: block;" viewBox="0 0 16 16" fill="none" xmlns="http://www.w3.org/2000/svg">
<g id="Frame 337383">
<path id="Vector" fill-rule="evenodd" clip-rule="evenodd" d="M3.4 1.6C2.92261 1.6 2.46477 1.78964 2.12721 2.12721C1.78964 2.46477 1.6 2.92261 1.6 3.4V5.4C1.6 5.87739 1.78964 6.33523 2.12721 6.67279C2.46477 7.01036 2.92261 7.2 3.4 7.2H5.4C5.87739 7.2 6.33523 7.01036 6.67279 6.67279C7.01036 6.33523 7.2 5.87739 7.2 5.4V3.4C7.2 2.92261 7.01036 2.46477 6.67279 2.12721C6.33523 1.78964 5.87739 1.6 5.4 1.6H3.4ZM3.4 8.8C2.92261 8.8 2.46477 8.98964 2.12721 9.32721C1.78964 9.66477 1.6 10.1226 1.6 10.6V12.6C1.6 13.0774 1.78964 13.5352 2.12721 13.8728C2.46477 14.2104 2.92261 14.4 3.4 14.4H5.4C5.87739 14.4 6.33523 14.2104 6.67279 13.8728C7.01036 13.5352 7.2 13.0774 7.2 12.6V10.6C7.2 10.1226 7.01036 9.66477 6.67279 9.32721C6.33523 8.98964 5.87739 8.8 5.4 8.8H3.4ZM10.6 1.6C10.1226 1.6 9.66477 1.78964 9.32721 2.12721C8.98964 2.46477 8.8 2.92261 8.8 3.4V5.4C8.8 5.87739 8.98964 6.33523 9.32721 6.67279C9.66477 7.01036 10.1226 7.2 10.6 7.2H12.6C13.0774 7.2 13.5352 7.01036 13.8728 6.67279C14.2104 6.33523 14.4 5.87739 14.4 5.4V3.4C14.4 2.92261 14.2104 2.46477 13.8728 2.12721C13.5352 1.78964 13.0774 1.6 12.6 1.6H10.6ZM10.6 8.8C10.1226 8.8 9.66477 8.98964 9.32721 9.32721C8.98964 9.66477 8.8 10.1226 8.8 10.6V12.6C8.8 13.0774 8.98964 13.5352 9.32721 13.8728C9.66477 14.2104 10.1226 14.4 10.6 14.4H12.6C13.0774 14.4 13.5352 14.2104 13.8728 13.8728C14.2104 13.5352 14.4 13.0774 14.4 12.6V10.6C14.4 10.1226 14.2104 9.66477 13.8728 9.32721C13.5352 8.98964 13.0774 8.8 12.6 8.8H10.6Z" fill="var(--fill-0, #818AA3)"/>
</g>
</svg>
