<svg width="16" height="16" viewBox="0 0 16 16" fill="none" xmlns="http://www.w3.org/2000/svg">
<path d="M4.1014 2.8016L4.1998 2.8H11.7998C11.8326 2.8 11.8654 2.8 11.8982 2.8016C11.7742 2.45021 11.5443 2.14593 11.2401 1.93072C10.9359 1.7155 10.5724 1.59995 10.1998 1.6H5.7998C5.42715 1.59984 5.06364 1.71534 4.75942 1.93057C4.45521 2.1458 4.22529 2.45014 4.1014 2.8016ZM0.799805 8.2C0.799805 7.72261 0.989447 7.26477 1.32701 6.92721C1.66458 6.58964 2.12241 6.4 2.5998 6.4H13.3998C13.6362 6.4 13.8702 6.44656 14.0886 6.53702C14.307 6.62747 14.5055 6.76006 14.6726 6.92721C14.8397 7.09435 14.9723 7.29278 15.0628 7.51117C15.1532 7.72955 15.1998 7.96362 15.1998 8.2V12.6C15.1998 12.8364 15.1532 13.0704 15.0628 13.2888C14.9723 13.5072 14.8397 13.7056 14.6726 13.8728C14.5055 14.0399 14.307 14.1725 14.0886 14.263C13.8702 14.3534 13.6362 14.4 13.3998 14.4H2.5998C2.12241 14.4 1.66458 14.2104 1.32701 13.8728C0.989447 13.5352 0.799805 13.0774 0.799805 12.6V8.2ZM2.5998 5.2C2.5678 5.2 2.5342 5.2 2.5014 5.2016C2.62529 4.85014 2.85521 4.5458 3.15942 4.33057C3.46364 4.11534 3.82715 3.99984 4.1998 4H11.7998C12.5838 4 13.251 4.5016 13.4982 5.2016C13.4654 5.20054 13.4326 5.2 13.3998 5.2H2.5998Z" fill="#818AA3"/>
</svg>
