<svg width="16" height="16" viewBox="0 0 16 16" fill="none" xmlns="http://www.w3.org/2000/svg">
<path fill-rule="evenodd" clip-rule="evenodd" d="M1.59961 3.8C1.59961 3.64087 1.66282 3.48826 1.77535 3.37574C1.88787 3.26321 2.04048 3.2 2.19961 3.2H13.7996C13.9587 3.2 14.1114 3.26321 14.2239 3.37574C14.3364 3.48826 14.3996 3.64087 14.3996 3.8C14.3996 3.95913 14.3364 4.11174 14.2239 4.22426C14.1114 4.33679 13.9587 4.4 13.7996 4.4H2.19961C2.04048 4.4 1.88787 4.33679 1.77535 4.22426C1.66282 4.11174 1.59961 3.95913 1.59961 3.8ZM1.59961 8C1.59961 7.84087 1.66282 7.68826 1.77535 7.57574C1.88787 7.46322 2.04048 7.4 2.19961 7.4H13.7996C13.9587 7.4 14.1114 7.46322 14.2239 7.57574C14.3364 7.68826 14.3996 7.84087 14.3996 8C14.3996 8.15913 14.3364 8.31174 14.2239 8.42426C14.1114 8.53679 13.9587 8.6 13.7996 8.6H2.19961C2.04048 8.6 1.88787 8.53679 1.77535 8.42426C1.66282 8.31174 1.59961 8.15913 1.59961 8ZM1.59961 12.2C1.59961 12.0409 1.66282 11.8883 1.77535 11.7757C1.88787 11.6632 2.04048 11.6 2.19961 11.6H13.7996C13.9587 11.6 14.1114 11.6632 14.2239 11.7757C14.3364 11.8883 14.3996 12.0409 14.3996 12.2C14.3996 12.3591 14.3364 12.5117 14.2239 12.6243C14.1114 12.7368 13.9587 12.8 13.7996 12.8H2.19961C2.04048 12.8 1.88787 12.7368 1.77535 12.6243C1.66282 12.5117 1.59961 12.3591 1.59961 12.2Z" fill="#818AA3"/>
</svg>
