<svg preserveAspectRatio="none" width="100%" height="100%" overflow="visible" style="display: block;" viewBox="0 0 16 16" fill="none" xmlns="http://www.w3.org/2000/svg">
<g id="Frame">
<path id="Vector" d="M8.6 3.8C8.6 3.64087 8.53679 3.48826 8.42426 3.37574C8.31174 3.26321 8.15913 3.2 8 3.2C7.84087 3.2 7.68826 3.26321 7.57574 3.37574C7.46321 3.48826 7.4 3.64087 7.4 3.8V7.4H3.8C3.64087 7.4 3.48826 7.46321 3.37574 7.57574C3.26321 7.68826 3.2 7.84087 3.2 8C3.2 8.15913 3.26321 8.31174 3.37574 8.42426C3.48826 8.53679 3.64087 8.6 3.8 8.6H7.4V12.2C7.4 12.3591 7.46321 12.5117 7.57574 12.6243C7.68826 12.7368 7.84087 12.8 8 12.8C8.15913 12.8 8.31174 12.7368 8.42426 12.6243C8.53679 12.5117 8.6 12.3591 8.6 12.2V8.6H12.2C12.3591 8.6 12.5117 8.53679 12.6243 8.42426C12.7368 8.31174 12.8 8.15913 12.8 8C12.8 7.84087 12.7368 7.68826 12.6243 7.57574C12.5117 7.46321 12.3591 7.4 12.2 7.4H8.6V3.8Z" fill="var(--fill-0, #818AA3)"/>
</g>
</svg>
