<svg preserveAspectRatio="none" width="100%" height="100%" overflow="visible" style="display: block;" viewBox="0 0 16 16" fill="none" xmlns="http://www.w3.org/2000/svg">
<g id="Frame">
<path id="Vector" d="M0.8 3.4C1.31882 3.00965 1.95073 2.79901 2.6 2.8H13.4C14.0752 2.8 14.6984 3.0232 15.2 3.4C15.2 3.16362 15.1534 2.92956 15.063 2.71117C14.9725 2.49278 14.8399 2.29435 14.6728 2.12721C14.5056 1.96006 14.3072 1.82748 14.0888 1.73702C13.8704 1.64656 13.6364 1.6 13.4 1.6H2.6C2.12261 1.6 1.66477 1.78964 1.32721 2.12721C0.989642 2.46477 0.8 2.92261 0.8 3.4ZM0.8 5.8C1.31882 5.40965 1.95073 5.19901 2.6 5.2H13.4C14.0752 5.2 14.6984 5.4232 15.2 5.8C15.2 5.56362 15.1534 5.32956 15.063 5.11117C14.9725 4.89278 14.8399 4.69435 14.6728 4.52721C14.5056 4.36006 14.3072 4.22748 14.0888 4.13702C13.8704 4.04656 13.6364 4 13.4 4H2.6C2.12261 4 1.66477 4.18964 1.32721 4.52721C0.989642 4.86477 0.8 5.32261 0.8 5.8ZM5.6 6.4C5.81217 6.4 6.01566 6.48429 6.16568 6.63431C6.31571 6.78434 6.4 6.98783 6.4 7.2C6.4 7.62435 6.56857 8.03131 6.86863 8.33137C7.16869 8.63143 7.57565 8.8 8 8.8C8.42435 8.8 8.83131 8.63143 9.13137 8.33137C9.43143 8.03131 9.6 7.62435 9.6 7.2C9.6 6.98783 9.68429 6.78434 9.83431 6.63431C9.98434 6.48429 10.1878 6.4 10.4 6.4H13.4C13.6364 6.4 13.8704 6.44656 14.0888 6.53702C14.3072 6.62748 14.5056 6.76006 14.6728 6.92721C14.8399 7.09435 14.9725 7.29278 15.063 7.51117C15.1534 7.72956 15.2 7.96362 15.2 8.2V12.6C15.2 12.8364 15.1534 13.0704 15.063 13.2888C14.9725 13.5072 14.8399 13.7056 14.6728 13.8728C14.5056 14.0399 14.3072 14.1725 14.0888 14.263C13.8704 14.3534 13.6364 14.4 13.4 14.4H2.6C2.12261 14.4 1.66477 14.2104 1.32721 13.8728C0.989642 13.5352 0.8 13.0774 0.8 12.6V8.2C0.8 7.72261 0.989642 7.26477 1.32721 6.92721C1.66477 6.58964 2.12261 6.4 2.6 6.4H5.6Z" fill="var(--fill-0, #818AA3)"/>
</g>
</svg>
