<svg preserveAspectRatio="none" width="100%" height="100%" overflow="visible" style="display: block;" viewBox="0 0 16 16" fill="none" xmlns="http://www.w3.org/2000/svg">
<g id="Frame">
<g id="Vector">
<path d="M6.81152 2.00391C8.07166 1.95648 9.30359 2.38685 10.2598 3.20898C11.2158 4.03101 11.8257 5.18374 11.9678 6.43652C12.1098 7.68953 11.7733 8.95055 11.0254 9.96582L13.7803 12.7197C13.8539 12.7883 13.9131 12.871 13.9541 12.9629C13.9951 13.0548 14.0177 13.1542 14.0195 13.2549C14.0213 13.3555 14.0025 13.4555 13.9648 13.5488C13.9271 13.6422 13.871 13.7276 13.7998 13.7988C13.7286 13.87 13.6432 13.9261 13.5498 13.9639C13.4565 14.0015 13.3564 14.0203 13.2559 14.0186C13.1552 14.0168 13.0558 13.9941 12.9639 13.9531C12.872 13.9121 12.7893 13.8529 12.7207 13.7793L9.96582 11.0254C8.95055 11.7733 7.68953 12.1098 6.43652 11.9678C5.18374 11.8257 4.03101 11.2158 3.20898 10.2598C2.38685 9.30359 1.95648 8.07166 2.00391 6.81152C2.05144 5.55156 2.57327 4.35642 3.46484 3.46484C4.35642 2.57327 5.55155 2.05144 6.81152 2.00391ZM7.00098 3.5C6.07272 3.5 5.18177 3.86804 4.52539 4.52441C3.86902 5.18079 3.50098 6.07175 3.50098 7C3.50109 7.92807 3.86916 8.81834 4.52539 9.47461C5.18177 10.131 6.07272 10.5 7.00098 10.5C7.92909 10.4999 8.8193 10.1309 9.47559 9.47461C10.1319 8.81833 10.5009 7.92811 10.501 7C10.501 6.07174 10.132 5.18079 9.47559 4.52441C8.81931 3.86818 7.92905 3.5001 7.00098 3.5Z" fill="var(--fill-0, #818AA3)"/>
<path d="M6.81152 2.00391C8.07166 1.95648 9.30359 2.38685 10.2598 3.20898C11.2158 4.03101 11.8257 5.18374 11.9678 6.43652C12.1098 7.68953 11.7733 8.95055 11.0254 9.96582L13.7803 12.7197C13.8539 12.7883 13.9131 12.871 13.9541 12.9629C13.9951 13.0548 14.0177 13.1542 14.0195 13.2549C14.0213 13.3555 14.0025 13.4555 13.9648 13.5488C13.9271 13.6422 13.871 13.7276 13.7998 13.7988C13.7286 13.87 13.6432 13.9261 13.5498 13.9639C13.4565 14.0015 13.3564 14.0203 13.2559 14.0186C13.1552 14.0168 13.0558 13.9941 12.9639 13.9531C12.872 13.9121 12.7893 13.8529 12.7207 13.7793L9.96582 11.0254C8.95055 11.7733 7.68953 12.1098 6.43652 11.9678C5.18374 11.8257 4.03101 11.2158 3.20898 10.2598C2.38685 9.30359 1.95648 8.07166 2.00391 6.81152C2.05144 5.55156 2.57327 4.35642 3.46484 3.46484C4.35642 2.57327 5.55155 2.05144 6.81152 2.00391ZM7.00098 3.5C6.07272 3.5 5.18177 3.86804 4.52539 4.52441C3.86902 5.18079 3.50098 6.07175 3.50098 7C3.50109 7.92807 3.86916 8.81834 4.52539 9.47461C5.18177 10.131 6.07272 10.5 7.00098 10.5C7.92909 10.4999 8.8193 10.1309 9.47559 9.47461C10.1319 8.81833 10.5009 7.92811 10.501 7C10.501 6.07174 10.132 5.18079 9.47559 4.52441C8.81931 3.86818 7.92905 3.5001 7.00098 3.5Z" stroke="var(--stroke-0, #818AA3)"/>
</g>
</g>
</svg>
