<svg preserveAspectRatio="none" width="100%" height="100%" overflow="visible" style="display: block;" viewBox="0 0 16 16" fill="none" xmlns="http://www.w3.org/2000/svg">
<g id="Frame">
<path id="Vector" d="M13.245 4.32936C12.5437 3.32869 11.5716 2.54885 10.4426 2.08136C11.0754 3.19468 11.5246 4.4027 11.773 5.65896C12.3257 5.28967 12.8216 4.84176 13.245 4.32936ZM10.6618 6.25976C10.3909 4.58978 9.7295 3.00737 8.73139 1.64136C8.24602 1.58621 7.75596 1.58621 7.27059 1.64136C6.27248 3.00737 5.61106 4.58978 5.34019 6.25976C6.18163 6.61737 7.08672 6.80105 8.00099 6.79976C8.94499 6.79976 9.84419 6.60776 10.6618 6.25976ZM5.21219 7.50056C6.1046 7.83189 7.04907 8.00095 8.00099 7.99976C8.98179 7.99976 9.92099 7.82376 10.7898 7.50056C10.8371 8.51116 10.7426 9.52339 10.509 10.5078C9.68723 10.7025 8.84552 10.8005 8.00099 10.7998C7.13779 10.7998 6.29859 10.6982 5.49379 10.507C5.26 9.52289 5.16521 8.51093 5.21219 7.50056ZM4.22899 5.65896C4.47749 4.40298 4.92671 3.19524 5.55939 2.08216C4.43043 2.54965 3.45825 3.32949 2.75699 4.33016C3.18019 4.84056 3.67619 5.29016 4.22899 5.65896ZM13.8682 5.43816C14.3204 6.47268 14.4899 7.6087 14.3594 8.73016C13.5776 9.30094 12.7224 9.76377 11.817 10.1062C12.001 9.06637 12.0478 8.00693 11.9562 6.95496C12.667 6.54968 13.3118 6.03818 13.8682 5.43816ZM2.13379 5.43816C2.69016 6.03819 3.33493 6.54969 4.04579 6.95496C3.95508 8.00722 4.00187 9.0668 4.18499 10.107C3.27958 9.76455 2.42442 9.30172 1.64259 8.73096C1.51233 7.60942 1.68211 6.47341 2.13459 5.43896L2.13379 5.43816ZM8.00099 11.9998C8.71939 11.9998 9.42339 11.9366 10.1074 11.8158C9.76497 12.7212 9.30214 13.5763 8.73139 14.3582C8.24602 14.4132 7.75597 14.4132 7.27059 14.3582C6.69982 13.5763 6.23699 12.7212 5.89459 11.8158C6.57859 11.9366 7.28259 11.9998 8.00099 11.9998ZM11.4866 11.4854C11.2299 12.3322 10.8797 13.1479 10.4426 13.9174C11.2219 13.5946 11.93 13.1216 12.5264 12.5251C13.1228 11.9287 13.5959 11.2206 13.9186 10.4414C13.1562 10.875 12.3418 11.2262 11.4866 11.4854ZM5.55939 13.9174C4.78011 13.5946 4.07203 13.1216 3.47561 12.5251C2.87919 11.9287 2.40611 11.2206 2.08339 10.4414C2.84579 10.875 3.66019 11.2262 4.51539 11.4854C4.77211 12.3322 5.12227 13.1479 5.55939 13.9174Z" fill="var(--fill-0, #818AA3)"/>
</g>
</svg>
