<svg width="16" height="16" viewBox="0 0 16 16" fill="none" xmlns="http://www.w3.org/2000/svg">
<path fill-rule="evenodd" clip-rule="evenodd" d="M2.23506 6.93111C5.72401 5.41591 8.04665 4.4091 9.21295 3.92065C12.5324 2.53504 13.2302 2.2958 13.6788 2.28583C13.7785 2.28583 13.9978 2.30576 14.1473 2.42539C14.2669 2.52507 14.2968 2.65466 14.3168 2.75434C14.3367 2.85403 14.3566 3.06336 14.3367 3.22286C14.1573 5.11686 13.3797 9.71229 12.981 11.8256C12.8115 12.7228 12.4826 13.0218 12.1636 13.0517C11.4658 13.1115 10.9375 12.5932 10.2696 12.1546C9.21295 11.4667 8.62481 11.0381 7.59807 10.3602C6.41183 9.5827 7.17939 9.15406 7.85725 8.45627C8.03668 8.27684 11.097 5.48569 11.1568 5.23648C11.1668 5.20657 11.1668 5.08695 11.097 5.02714C11.0272 4.96733 10.9275 4.98727 10.8478 5.0072C10.7381 5.02714 9.06342 6.1436 5.80375 8.34662C5.32527 8.67558 4.89663 8.83507 4.50786 8.82511C4.07922 8.81514 3.26181 8.58586 2.64377 8.38649C1.89614 8.14725 1.29803 8.01766 1.34788 7.59899C1.37778 7.37969 1.67683 7.16038 2.23506 6.93111Z" fill="#818AA3"/>
</svg>
