<svg width="16" height="16" viewBox="0 0 16 16" fill="none" xmlns="http://www.w3.org/2000/svg">
<path d="M12.7944 1.10813C13.0823 0.886425 13.441 0.777065 13.8036 0.800472C14.1662 0.823879 14.5079 0.978452 14.7648 1.23533C15.0218 1.49221 15.1765 1.83384 15.2001 2.19642C15.2236 2.55901 15.1144 2.91778 14.8928 3.20573L11.6688 7.42173C10.7612 8.60838 9.60411 9.58117 8.27919 10.2713C8.11536 9.65976 7.79342 9.10209 7.34572 8.6544C6.89803 8.2067 6.34036 7.88476 5.72879 7.72093C6.41907 6.39631 7.39185 5.23946 8.57839 4.33213L12.7944 1.10813ZM4.79999 8.80013C4.16347 8.80013 3.55302 9.05299 3.10293 9.50307C2.65284 9.95316 2.39999 10.5636 2.39999 11.2001C2.40012 11.2681 2.38293 11.335 2.35004 11.3945C2.31715 11.454 2.26963 11.5041 2.21199 11.5401C2.15434 11.5762 2.08847 11.5969 2.02058 11.6004C1.95269 11.6039 1.88503 11.59 1.82399 11.5601C1.71646 11.5073 1.59558 11.4879 1.47691 11.5043C1.35824 11.5208 1.24722 11.5724 1.15815 11.6526C1.06908 11.7327 1.00603 11.8376 0.977132 11.9539C0.948231 12.0702 0.954798 12.1924 0.995987 12.3049C1.25573 13.0095 1.75491 13.6003 2.4062 13.974C3.0575 14.3477 3.81945 14.4805 4.55878 14.3492C5.29811 14.218 5.96776 13.8309 6.45058 13.2558C6.93341 12.6808 7.19867 11.9542 7.19999 11.2033V11.2001C7.1992 10.7542 7.07464 10.3173 6.84016 9.93808C6.60568 9.55882 6.27051 9.25211 5.87199 9.05213C5.53912 8.8859 5.17206 8.79961 4.79999 8.80013Z" fill="#818AA3"/>
</svg>
