<svg preserveAspectRatio="none" width="100%" height="100%" overflow="visible" style="display: block;" viewBox="0 0 16 16" fill="none" xmlns="http://www.w3.org/2000/svg">
<g id="Frame">
<path id="Vector" fill-rule="evenodd" clip-rule="evenodd" d="M1.6 3.4C1.6 2.92261 1.78964 2.46477 2.12721 2.12721C2.46477 1.78964 2.92261 1.6 3.4 1.6H12.6C13.0774 1.6 13.5352 1.78964 13.8728 2.12721C14.2104 2.46477 14.4 2.92261 14.4 3.4V10.2C14.4 10.6774 14.2104 11.1352 13.8728 11.4728C13.5352 11.8104 13.0774 12 12.6 12H10.116C10.2722 12.5234 10.5781 12.9898 10.996 13.3416C11.09 13.421 11.1573 13.5274 11.1889 13.6463C11.2204 13.7652 11.2146 13.891 11.1722 14.0065C11.1299 14.122 11.053 14.2218 10.9521 14.2921C10.8512 14.3625 10.731 14.4002 10.608 14.4H5.392C5.26902 14.4 5.14902 14.3622 5.04822 14.2918C4.94742 14.2213 4.8707 14.1216 4.82845 14.0061C4.7862 13.8907 4.78046 13.765 4.812 13.6461C4.84354 13.5272 4.91085 13.4209 5.0048 13.3416C5.42239 12.9897 5.728 12.5234 5.884 12H3.4C2.92261 12 2.46477 11.8104 2.12721 11.4728C1.78964 11.1352 1.6 10.6774 1.6 10.2V3.4ZM2.8 3.4C2.8 3.24087 2.86321 3.08826 2.97574 2.97574C3.08826 2.86321 3.24087 2.8 3.4 2.8H12.6C12.7591 2.8 12.9117 2.86321 13.0243 2.97574C13.1368 3.08826 13.2 3.24087 13.2 3.4V9.4C13.2 9.55913 13.1368 9.71174 13.0243 9.82426C12.9117 9.93679 12.7591 10 12.6 10H3.4C3.24087 10 3.08826 9.93679 2.97574 9.82426C2.86321 9.71174 2.8 9.55913 2.8 9.4V3.4Z" fill="var(--fill-0, #818AA3)"/>
</g>
</svg>
