<svg width="16" height="16" viewBox="0 0 16 16" fill="none" xmlns="http://www.w3.org/2000/svg">
<path d="M13.2436 4.32961C12.5424 3.32894 11.5702 2.5491 10.4412 2.08161C11.074 3.19493 11.5232 4.40295 11.7716 5.65921C12.3243 5.28992 12.8202 4.84201 13.2436 4.32961ZM10.6604 6.26001C10.3896 4.59003 9.72814 3.00762 8.73002 1.64161C8.24465 1.58646 7.7546 1.58646 7.26922 1.64161C6.27111 3.00762 5.6097 4.59003 5.33882 6.26001C6.18026 6.61762 7.08535 6.8013 7.99962 6.80001C8.94362 6.80001 9.84282 6.60801 10.6604 6.26001ZM5.21082 7.50081C6.10323 7.83214 7.0477 8.0012 7.99962 8.00001C8.98042 8.00001 9.91962 7.82401 10.7884 7.50081C10.8357 8.51141 10.7412 9.52364 10.5076 10.508C9.68587 10.7028 8.84415 10.8008 7.99962 10.8C7.13642 10.8 6.29722 10.6984 5.49242 10.5072C5.25863 9.52314 5.16385 8.51118 5.21082 7.50081ZM4.22762 5.65921C4.47612 4.40323 4.92534 3.19549 5.55802 2.08241C4.42906 2.5499 3.45688 3.32974 2.75562 4.33041C3.17882 4.84081 3.67482 5.29041 4.22762 5.65921ZM13.8668 5.43841C14.319 6.47293 14.4885 7.60895 14.358 8.73041C13.5762 9.30119 12.721 9.76402 11.8156 10.1064C11.9996 9.06662 12.0464 8.00718 11.9548 6.95521C12.6657 6.54993 13.3104 6.03843 13.8668 5.43841ZM2.13242 5.43841C2.68879 6.03844 3.33356 6.54994 4.04442 6.95521C3.95371 8.00747 4.0005 9.06705 4.18362 10.1072C3.27821 9.7648 2.42305 9.30197 1.64122 8.73121C1.51097 7.60967 1.68075 6.47366 2.13322 5.43921L2.13242 5.43841ZM7.99962 12C8.71802 12 9.42203 11.9368 10.106 11.816C9.7636 12.7214 9.30078 13.5766 8.73002 14.3584C8.24465 14.4135 7.7546 14.4135 7.26922 14.3584C6.69845 13.5766 6.23562 12.7214 5.89322 11.816C6.57722 11.9368 7.28122 12 7.99962 12ZM11.4852 11.4856C11.2285 12.3325 10.8784 13.1482 10.4412 13.9176C11.2205 13.5949 11.9286 13.1218 12.525 12.5254C13.1214 11.929 13.5945 11.2209 13.9172 10.4416C13.1548 10.8752 12.3404 11.2264 11.4852 11.4856ZM5.55802 13.9176C4.77874 13.5949 4.07066 13.1218 3.47424 12.5254C2.87782 11.929 2.40474 11.2209 2.08202 10.4416C2.84442 10.8752 3.65882 11.2264 4.51402 11.4856C4.77074 12.3325 5.1209 13.1482 5.55802 13.9176Z" fill="#818AA3"/>
</svg>
