<svg preserveAspectRatio="none" width="100%" height="100%" overflow="visible" style="display: block;" viewBox="0 0 16 16" fill="none" xmlns="http://www.w3.org/2000/svg">
<g id="Frame">
<path id="Vector" fill-rule="evenodd" clip-rule="evenodd" d="M12.416 3.376C12.5815 3.48634 12.6964 3.65789 12.7354 3.85293C12.7744 4.04796 12.7343 4.2505 12.624 4.416L7.624 11.916C7.56242 12.0082 7.48114 12.0857 7.38603 12.1427C7.29092 12.1998 7.18434 12.235 7.07396 12.2459C6.96359 12.2568 6.85217 12.2431 6.74773 12.2058C6.6433 12.1684 6.54844 12.1084 6.47 12.03L3.47 9.03C3.33752 8.88783 3.2654 8.69978 3.26883 8.50548C3.27225 8.31118 3.35097 8.12579 3.48838 7.98838C3.62579 7.85097 3.81118 7.77225 4.00548 7.76883C4.19978 7.7654 4.38783 7.83752 4.53 7.97L6.883 10.323L11.376 3.583C11.4865 3.41768 11.6581 3.303 11.8531 3.26418C12.0482 3.22537 12.2506 3.26559 12.416 3.376Z" fill="var(--fill-0, #818AA3)"/>
</g>
</svg>
