<svg preserveAspectRatio="none" width="100%" height="100%" overflow="visible" style="display: block;" viewBox="0 0 16 16" fill="none" xmlns="http://www.w3.org/2000/svg">
<g id="Frame">
<path id="Vector" fill-rule="evenodd" clip-rule="evenodd" d="M4.17606 6.57534C4.28856 6.46298 4.44106 6.39987 4.60006 6.39987C4.75906 6.39987 4.91156 6.46298 5.02406 6.57534L8.00006 9.55134L10.9761 6.57534C11.031 6.51639 11.0972 6.46911 11.1708 6.43632C11.2444 6.40352 11.3239 6.38589 11.4044 6.38447C11.485 6.38305 11.565 6.39787 11.6397 6.42804C11.7144 6.45822 11.7823 6.50314 11.8393 6.56011C11.8963 6.61709 11.9412 6.68495 11.9714 6.75966C12.0015 6.83437 12.0164 6.9144 12.0149 6.99496C12.0135 7.07552 11.9959 7.15497 11.9631 7.22857C11.9303 7.30217 11.883 7.36841 11.8241 7.42334L8.42406 10.8233C8.31156 10.9357 8.15906 10.9988 8.00006 10.9988C7.84106 10.9988 7.68856 10.9357 7.57606 10.8233L4.17606 7.42334C4.0637 7.31084 4.00059 7.15834 4.00059 6.99934C4.00059 6.84034 4.0637 6.68784 4.17606 6.57534Z" fill="var(--fill-0, #818AA3)"/>
</g>
</svg>
