<svg preserveAspectRatio="none" width="100%" height="100%" overflow="visible" style="display: block;" viewBox="0 0 16 16" fill="none" xmlns="http://www.w3.org/2000/svg">
<g id="Frame">
<path id="Vector" fill-rule="evenodd" clip-rule="evenodd" d="M3.2 13.2V2.8H3C2.84087 2.8 2.68826 2.73679 2.57574 2.62426C2.46321 2.51174 2.4 2.35913 2.4 2.2C2.4 2.04087 2.46321 1.88826 2.57574 1.77574C2.68826 1.66321 2.84087 1.6 3 1.6H13C13.1591 1.6 13.3117 1.66321 13.4243 1.77574C13.5368 1.88826 13.6 2.04087 13.6 2.2C13.6 2.35913 13.5368 2.51174 13.4243 2.62426C13.3117 2.73679 13.1591 2.8 13 2.8H12.8V13.2H13C13.1591 13.2 13.3117 13.2632 13.4243 13.3757C13.5368 13.4883 13.6 13.6409 13.6 13.8C13.6 13.9591 13.5368 14.1117 13.4243 14.2243C13.3117 14.3368 13.1591 14.4 13 14.4H10.2C10.0409 14.4 9.88826 14.3368 9.77574 14.2243C9.66321 14.1117 9.6 13.9591 9.6 13.8V11.8C9.6 11.6409 9.53679 11.4883 9.42426 11.3757C9.31174 11.2632 9.15913 11.2 9 11.2H7C6.84087 11.2 6.68826 11.2632 6.57574 11.3757C6.46321 11.4883 6.4 11.6409 6.4 11.8V13.8C6.4 13.9591 6.33679 14.1117 6.22426 14.2243C6.11174 14.3368 5.95913 14.4 5.8 14.4H3C2.84087 14.4 2.68826 14.3368 2.57574 14.2243C2.46321 14.1117 2.4 13.9591 2.4 13.8C2.4 13.6409 2.46321 13.4883 2.57574 13.3757C2.68826 13.2632 2.84087 13.2 3 13.2H3.2ZM5.6 4.4C5.6 4.29391 5.64214 4.19217 5.71716 4.11716C5.79217 4.04214 5.89391 4 6 4H6.8C6.90609 4 7.00783 4.04214 7.08284 4.11716C7.15786 4.19217 7.2 4.29391 7.2 4.4V5.2C7.2 5.30609 7.15786 5.40783 7.08284 5.48284C7.00783 5.55786 6.90609 5.6 6.8 5.6H6C5.89391 5.6 5.79217 5.55786 5.71716 5.48284C5.64214 5.40783 5.6 5.30609 5.6 5.2V4.4ZM6 7.2C5.89391 7.2 5.79217 7.24214 5.71716 7.31716C5.64214 7.39217 5.6 7.49391 5.6 7.6V8.4C5.6 8.50609 5.64214 8.60783 5.71716 8.68284C5.79217 8.75786 5.89391 8.8 6 8.8H6.8C6.90609 8.8 7.00783 8.75786 7.08284 8.68284C7.15786 8.60783 7.2 8.50609 7.2 8.4V7.6C7.2 7.49391 7.15786 7.39217 7.08284 7.31716C7.00783 7.24214 6.90609 7.2 6.8 7.2H6ZM8.8 4.4C8.8 4.29391 8.84214 4.19217 8.91716 4.11716C8.99217 4.04214 9.09391 4 9.2 4H10C10.1061 4 10.2078 4.04214 10.2828 4.11716C10.3579 4.19217 10.4 4.29391 10.4 4.4V5.2C10.4 5.30609 10.3579 5.40783 10.2828 5.48284C10.2078 5.55786 10.1061 5.6 10 5.6H9.2C9.09391 5.6 8.99217 5.55786 8.91716 5.48284C8.84214 5.40783 8.8 5.30609 8.8 5.2V4.4ZM9.2 7.2C9.09391 7.2 8.99217 7.24214 8.91716 7.31716C8.84214 7.39217 8.8 7.49391 8.8 7.6V8.4C8.8 8.50609 8.84214 8.60783 8.91716 8.68284C8.99217 8.75786 9.09391 8.8 9.2 8.8H10C10.1061 8.8 10.2078 8.75786 10.2828 8.68284C10.3579 8.60783 10.4 8.50609 10.4 8.4V7.6C10.4 7.49391 10.3579 7.39217 10.2828 7.31716C10.2078 7.24214 10.1061 7.2 10 7.2H9.2Z" fill="var(--fill-0, #818AA3)"/>
</g>
</svg>
